<ttFont>
    <TTGlyph name=".notdef" xMin="238" yMin="0" xMax="1066" yMax="1400">
      <contour>
        <pt x="1066" y="128" on="1"/>
        <pt x="1066" y="84" on="0"/>
        <pt x="1048" y="34" on="0"/>
        <pt x="1006" y="7" on="0"/>
        <pt x="936" y="0" on="0"/>
        <pt x="884" y="0" on="1"/>
        <pt x="420" y="0" on="1"/>
        <pt x="367" y="0" on="0"/>
        <pt x="297" y="7" on="0"/>
        <pt x="255" y="34" on="0"/>
        <pt x="238" y="84" on="0"/>
        <pt x="238" y="128" on="1"/>
        <pt x="238" y="1272" on="1"/>
        <pt x="238" y="1315" on="0"/>
        <pt x="255" y="1366" on="0"/>
        <pt x="297" y="1393" on="0"/>
        <pt x="367" y="1400" on="0"/>
        <pt x="420" y="1400" on="1"/>
        <pt x="884" y="1400" on="1"/>
        <pt x="936" y="1400" on="0"/>
        <pt x="1006" y="1393" on="0"/>
        <pt x="1048" y="1366" on="0"/>
        <pt x="1066" y="1315" on="0"/>
        <pt x="1066" y="1272" on="1"/>
      </contour>
      <contour>
        <pt x="488" y="1186" on="1"/>
        <pt x="488" y="214" on="1"/>
        <pt x="816" y="214" on="1"/>
        <pt x="816" y="1186" on="1"/>
      </contour>
    </TTGlyph>
    <TTGlyph name="A" xMin="74" yMin="0" xMax="1030" yMax="1400">
      <contour>
        <pt x="394" y="604" on="1"/>
        <pt x="712" y="604" on="1"/>
        <pt x="564" y="1140" on="1"/>
        <pt x="542" y="1140" on="1"/>
      </contour>
      <contour>
        <pt x="1022" y="506" on="1"/>
        <pt x="1024" y="438" on="0"/>
        <pt x="1030" y="296" on="0"/>
        <pt x="1030" y="230" on="1"/>
        <pt x="1030" y="200" on="1"/>
        <pt x="1030" y="162" on="0"/>
        <pt x="1025" y="91" on="0"/>
        <pt x="999" y="34" on="0"/>
        <pt x="943" y="0" on="0"/>
        <pt x="892" y="0" on="1"/>
        <pt x="840" y="0" on="0"/>
        <pt x="784" y="34" on="0"/>
        <pt x="757" y="90" on="0"/>
        <pt x="752" y="162" on="0"/>
        <pt x="752" y="200" on="1"/>
        <pt x="752" y="340" on="1"/>
        <pt x="352" y="340" on="1"/>
        <pt x="352" y="200" on="1"/>
        <pt x="352" y="162" on="0"/>
        <pt x="347" y="90" on="0"/>
        <pt x="320" y="34" on="0"/>
        <pt x="264" y="0" on="0"/>
        <pt x="212" y="0" on="1"/>
        <pt x="160" y="0" on="0"/>
        <pt x="104" y="34" on="0"/>
        <pt x="78" y="91" on="0"/>
        <pt x="74" y="162" on="0"/>
        <pt x="74" y="200" on="1"/>
        <pt x="74" y="230" on="1"/>
        <pt x="74" y="261" on="0"/>
        <pt x="75" y="331" on="0"/>
        <pt x="77" y="403" on="0"/>
        <pt x="79" y="474" on="0"/>
        <pt x="80" y="506" on="1"/>
        <pt x="130" y="680" on="0"/>
        <pt x="240" y="1037" on="0"/>
        <pt x="290" y="1212" on="1"/>
        <pt x="300" y="1249" on="0"/>
        <pt x="328" y="1318" on="0"/>
        <pt x="374" y="1369" on="0"/>
        <pt x="446" y="1400" on="0"/>
        <pt x="502" y="1400" on="1"/>
        <pt x="602" y="1400" on="1"/>
        <pt x="657" y="1400" on="0"/>
        <pt x="730" y="1369" on="0"/>
        <pt x="776" y="1318" on="0"/>
        <pt x="803" y="1249" on="0"/>
        <pt x="814" y="1212" on="1"/>
      </contour>
    </TTGlyph>
    <TTGlyph name="AE" xMin="78" yMin="0" xMax="1526" yMax="1400">
      <contour>
        <pt x="84" y="506" on="1"/>
        <pt x="182" y="680" on="0"/>
        <pt x="390" y="1037" on="0"/>
        <pt x="488" y="1212" on="1"/>
        <pt x="509" y="1249" on="0"/>
        <pt x="564" y="1318" on="0"/>
        <pt x="635" y="1369" on="0"/>
        <pt x="724" y="1400" on="0"/>
        <pt x="780" y="1400" on="1"/>
        <pt x="1296" y="1400" on="1"/>
        <pt x="1336" y="1400" on="0"/>
        <pt x="1418" y="1394" on="0"/>
        <pt x="1484" y="1367" on="0"/>
        <pt x="1526" y="1311" on="0"/>
        <pt x="1526" y="1260" on="1"/>
        <pt x="1526" y="1209" on="0"/>
        <pt x="1484" y="1150" on="0"/>
        <pt x="1418" y="1120" on="0"/>
        <pt x="1336" y="1112" on="0"/>
        <pt x="1296" y="1112" on="1"/>
        <pt x="1058" y="1112" on="1"/>
        <pt x="1058" y="840" on="1"/>
        <pt x="1184" y="840" on="1"/>
        <pt x="1224" y="840" on="0"/>
        <pt x="1305" y="836" on="0"/>
        <pt x="1368" y="811" on="0"/>
        <pt x="1408" y="757" on="0"/>
        <pt x="1408" y="708" on="1"/>
        <pt x="1408" y="658" on="0"/>
        <pt x="1368" y="605" on="0"/>
        <pt x="1305" y="580" on="0"/>
        <pt x="1224" y="576" on="0"/>
        <pt x="1184" y="576" on="1"/>
        <pt x="1058" y="576" on="1"/>
        <pt x="1058" y="288" on="1"/>
        <pt x="1296" y="288" on="1"/>
        <pt x="1336" y="288" on="0"/>
        <pt x="1418" y="280" on="0"/>
        <pt x="1484" y="250" on="0"/>
        <pt x="1526" y="192" on="0"/>
        <pt x="1526" y="142" on="1"/>
        <pt x="1526" y="90" on="0"/>
        <pt x="1483" y="33" on="0"/>
        <pt x="1417" y="6" on="0"/>
        <pt x="1335" y="0" on="0"/>
        <pt x="1296" y="0" on="1"/>
        <pt x="920" y="0" on="1"/>
        <pt x="864" y="0" on="0"/>
        <pt x="803" y="40" on="0"/>
        <pt x="775" y="105" on="0"/>
        <pt x="770" y="187" on="0"/>
        <pt x="770" y="230" on="1"/>
        <pt x="770" y="340" on="1"/>
        <pt x="356" y="340" on="1"/>
        <pt x="356" y="200" on="1"/>
        <pt x="356" y="162" on="0"/>
        <pt x="351" y="90" on="0"/>
        <pt x="324" y="34" on="0"/>
        <pt x="268" y="0" on="0"/>
        <pt x="216" y="0" on="1"/>
        <pt x="164" y="0" on="0"/>
        <pt x="108" y="34" on="0"/>
        <pt x="82" y="91" on="0"/>
        <pt x="78" y="162" on="0"/>
        <pt x="78" y="200" on="1"/>
        <pt x="78" y="230" on="1"/>
        <pt x="78" y="261" on="0"/>
        <pt x="79" y="331" on="0"/>
        <pt x="81" y="403" on="0"/>
        <pt x="83" y="474" on="0"/>
      </contour>
      <contour>
        <pt x="452" y="604" on="1"/>
        <pt x="770" y="604" on="1"/>
        <pt x="770" y="1140" on="1"/>
        <pt x="748" y="1140" on="1"/>
      </contour>
    </TTGlyph>
    <TTGlyph name="Aacute" xMin="74" yMin="0" xMax="1030" yMax="1850">
      <contour>
        <pt x="394" y="604" on="1"/>
        <pt x="712" y="604" on="1"/>
        <pt x="564" y="1140" on="1"/>
        <pt x="542" y="1140" on="1"/>
      </contour>
      <contour>
        <pt x="1022" y="506" on="1"/>
        <pt x="1024" y="438" on="0"/>
        <pt x="1030" y="296" on="0"/>
        <pt x="1030" y="230" on="1"/>
        <pt x="1030" y="200" on="1"/>
        <pt x="1030" y="162" on="0"/>
        <pt x="1025" y="91" on="0"/>
        <pt x="999" y="34" on="0"/>
        <pt x="943" y="0" on="0"/>
        <pt x="892" y="0" on="1"/>
        <pt x="840" y="0" on="0"/>
        <pt x="784" y="34" on="0"/>
        <pt x="757" y="90" on="0"/>
        <pt x="752" y="162" on="0"/>
        <pt x="752" y="200" on="1"/>
        <pt x="752" y="340" on="1"/>
        <pt x="352" y="340" on="1"/>
        <pt x="352" y="200" on="1"/>
        <pt x="352" y="162" on="0"/>
        <pt x="347" y="90" on="0"/>
        <pt x="320" y="34" on="0"/>
        <pt x="264" y="0" on="0"/>
        <pt x="212" y="0" on="1"/>
        <pt x="160" y="0" on="0"/>
        <pt x="104" y="34" on="0"/>
        <pt x="78" y="91" on="0"/>
        <pt x="74" y="162" on="0"/>
        <pt x="74" y="200" on="1"/>
        <pt x="74" y="230" on="1"/>
        <pt x="74" y="261" on="0"/>
        <pt x="75" y="331" on="0"/>
        <pt x="77" y="403" on="0"/>
        <pt x="79" y="474" on="0"/>
        <pt x="80" y="506" on="1"/>
        <pt x="130" y="680" on="0"/>
        <pt x="240" y="1037" on="0"/>
        <pt x="290" y="1212" on="1"/>
        <pt x="300" y="1249" on="0"/>
        <pt x="328" y="1318" on="0"/>
        <pt x="374" y="1369" on="0"/>
        <pt x="446" y="1400" on="0"/>
        <pt x="502" y="1400" on="1"/>
        <pt x="602" y="1400" on="1"/>
        <pt x="657" y="1400" on="0"/>
        <pt x="730" y="1369" on="0"/>
        <pt x="776" y="1318" on="0"/>
        <pt x="803" y="1249" on="0"/>
        <pt x="814" y="1212" on="1"/>
      </contour>
      <contour>
        <pt x="604" y="1832" on="1"/>
        <pt x="631" y="1850" on="0"/>
        <pt x="660" y="1850" on="1"/>
        <pt x="686" y="1850" on="0"/>
        <pt x="740" y="1833" on="0"/>
        <pt x="760" y="1804" on="1"/>
        <pt x="772" y="1786" on="0"/>
        <pt x="782" y="1750" on="0"/>
        <pt x="782" y="1736" on="1"/>
        <pt x="782" y="1709" on="0"/>
        <pt x="752" y="1664" on="0"/>
        <pt x="732" y="1650" on="1"/>
        <pt x="512" y="1516" on="1"/>
        <pt x="498" y="1507" on="0"/>
        <pt x="467" y="1500" on="0"/>
        <pt x="452" y="1500" on="1"/>
        <pt x="425" y="1500" on="0"/>
        <pt x="378" y="1517" on="0"/>
        <pt x="358" y="1546" on="1"/>
        <pt x="346" y="1563" on="0"/>
        <pt x="336" y="1596" on="0"/>
        <pt x="336" y="1610" on="1"/>
        <pt x="336" y="1640" on="0"/>
        <pt x="366" y="1687" on="0"/>
        <pt x="380" y="1696" on="1"/>
      </contour>
    </TTGlyph>
    <TTGlyph name="Acircumflex" xMin="74" yMin="0" xMax="1030" yMax="1894">
      <contour>
        <pt x="394" y="604" on="1"/>
        <pt x="712" y="604" on="1"/>
        <pt x="564" y="1140" on="1"/>
        <pt x="542" y="1140" on="1"/>
      </contour>
      <contour>
        <pt x="1022" y="506" on="1"/>
        <pt x="1024" y="438" on="0"/>
        <pt x="1030" y="296" on="0"/>
        <pt x="1030" y="230" on="1"/>
        <pt x="1030" y="200" on="1"/>
        <pt x="1030" y="162" on="0"/>
        <pt x="1025" y="91" on="0"/>
        <pt x="999" y="34" on="0"/>
        <pt x="943" y="0" on="0"/>
        <pt x="892" y="0" on="1"/>
        <pt x="840" y="0" on="0"/>
        <pt x="784" y="34" on="0"/>
        <pt x="757" y="90" on="0"/>
        <pt x="752" y="162" on="0"/>
        <pt x="752" y="200" on="1"/>
        <pt x="752" y="340" on="1"/>
        <pt x="352" y="340" on="1"/>
        <pt x="352" y="200" on="1"/>
        <pt x="352" y="162" on="0"/>
        <pt x="347" y="90" on="0"/>
        <pt x="320" y="34" on="0"/>
        <pt x="264" y="0" on="0"/>
        <pt x="212" y="0" on="1"/>
        <pt x="160" y="0" on="0"/>
        <pt x="104" y="34" on="0"/>
        <pt x="78" y="91" on="0"/>
        <pt x="74" y="162" on="0"/>
        <pt x="74" y="200" on="1"/>
        <pt x="74" y="230" on="1"/>
        <pt x="74" y="261" on="0"/>
        <pt x="75" y="331" on="0"/>
        <pt x="77" y="403" on="0"/>
        <pt x="79" y="474" on="0"/>
        <pt x="80" y="506" on="1"/>
        <pt x="130" y="680" on="0"/>
        <pt x="240" y="1037" on="0"/>
        <pt x="290" y="1212" on="1"/>
        <pt x="300" y="1249" on="0"/>
        <pt x="328" y="1318" on="0"/>
        <pt x="374" y="1369" on="0"/>
        <pt x="446" y="1400" on="0"/>
        <pt x="502" y="1400" on="1"/>
        <pt x="602" y="1400" on="1"/>
        <pt x="657" y="1400" on="0"/>
        <pt x="730" y="1369" on="0"/>
        <pt x="776" y="1318" on="0"/>
        <pt x="803" y="1249" on="0"/>
        <pt x="814" y="1212" on="1"/>
      </contour>
      <contour>
        <pt x="830" y="1680" on="1"/>
        <pt x="841" y="1669" on="0"/>
        <pt x="858" y="1632" on="0"/>
        <pt x="858" y="1608" on="1"/>
        <pt x="858" y="1582" on="0"/>
        <pt x="835" y="1544" on="0"/>
        <pt x="820" y="1530" on="1"/>
        <pt x="802" y="1513" on="0"/>
        <pt x="768" y="1500" on="0"/>
        <pt x="750" y="1500" on="1"/>
        <pt x="726" y="1500" on="0"/>
        <pt x="678" y="1515" on="0"/>
        <pt x="664" y="1532" on="1"/>
        <pt x="554" y="1636" on="1"/>
        <pt x="444" y="1532" on="1"/>
        <pt x="430" y="1515" on="0"/>
        <pt x="382" y="1500" on="0"/>
        <pt x="358" y="1500" on="1"/>
        <pt x="340" y="1500" on="0"/>
        <pt x="306" y="1513" on="0"/>
        <pt x="288" y="1530" on="1"/>
        <pt x="273" y="1544" on="0"/>
        <pt x="250" y="1582" on="0"/>
        <pt x="250" y="1608" on="1"/>
        <pt x="250" y="1632" on="0"/>
        <pt x="267" y="1669" on="0"/>
        <pt x="278" y="1680" on="1"/>
        <pt x="468" y="1860" on="1"/>
        <pt x="483" y="1875" on="0"/>
        <pt x="520" y="1892" on="0"/>
        <pt x="544" y="1894" on="1"/>
        <pt x="564" y="1894" on="1"/>
        <pt x="609" y="1891" on="0"/>
        <pt x="640" y="1860" on="1"/>
      </contour>
    </TTGlyph>
    <TTGlyph name="Adieresis" xMin="74" yMin="0" xMax="1030" yMax="1804">
      <contour>
        <pt x="394" y="604" on="1"/>
        <pt x="712" y="604" on="1"/>
        <pt x="564" y="1140" on="1"/>
        <pt x="542" y="1140" on="1"/>
      </contour>
      <contour>
        <pt x="1022" y="506" on="1"/>
        <pt x="1024" y="438" on="0"/>
        <pt x="1030" y="296" on="0"/>
        <pt x="1030" y="230" on="1"/>
        <pt x="1030" y="200" on="1"/>
        <pt x="1030" y="162" on="0"/>
        <pt x="1025" y="91" on="0"/>
        <pt x="999" y="34" on="0"/>
        <pt x="943" y="0" on="0"/>
        <pt x="892" y="0" on="1"/>
        <pt x="840" y="0" on="0"/>
        <pt x="784" y="34" on="0"/>
        <pt x="757" y="90" on="0"/>
        <pt x="752" y="162" on="0"/>
        <pt x="752" y="200" on="1"/>
        <pt x="752" y="340" on="1"/>
        <pt x="352" y="340" on="1"/>
        <pt x="352" y="200" on="1"/>
        <pt x="352" y="162" on="0"/>
        <pt x="347" y="90" on="0"/>
        <pt x="320" y="34" on="0"/>
        <pt x="264" y="0" on="0"/>
        <pt x="212" y="0" on="1"/>
        <pt x="160" y="0" on="0"/>
        <pt x="104" y="34" on="0"/>
        <pt x="78" y="91" on="0"/>
        <pt x="74" y="162" on="0"/>
        <pt x="74" y="200" on="1"/>
        <pt x="74" y="230" on="1"/>
        <pt x="74" y="261" on="0"/>
        <pt x="75" y="331" on="0"/>
        <pt x="77" y="403" on="0"/>
        <pt x="79" y="474" on="0"/>
        <pt x="80" y="506" on="1"/>
        <pt x="130" y="680" on="0"/>
        <pt x="240" y="1037" on="0"/>
        <pt x="290" y="1212" on="1"/>
        <pt x="300" y="1249" on="0"/>
        <pt x="328" y="1318" on="0"/>
        <pt x="374" y="1369" on="0"/>
        <pt x="446" y="1400" on="0"/>
        <pt x="502" y="1400" on="1"/>
        <pt x="602" y="1400" on="1"/>
        <pt x="657" y="1400" on="0"/>
        <pt x="730" y="1369" on="0"/>
        <pt x="776" y="1318" on="0"/>
        <pt x="803" y="1249" on="0"/>
        <pt x="814" y="1212" on="1"/>
      </contour>
      <contour>
        <pt x="494" y="1652" on="1"/>
        <pt x="494" y="1575" on="0"/>
        <pt x="414" y="1500" on="0"/>
        <pt x="342" y="1500" on="1"/>
        <pt x="270" y="1500" on="0"/>
        <pt x="190" y="1575" on="0"/>
        <pt x="190" y="1652" on="1"/>
        <pt x="190" y="1732" on="0"/>
        <pt x="270" y="1804" on="0"/>
        <pt x="342" y="1804" on="1"/>
        <pt x="419" y="1804" on="0"/>
        <pt x="494" y="1732" on="0"/>
      </contour>
      <contour>
        <pt x="910" y="1652" on="1"/>
        <pt x="910" y="1575" on="0"/>
        <pt x="830" y="1500" on="0"/>
        <pt x="758" y="1500" on="1"/>
        <pt x="686" y="1500" on="0"/>
        <pt x="606" y="1575" on="0"/>
        <pt x="606" y="1652" on="1"/>
        <pt x="606" y="1732" on="0"/>
        <pt x="686" y="1804" on="0"/>
        <pt x="758" y="1804" on="1"/>
        <pt x="835" y="1804" on="0"/>
        <pt x="910" y="1732" on="0"/>
      </contour>
    </TTGlyph>
    <TTGlyph name="Agrave" xMin="74" yMin="0" xMax="1030" yMax="1852">
      <contour>
        <pt x="394" y="604" on="1"/>
        <pt x="712" y="604" on="1"/>
        <pt x="564" y="1140" on="1"/>
        <pt x="542" y="1140" on="1"/>
      </contour>
      <contour>
        <pt x="1022" y="506" on="1"/>
        <pt x="1024" y="438" on="0"/>
        <pt x="1030" y="296" on="0"/>
        <pt x="1030" y="230" on="1"/>
        <pt x="1030" y="200" on="1"/>
        <pt x="1030" y="162" on="0"/>
        <pt x="1025" y="91" on="0"/>
        <pt x="999" y="34" on="0"/>
        <pt x="943" y="0" on="0"/>
        <pt x="892" y="0" on="1"/>
        <pt x="840" y="0" on="0"/>
        <pt x="784" y="34" on="0"/>
        <pt x="757" y="90" on="0"/>
        <pt x="752" y="162" on="0"/>
        <pt x="752" y="200" on="1"/>
        <pt x="752" y="340" on="1"/>
        <pt x="352" y="340" on="1"/>
        <pt x="352" y="200" on="1"/>
        <pt x="352" y="162" on="0"/>
        <pt x="347" y="90" on="0"/>
        <pt x="320" y="34" on="0"/>
        <pt x="264" y="0" on="0"/>
        <pt x="212" y="0" on="1"/>
        <pt x="160" y="0" on="0"/>
        <pt x="104" y="34" on="0"/>
        <pt x="78" y="91" on="0"/>
        <pt x="74" y="162" on="0"/>
        <pt x="74" y="200" on="1"/>
        <pt x="74" y="230" on="1"/>
        <pt x="74" y="261" on="0"/>
        <pt x="75" y="331" on="0"/>
        <pt x="77" y="403" on="0"/>
        <pt x="79" y="474" on="0"/>
        <pt x="80" y="506" on="1"/>
        <pt x="130" y="680" on="0"/>
        <pt x="240" y="1037" on="0"/>
        <pt x="290" y="1212" on="1"/>
        <pt x="300" y="1249" on="0"/>
        <pt x="328" y="1318" on="0"/>
        <pt x="374" y="1369" on="0"/>
        <pt x="446" y="1400" on="0"/>
        <pt x="502" y="1400" on="1"/>
        <pt x="602" y="1400" on="1"/>
        <pt x="657" y="1400" on="0"/>
        <pt x="730" y="1369" on="0"/>
        <pt x="776" y="1318" on="0"/>
        <pt x="803" y="1249" on="0"/>
        <pt x="814" y="1212" on="1"/>
      </contour>
      <contour>
        <pt x="734" y="1698" on="1"/>
        <pt x="748" y="1689" on="0"/>
        <pt x="778" y="1642" on="0"/>
        <pt x="778" y="1612" on="1"/>
        <pt x="778" y="1598" on="0"/>
        <pt x="768" y="1565" on="0"/>
        <pt x="756" y="1548" on="1"/>
        <pt x="736" y="1519" on="0"/>
        <pt x="689" y="1502" on="0"/>
        <pt x="662" y="1502" on="1"/>
        <pt x="647" y="1502" on="0"/>
        <pt x="616" y="1509" on="0"/>
        <pt x="602" y="1518" on="1"/>
        <pt x="382" y="1652" on="1"/>
        <pt x="362" y="1666" on="0"/>
        <pt x="332" y="1711" on="0"/>
        <pt x="332" y="1738" on="1"/>
        <pt x="332" y="1752" on="0"/>
        <pt x="342" y="1788" on="0"/>
        <pt x="354" y="1806" on="1"/>
        <pt x="374" y="1835" on="0"/>
        <pt x="428" y="1852" on="0"/>
        <pt x="454" y="1852" on="1"/>
        <pt x="483" y="1852" on="0"/>
        <pt x="510" y="1834" on="1"/>
      </contour>
    </TTGlyph>
    <TTGlyph name="Amacron" xMin="74" yMin="0" xMax="1030" yMax="1804">
      <contour>
        <pt x="394" y="604" on="1"/>
        <pt x="712" y="604" on="1"/>
        <pt x="564" y="1140" on="1"/>
        <pt x="542" y="1140" on="1"/>
      </contour>
      <contour>
        <pt x="1022" y="506" on="1"/>
        <pt x="1024" y="438" on="0"/>
        <pt x="1030" y="296" on="0"/>
        <pt x="1030" y="230" on="1"/>
        <pt x="1030" y="200" on="1"/>
        <pt x="1030" y="162" on="0"/>
        <pt x="1025" y="91" on="0"/>
        <pt x="999" y="34" on="0"/>
        <pt x="943" y="0" on="0"/>
        <pt x="892" y="0" on="1"/>
        <pt x="840" y="0" on="0"/>
        <pt x="784" y="34" on="0"/>
        <pt x="757" y="90" on="0"/>
        <pt x="752" y="162" on="0"/>
        <pt x="752" y="200" on="1"/>
        <pt x="752" y="340" on="1"/>
        <pt x="352" y="340" on="1"/>
        <pt x="352" y="200" on="1"/>
        <pt x="352" y="162" on="0"/>
        <pt x="347" y="90" on="0"/>
        <pt x="320" y="34" on="0"/>
        <pt x="264" y="0" on="0"/>
        <pt x="212" y="0" on="1"/>
        <pt x="160" y="0" on="0"/>
        <pt x="104" y="34" on="0"/>
        <pt x="78" y="91" on="0"/>
        <pt x="74" y="162" on="0"/>
        <pt x="74" y="200" on="1"/>
        <pt x="74" y="230" on="1"/>
        <pt x="74" y="261" on="0"/>
        <pt x="75" y="331" on="0"/>
        <pt x="77" y="403" on="0"/>
        <pt x="79" y="474" on="0"/>
        <pt x="80" y="506" on="1"/>
        <pt x="130" y="680" on="0"/>
        <pt x="240" y="1037" on="0"/>
        <pt x="290" y="1212" on="1"/>
        <pt x="300" y="1249" on="0"/>
        <pt x="328" y="1318" on="0"/>
        <pt x="374" y="1369" on="0"/>
        <pt x="446" y="1400" on="0"/>
        <pt x="502" y="1400" on="1"/>
        <pt x="602" y="1400" on="1"/>
        <pt x="657" y="1400" on="0"/>
        <pt x="730" y="1369" on="0"/>
        <pt x="776" y="1318" on="0"/>
        <pt x="803" y="1249" on="0"/>
        <pt x="814" y="1212" on="1"/>
      </contour>
      <contour>
        <pt x="750" y="1804" on="1"/>
        <pt x="775" y="1804" on="0"/>
        <pt x="833" y="1799" on="0"/>
        <pt x="882" y="1778" on="0"/>
        <pt x="914" y="1732" on="0"/>
        <pt x="914" y="1692" on="1"/>
        <pt x="914" y="1651" on="0"/>
        <pt x="882" y="1606" on="0"/>
        <pt x="833" y="1585" on="0"/>
        <pt x="775" y="1580" on="0"/>
        <pt x="750" y="1580" on="1"/>
        <pt x="348" y="1580" on="1"/>
        <pt x="320" y="1580" on="0"/>
        <pt x="262" y="1585" on="0"/>
        <pt x="214" y="1606" on="0"/>
        <pt x="184" y="1651" on="0"/>
        <pt x="184" y="1692" on="1"/>
        <pt x="184" y="1732" on="0"/>
        <pt x="214" y="1778" on="0"/>
        <pt x="262" y="1799" on="0"/>
        <pt x="320" y="1804" on="0"/>
        <pt x="348" y="1804" on="1"/>
      </contour>
    </TTGlyph>
    <TTGlyph name="Aring" xMin="74" yMin="0" xMax="1030" yMax="1958">
      <contour>
        <pt x="394" y="604" on="1"/>
        <pt x="712" y="604" on="1"/>
        <pt x="564" y="1140" on="1"/>
        <pt x="542" y="1140" on="1"/>
      </contour>
      <contour>
        <pt x="1022" y="506" on="1"/>
        <pt x="1024" y="438" on="0"/>
        <pt x="1030" y="296" on="0"/>
        <pt x="1030" y="230" on="1"/>
        <pt x="1030" y="200" on="1"/>
        <pt x="1030" y="162" on="0"/>
        <pt x="1025" y="91" on="0"/>
        <pt x="999" y="34" on="0"/>
        <pt x="943" y="0" on="0"/>
        <pt x="892" y="0" on="1"/>
        <pt x="840" y="0" on="0"/>
        <pt x="784" y="34" on="0"/>
        <pt x="757" y="90" on="0"/>
        <pt x="752" y="162" on="0"/>
        <pt x="752" y="200" on="1"/>
        <pt x="752" y="340" on="1"/>
        <pt x="352" y="340" on="1"/>
        <pt x="352" y="200" on="1"/>
        <pt x="352" y="162" on="0"/>
        <pt x="347" y="90" on="0"/>
        <pt x="320" y="34" on="0"/>
        <pt x="264" y="0" on="0"/>
        <pt x="212" y="0" on="1"/>
        <pt x="160" y="0" on="0"/>
        <pt x="104" y="34" on="0"/>
        <pt x="78" y="91" on="0"/>
        <pt x="74" y="162" on="0"/>
        <pt x="74" y="200" on="1"/>
        <pt x="74" y="230" on="1"/>
        <pt x="74" y="261" on="0"/>
        <pt x="75" y="331" on="0"/>
        <pt x="77" y="403" on="0"/>
        <pt x="79" y="474" on="0"/>
        <pt x="80" y="506" on="1"/>
        <pt x="130" y="680" on="0"/>
        <pt x="240" y="1037" on="0"/>
        <pt x="290" y="1212" on="1"/>
        <pt x="300" y="1249" on="0"/>
        <pt x="328" y="1318" on="0"/>
        <pt x="374" y="1369" on="0"/>
        <pt x="446" y="1400" on="0"/>
        <pt x="502" y="1400" on="1"/>
        <pt x="602" y="1400" on="1"/>
        <pt x="657" y="1400" on="0"/>
        <pt x="730" y="1369" on="0"/>
        <pt x="776" y="1318" on="0"/>
        <pt x="803" y="1249" on="0"/>
        <pt x="814" y="1212" on="1"/>
      </contour>
      <contour>
        <pt x="668" y="1730" on="1"/>
        <pt x="668" y="1790" on="0"/>
        <pt x="611" y="1844" on="0"/>
        <pt x="554" y="1844" on="1"/>
        <pt x="500" y="1844" on="0"/>
        <pt x="440" y="1790" on="0"/>
        <pt x="440" y="1730" on="1"/>
        <pt x="440" y="1673" on="0"/>
        <pt x="500" y="1616" on="0"/>
        <pt x="554" y="1616" on="1"/>
        <pt x="608" y="1616" on="0"/>
        <pt x="668" y="1673" on="0"/>
      </contour>
      <contour>
        <pt x="782" y="1730" on="1"/>
        <pt x="782" y="1612" on="0"/>
        <pt x="664" y="1500" on="0"/>
        <pt x="554" y="1500" on="1"/>
        <pt x="444" y="1500" on="0"/>
        <pt x="324" y="1612" on="0"/>
        <pt x="324" y="1730" on="1"/>
        <pt x="324" y="1849" on="0"/>
        <pt x="444" y="1958" on="0"/>
        <pt x="554" y="1958" on="1"/>
        <pt x="670" y="1958" on="0"/>
        <pt x="782" y="1849" on="0"/>
      </contour>
    </TTGlyph>
    <TTGlyph name="Atilde" xMin="74" yMin="0" xMax="1030" yMax="1814">
      <contour>
        <pt x="510" y="1574" on="1"/>
        <pt x="490" y="1585" on="0"/>
        <pt x="460" y="1596" on="0"/>
        <pt x="448" y="1596" on="1"/>
        <pt x="430" y="1596" on="0"/>
        <pt x="394" y="1571" on="0"/>
        <pt x="368" y="1544" on="1"/>
        <pt x="353" y="1527" on="0"/>
        <pt x="319" y="1506" on="0"/>
        <pt x="304" y="1506" on="1"/>
        <pt x="286" y="1506" on="0"/>
        <pt x="237" y="1529" on="0"/>
        <pt x="222" y="1550" on="1"/>
        <pt x="200" y="1575" on="0"/>
        <pt x="200" y="1602" on="1"/>
        <pt x="200" y="1623" on="0"/>
        <pt x="228" y="1672" on="0"/>
        <pt x="260" y="1702" on="1"/>
        <pt x="334" y="1768" on="1"/>
        <pt x="358" y="1789" on="0"/>
        <pt x="407" y="1814" on="0"/>
        <pt x="436" y="1814" on="1"/>
        <pt x="457" y="1814" on="0"/>
        <pt x="498" y="1798" on="0"/>
        <pt x="522" y="1786" on="1"/>
        <pt x="565" y="1764" on="0"/>
        <pt x="618" y="1738" on="0"/>
        <pt x="648" y="1724" on="0"/>
        <pt x="660" y="1720" on="0"/>
        <pt x="664" y="1720" on="1"/>
        <pt x="679" y="1720" on="0"/>
        <pt x="710" y="1740" on="0"/>
        <pt x="728" y="1760" on="1"/>
        <pt x="745" y="1775" on="0"/>
        <pt x="781" y="1796" on="0"/>
        <pt x="802" y="1796" on="1"/>
        <pt x="816" y="1794" on="0"/>
        <pt x="843" y="1781" on="0"/>
        <pt x="860" y="1764" on="1"/>
        <pt x="878" y="1746" on="0"/>
        <pt x="890" y="1712" on="0"/>
        <pt x="890" y="1694" on="1"/>
        <pt x="888" y="1682" on="0"/>
        <pt x="874" y="1656" on="0"/>
        <pt x="855" y="1631" on="0"/>
        <pt x="834" y="1609" on="0"/>
        <pt x="826" y="1602" on="1"/>
        <pt x="791" y="1566" on="0"/>
        <pt x="743" y="1525" on="0"/>
        <pt x="710" y="1505" on="0"/>
        <pt x="688" y="1500" on="0"/>
        <pt x="678" y="1500" on="1"/>
        <pt x="670" y="1500" on="0"/>
        <pt x="651" y="1503" on="0"/>
        <pt x="615" y="1518" on="0"/>
        <pt x="557" y="1548" on="0"/>
      </contour>
      <contour>
        <pt x="394" y="604" on="1"/>
        <pt x="712" y="604" on="1"/>
        <pt x="564" y="1140" on="1"/>
        <pt x="542" y="1140" on="1"/>
      </contour>
      <contour>
        <pt x="1022" y="506" on="1"/>
        <pt x="1024" y="438" on="0"/>
        <pt x="1030" y="296" on="0"/>
        <pt x="1030" y="230" on="1"/>
        <pt x="1030" y="200" on="1"/>
        <pt x="1030" y="162" on="0"/>
        <pt x="1025" y="91" on="0"/>
        <pt x="999" y="34" on="0"/>
        <pt x="943" y="0" on="0"/>
        <pt x="892" y="0" on="1"/>
        <pt x="840" y="0" on="0"/>
        <pt x="784" y="34" on="0"/>
        <pt x="757" y="90" on="0"/>
        <pt x="752" y="162" on="0"/>
        <pt x="752" y="200" on="1"/>
        <pt x="752" y="340" on="1"/>
        <pt x="352" y="340" on="1"/>
        <pt x="352" y="200" on="1"/>
        <pt x="352" y="162" on="0"/>
        <pt x="347" y="90" on="0"/>
        <pt x="320" y="34" on="0"/>
        <pt x="264" y="0" on="0"/>
        <pt x="212" y="0" on="1"/>
        <pt x="160" y="0" on="0"/>
        <pt x="104" y="34" on="0"/>
        <pt x="78" y="91" on="0"/>
        <pt x="74" y="162" on="0"/>
        <pt x="74" y="200" on="1"/>
        <pt x="74" y="230" on="1"/>
        <pt x="74" y="261" on="0"/>
        <pt x="75" y="331" on="0"/>
        <pt x="77" y="403" on="0"/>
        <pt x="79" y="474" on="0"/>
        <pt x="80" y="506" on="1"/>
        <pt x="130" y="680" on="0"/>
        <pt x="240" y="1037" on="0"/>
        <pt x="290" y="1212" on="1"/>
        <pt x="300" y="1249" on="0"/>
        <pt x="328" y="1318" on="0"/>
        <pt x="374" y="1369" on="0"/>
        <pt x="446" y="1400" on="0"/>
        <pt x="502" y="1400" on="1"/>
        <pt x="602" y="1400" on="1"/>
        <pt x="657" y="1400" on="0"/>
        <pt x="730" y="1369" on="0"/>
        <pt x="776" y="1318" on="0"/>
        <pt x="803" y="1249" on="0"/>
        <pt x="814" y="1212" on="1"/>
      </contour>
    </TTGlyph>
    <TTGlyph name="B" xMin="120" yMin="0" xMax="1042" yMax="1400">
      <contour>
        <pt x="562" y="1400" on="1"/>
        <pt x="651" y="1400" on="0"/>
        <pt x="808" y="1354" on="0"/>
        <pt x="925" y="1262" on="0"/>
        <pt x="992" y="1125" on="0"/>
        <pt x="992" y="1034" on="1"/>
        <pt x="992" y="987" on="0"/>
        <pt x="967" y="910" on="0"/>
        <pt x="928" y="848" on="0"/>
        <pt x="881" y="802" on="0"/>
        <pt x="837" y="769" on="0"/>
        <pt x="803" y="750" on="0"/>
        <pt x="796" y="748" on="1"/>
        <pt x="856" y="731" on="0"/>
        <pt x="938" y="678" on="0"/>
        <pt x="993" y="615" on="0"/>
        <pt x="1024" y="548" on="0"/>
        <pt x="1039" y="485" on="0"/>
        <pt x="1042" y="432" on="0"/>
        <pt x="1042" y="416" on="1"/>
        <pt x="1042" y="338" on="0"/>
        <pt x="1004" y="219" on="0"/>
        <pt x="942" y="132" on="0"/>
        <pt x="862" y="71" on="0"/>
        <pt x="821" y="52" on="1"/>
        <pt x="723" y="6" on="0"/>
        <pt x="600" y="0" on="1"/>
        <pt x="272" y="0" on="1"/>
        <pt x="215" y="0" on="0"/>
        <pt x="153" y="39" on="0"/>
        <pt x="125" y="104" on="0"/>
        <pt x="120" y="186" on="0"/>
        <pt x="120" y="230" on="1"/>
        <pt x="120" y="1172" on="1"/>
        <pt x="120" y="1215" on="0"/>
        <pt x="125" y="1297" on="0"/>
        <pt x="153" y="1361" on="0"/>
        <pt x="215" y="1400" on="0"/>
        <pt x="272" y="1400" on="1"/>
      </contour>
      <contour>
        <pt x="424" y="612" on="1"/>
        <pt x="424" y="236" on="1"/>
        <pt x="570" y="236" on="1"/>
        <pt x="617" y="238" on="0"/>
        <pt x="654" y="258" on="1"/>
        <pt x="670" y="266" on="0"/>
        <pt x="700" y="292" on="0"/>
        <pt x="724" y="331" on="0"/>
        <pt x="738" y="382" on="0"/>
        <pt x="738" y="416" on="1"/>
        <pt x="738" y="453" on="0"/>
        <pt x="723" y="508" on="0"/>
        <pt x="698" y="549" on="0"/>
        <pt x="666" y="578" on="0"/>
        <pt x="650" y="587" on="1"/>
        <pt x="611" y="608" on="0"/>
        <pt x="562" y="612" on="1"/>
      </contour>
      <contour>
        <pt x="424" y="1164" on="1"/>
        <pt x="424" y="824" on="1"/>
        <pt x="552" y="824" on="1"/>
        <pt x="595" y="826" on="0"/>
        <pt x="629" y="844" on="1"/>
        <pt x="643" y="851" on="0"/>
        <pt x="671" y="875" on="0"/>
        <pt x="693" y="908" on="0"/>
        <pt x="706" y="954" on="0"/>
        <pt x="706" y="984" on="1"/>
        <pt x="706" y="1018" on="0"/>
        <pt x="692" y="1069" on="0"/>
        <pt x="669" y="1106" on="0"/>
        <pt x="640" y="1132" on="0"/>
        <pt x="625" y="1141" on="1"/>
        <pt x="589" y="1160" on="0"/>
        <pt x="544" y="1164" on="1"/>
      </contour>
    </TTGlyph>
    <TTGlyph name="C" xMin="90" yMin="-6" xMax="1046" yMax="1408">
      <contour>
        <pt x="556" y="1408" on="1"/>
        <pt x="666" y="1408" on="0"/>
        <pt x="825" y="1358" on="0"/>
        <pt x="934" y="1278" on="0"/>
        <pt x="1000" y="1177" on="0"/>
        <pt x="1035" y="1073" on="0"/>
        <pt x="1046" y="977" on="0"/>
        <pt x="1046" y="942" on="1"/>
        <pt x="1046" y="927" on="0"/>
        <pt x="1041" y="884" on="0"/>
        <pt x="1011" y="844" on="0"/>
        <pt x="946" y="816" on="0"/>
        <pt x="886" y="816" on="1"/>
        <pt x="866" y="816" on="0"/>
        <pt x="806" y="821" on="0"/>
        <pt x="750" y="842" on="0"/>
        <pt x="710" y="881" on="0"/>
        <pt x="710" y="916" on="1"/>
        <pt x="710" y="970" on="0"/>
        <pt x="697" y="1056" on="0"/>
        <pt x="663" y="1116" on="0"/>
        <pt x="603" y="1148" on="0"/>
        <pt x="556" y="1148" on="1"/>
        <pt x="507" y="1148" on="0"/>
        <pt x="454" y="1107" on="0"/>
        <pt x="442" y="1083" on="1"/>
        <pt x="428" y="1054" on="0"/>
        <pt x="426" y="1018" on="1"/>
        <pt x="426" y="384" on="1"/>
        <pt x="428" y="340" on="0"/>
        <pt x="442" y="307" on="1"/>
        <pt x="454" y="278" on="0"/>
        <pt x="507" y="230" on="0"/>
        <pt x="556" y="230" on="1"/>
        <pt x="603" y="230" on="0"/>
        <pt x="663" y="269" on="0"/>
        <pt x="697" y="335" on="0"/>
        <pt x="710" y="421" on="0"/>
        <pt x="710" y="468" on="1"/>
        <pt x="710" y="483" on="0"/>
        <pt x="720" y="515" on="0"/>
        <pt x="756" y="542" on="0"/>
        <pt x="826" y="560" on="0"/>
        <pt x="886" y="560" on="1"/>
        <pt x="946" y="560" on="0"/>
        <pt x="1011" y="533" on="0"/>
        <pt x="1041" y="498" on="0"/>
        <pt x="1046" y="465" on="0"/>
        <pt x="1046" y="460" on="1"/>
        <pt x="1046" y="350" on="0"/>
        <pt x="972" y="177" on="0"/>
        <pt x="837" y="57" on="0"/>
        <pt x="650" y="-6" on="0"/>
        <pt x="538" y="-6" on="1"/>
        <pt x="520" y="-6" on="0"/>
        <pt x="439" y="0" on="0"/>
        <pt x="339" y="26" on="0"/>
        <pt x="233" y="78" on="0"/>
        <pt x="146" y="171" on="0"/>
        <pt x="90" y="310" on="0"/>
        <pt x="90" y="410" on="1"/>
        <pt x="90" y="968" on="1"/>
        <pt x="90" y="1050" on="0"/>
        <pt x="130" y="1176" on="0"/>
        <pt x="195" y="1269" on="0"/>
        <pt x="279" y="1332" on="0"/>
        <pt x="323" y="1353" on="1"/>
        <pt x="425" y="1401" on="0"/>
      </contour>
    </TTGlyph>
    <TTGlyph name="Ccaron" xMin="90" yMin="-6" xMax="1046" yMax="1892">
      <contour>
        <pt x="650" y="1532" on="1"/>
        <pt x="619" y="1501" on="0"/>
        <pt x="574" y="1498" on="1"/>
        <pt x="554" y="1498" on="1"/>
        <pt x="530" y="1500" on="0"/>
        <pt x="493" y="1517" on="0"/>
        <pt x="478" y="1532" on="1"/>
        <pt x="288" y="1712" on="1"/>
        <pt x="277" y="1723" on="0"/>
        <pt x="260" y="1760" on="0"/>
        <pt x="260" y="1784" on="1"/>
        <pt x="260" y="1810" on="0"/>
        <pt x="283" y="1848" on="0"/>
        <pt x="298" y="1862" on="1"/>
        <pt x="316" y="1879" on="0"/>
        <pt x="350" y="1892" on="0"/>
        <pt x="368" y="1892" on="1"/>
        <pt x="392" y="1892" on="0"/>
        <pt x="440" y="1877" on="0"/>
        <pt x="454" y="1860" on="1"/>
        <pt x="564" y="1756" on="1"/>
        <pt x="674" y="1860" on="1"/>
        <pt x="688" y="1877" on="0"/>
        <pt x="736" y="1892" on="0"/>
        <pt x="760" y="1892" on="1"/>
        <pt x="778" y="1892" on="0"/>
        <pt x="812" y="1879" on="0"/>
        <pt x="830" y="1862" on="1"/>
        <pt x="845" y="1848" on="0"/>
        <pt x="868" y="1810" on="0"/>
        <pt x="868" y="1784" on="1"/>
        <pt x="868" y="1760" on="0"/>
        <pt x="851" y="1723" on="0"/>
        <pt x="840" y="1712" on="1"/>
      </contour>
      <contour>
        <pt x="556" y="1148" on="1"/>
        <pt x="507" y="1148" on="0"/>
        <pt x="454" y="1107" on="0"/>
        <pt x="442" y="1083" on="1"/>
        <pt x="428" y="1054" on="0"/>
        <pt x="426" y="1018" on="1"/>
        <pt x="426" y="384" on="1"/>
        <pt x="428" y="340" on="0"/>
        <pt x="442" y="307" on="1"/>
        <pt x="454" y="278" on="0"/>
        <pt x="507" y="230" on="0"/>
        <pt x="556" y="230" on="1"/>
        <pt x="603" y="230" on="0"/>
        <pt x="663" y="269" on="0"/>
        <pt x="697" y="335" on="0"/>
        <pt x="710" y="421" on="0"/>
        <pt x="710" y="468" on="1"/>
        <pt x="710" y="483" on="0"/>
        <pt x="720" y="515" on="0"/>
        <pt x="756" y="542" on="0"/>
        <pt x="826" y="560" on="0"/>
        <pt x="886" y="560" on="1"/>
        <pt x="946" y="560" on="0"/>
        <pt x="1011" y="533" on="0"/>
        <pt x="1041" y="498" on="0"/>
        <pt x="1046" y="465" on="0"/>
        <pt x="1046" y="460" on="1"/>
        <pt x="1046" y="350" on="0"/>
        <pt x="972" y="177" on="0"/>
        <pt x="837" y="57" on="0"/>
        <pt x="650" y="-6" on="0"/>
        <pt x="538" y="-6" on="1"/>
        <pt x="520" y="-6" on="0"/>
        <pt x="439" y="0" on="0"/>
        <pt x="339" y="26" on="0"/>
        <pt x="233" y="78" on="0"/>
        <pt x="146" y="171" on="0"/>
        <pt x="90" y="310" on="0"/>
        <pt x="90" y="410" on="1"/>
        <pt x="90" y="968" on="1"/>
        <pt x="90" y="1050" on="0"/>
        <pt x="130" y="1176" on="0"/>
        <pt x="195" y="1269" on="0"/>
        <pt x="279" y="1332" on="0"/>
        <pt x="323" y="1353" on="1"/>
        <pt x="425" y="1401" on="0"/>
        <pt x="556" y="1408" on="1"/>
        <pt x="666" y="1408" on="0"/>
        <pt x="825" y="1358" on="0"/>
        <pt x="934" y="1278" on="0"/>
        <pt x="1000" y="1177" on="0"/>
        <pt x="1035" y="1073" on="0"/>
        <pt x="1046" y="977" on="0"/>
        <pt x="1046" y="942" on="1"/>
        <pt x="1046" y="927" on="0"/>
        <pt x="1041" y="884" on="0"/>
        <pt x="1011" y="844" on="0"/>
        <pt x="946" y="816" on="0"/>
        <pt x="886" y="816" on="1"/>
        <pt x="866" y="816" on="0"/>
        <pt x="806" y="821" on="0"/>
        <pt x="750" y="842" on="0"/>
        <pt x="710" y="881" on="0"/>
        <pt x="710" y="916" on="1"/>
        <pt x="710" y="970" on="0"/>
        <pt x="697" y="1056" on="0"/>
        <pt x="663" y="1116" on="0"/>
        <pt x="603" y="1148" on="0"/>
      </contour>
    </TTGlyph>
    <TTGlyph name="Ccedilla" xMin="90" yMin="-392" xMax="1046" yMax="1408">
      <contour>
        <pt x="556" y="230" on="1"/>
        <pt x="603" y="230" on="0"/>
        <pt x="663" y="269" on="0"/>
        <pt x="697" y="335" on="0"/>
        <pt x="710" y="421" on="0"/>
        <pt x="710" y="468" on="1"/>
        <pt x="710" y="483" on="0"/>
        <pt x="720" y="515" on="0"/>
        <pt x="756" y="542" on="0"/>
        <pt x="826" y="560" on="0"/>
        <pt x="886" y="560" on="1"/>
        <pt x="946" y="560" on="0"/>
        <pt x="1011" y="533" on="0"/>
        <pt x="1041" y="498" on="0"/>
        <pt x="1046" y="465" on="0"/>
        <pt x="1046" y="460" on="1"/>
        <pt x="1046" y="361" on="0"/>
        <pt x="985" y="201" on="0"/>
        <pt x="874" y="84" on="0"/>
        <pt x="718" y="11" on="0"/>
        <pt x="624" y="0" on="1"/>
        <pt x="612" y="-22" on="1"/>
        <pt x="657" y="-26" on="0"/>
        <pt x="728" y="-30" on="0"/>
        <pt x="778" y="-60" on="0"/>
        <pt x="804" y="-127" on="0"/>
        <pt x="804" y="-194" on="1"/>
        <pt x="804" y="-202" on="1"/>
        <pt x="804" y="-260" on="0"/>
        <pt x="758" y="-334" on="0"/>
        <pt x="683" y="-376" on="0"/>
        <pt x="586" y="-392" on="0"/>
        <pt x="534" y="-392" on="1"/>
        <pt x="465" y="-392" on="0"/>
        <pt x="370" y="-367" on="0"/>
        <pt x="312" y="-319" on="0"/>
        <pt x="286" y="-248" on="0"/>
        <pt x="286" y="-202" on="1"/>
        <pt x="286" y="-189" on="0"/>
        <pt x="302" y="-166" on="0"/>
        <pt x="328" y="-151" on="0"/>
        <pt x="360" y="-142" on="0"/>
        <pt x="376" y="-142" on="1"/>
        <pt x="386" y="-142" on="0"/>
        <pt x="417" y="-149" on="0"/>
        <pt x="444" y="-165" on="0"/>
        <pt x="464" y="-190" on="0"/>
        <pt x="464" y="-208" on="1"/>
        <pt x="464" y="-219" on="0"/>
        <pt x="468" y="-247" on="0"/>
        <pt x="483" y="-272" on="0"/>
        <pt x="511" y="-290" on="0"/>
        <pt x="534" y="-290" on="1"/>
        <pt x="543" y="-290" on="0"/>
        <pt x="568" y="-282" on="0"/>
        <pt x="592" y="-258" on="0"/>
        <pt x="608" y="-217" on="0"/>
        <pt x="608" y="-184" on="1"/>
        <pt x="608" y="-159" on="0"/>
        <pt x="604" y="-132" on="0"/>
        <pt x="591" y="-119" on="0"/>
        <pt x="566" y="-116" on="0"/>
        <pt x="544" y="-116" on="1"/>
        <pt x="515" y="-116" on="0"/>
        <pt x="486" y="-80" on="0"/>
        <pt x="486" y="-56" on="1"/>
        <pt x="486" y="-47" on="0"/>
        <pt x="493" y="-22" on="0"/>
        <pt x="502" y="-4" on="1"/>
        <pt x="472" y="-2" on="0"/>
        <pt x="389" y="11" on="0"/>
        <pt x="297" y="43" on="0"/>
        <pt x="207" y="100" on="0"/>
        <pt x="135" y="191" on="0"/>
        <pt x="90" y="321" on="0"/>
        <pt x="90" y="410" on="1"/>
        <pt x="90" y="968" on="1"/>
        <pt x="90" y="1050" on="0"/>
        <pt x="130" y="1176" on="0"/>
        <pt x="195" y="1269" on="0"/>
        <pt x="279" y="1332" on="0"/>
        <pt x="323" y="1353" on="1"/>
        <pt x="425" y="1401" on="0"/>
        <pt x="556" y="1408" on="1"/>
        <pt x="666" y="1408" on="0"/>
        <pt x="825" y="1358" on="0"/>
        <pt x="934" y="1278" on="0"/>
        <pt x="1000" y="1177" on="0"/>
        <pt x="1035" y="1073" on="0"/>
        <pt x="1046" y="977" on="0"/>
        <pt x="1046" y="942" on="1"/>
        <pt x="1046" y="927" on="0"/>
        <pt x="1041" y="884" on="0"/>
        <pt x="1011" y="844" on="0"/>
        <pt x="946" y="816" on="0"/>
        <pt x="886" y="816" on="1"/>
        <pt x="866" y="816" on="0"/>
        <pt x="806" y="821" on="0"/>
        <pt x="750" y="842" on="0"/>
        <pt x="710" y="881" on="0"/>
        <pt x="710" y="916" on="1"/>
        <pt x="710" y="970" on="0"/>
        <pt x="697" y="1056" on="0"/>
        <pt x="663" y="1116" on="0"/>
        <pt x="603" y="1148" on="0"/>
        <pt x="556" y="1148" on="1"/>
        <pt x="507" y="1148" on="0"/>
        <pt x="454" y="1107" on="0"/>
        <pt x="442" y="1083" on="1"/>
        <pt x="428" y="1054" on="0"/>
        <pt x="426" y="1018" on="1"/>
        <pt x="426" y="384" on="1"/>
        <pt x="428" y="340" on="0"/>
        <pt x="442" y="307" on="1"/>
        <pt x="454" y="278" on="0"/>
        <pt x="507" y="230" on="0"/>
      </contour>
    </TTGlyph>
    <TTGlyph name="D" xMin="134" yMin="0" xMax="1008" yMax="1400">
      <contour>
        <pt x="576" y="1400" on="1"/>
        <pt x="667" y="1400" on="0"/>
        <pt x="824" y="1354" on="0"/>
        <pt x="941" y="1263" on="0"/>
        <pt x="1008" y="1127" on="0"/>
        <pt x="1008" y="1036" on="1"/>
        <pt x="1008" y="416" on="1"/>
        <pt x="1008" y="338" on="0"/>
        <pt x="974" y="219" on="0"/>
        <pt x="919" y="132" on="0"/>
        <pt x="849" y="71" on="0"/>
        <pt x="813" y="52" on="1"/>
        <pt x="727" y="6" on="0"/>
        <pt x="618" y="0" on="1"/>
        <pt x="286" y="0" on="1"/>
        <pt x="229" y="0" on="0"/>
        <pt x="167" y="39" on="0"/>
        <pt x="139" y="104" on="0"/>
        <pt x="134" y="186" on="0"/>
        <pt x="134" y="230" on="1"/>
        <pt x="134" y="1172" on="1"/>
        <pt x="134" y="1215" on="0"/>
        <pt x="139" y="1297" on="0"/>
        <pt x="167" y="1361" on="0"/>
        <pt x="229" y="1400" on="0"/>
        <pt x="286" y="1400" on="1"/>
      </contour>
      <contour>
        <pt x="438" y="1166" on="1"/>
        <pt x="438" y="238" on="1"/>
        <pt x="568" y="238" on="1"/>
        <pt x="611" y="240" on="0"/>
        <pt x="645" y="258" on="1"/>
        <pt x="659" y="265" on="0"/>
        <pt x="687" y="289" on="0"/>
        <pt x="709" y="322" on="0"/>
        <pt x="722" y="368" on="0"/>
        <pt x="722" y="398" on="1"/>
        <pt x="722" y="988" on="1"/>
        <pt x="722" y="1021" on="0"/>
        <pt x="709" y="1072" on="0"/>
        <pt x="687" y="1110" on="0"/>
        <pt x="659" y="1136" on="0"/>
        <pt x="645" y="1144" on="1"/>
        <pt x="611" y="1163" on="0"/>
        <pt x="568" y="1166" on="1"/>
      </contour>
    </TTGlyph>
    <TTGlyph name="E" xMin="140" yMin="0" xMax="912" yMax="1400">
      <contour>
        <pt x="682" y="1400" on="1"/>
        <pt x="722" y="1400" on="0"/>
        <pt x="804" y="1394" on="0"/>
        <pt x="870" y="1366" on="0"/>
        <pt x="912" y="1309" on="0"/>
        <pt x="912" y="1258" on="1"/>
        <pt x="912" y="1207" on="0"/>
        <pt x="870" y="1150" on="0"/>
        <pt x="804" y="1122" on="0"/>
        <pt x="722" y="1116" on="0"/>
        <pt x="682" y="1116" on="1"/>
        <pt x="444" y="1116" on="1"/>
        <pt x="444" y="844" on="1"/>
        <pt x="570" y="844" on="1"/>
        <pt x="610" y="844" on="0"/>
        <pt x="691" y="839" on="0"/>
        <pt x="754" y="812" on="0"/>
        <pt x="794" y="757" on="0"/>
        <pt x="794" y="708" on="1"/>
        <pt x="794" y="658" on="0"/>
        <pt x="754" y="604" on="0"/>
        <pt x="691" y="577" on="0"/>
        <pt x="610" y="572" on="0"/>
        <pt x="570" y="572" on="1"/>
        <pt x="444" y="572" on="1"/>
        <pt x="444" y="284" on="1"/>
        <pt x="682" y="284" on="1"/>
        <pt x="722" y="284" on="0"/>
        <pt x="804" y="278" on="0"/>
        <pt x="870" y="251" on="0"/>
        <pt x="912" y="194" on="0"/>
        <pt x="912" y="144" on="1"/>
        <pt x="912" y="92" on="0"/>
        <pt x="869" y="34" on="0"/>
        <pt x="803" y="6" on="0"/>
        <pt x="721" y="0" on="0"/>
        <pt x="682" y="0" on="1"/>
        <pt x="290" y="0" on="1"/>
        <pt x="234" y="0" on="0"/>
        <pt x="173" y="40" on="0"/>
        <pt x="145" y="105" on="0"/>
        <pt x="140" y="187" on="0"/>
        <pt x="140" y="230" on="1"/>
        <pt x="140" y="1170" on="1"/>
        <pt x="140" y="1213" on="0"/>
        <pt x="145" y="1295" on="0"/>
        <pt x="173" y="1360" on="0"/>
        <pt x="234" y="1400" on="0"/>
        <pt x="290" y="1400" on="1"/>
      </contour>
    </TTGlyph>
    <TTGlyph name="Eacute" xMin="140" yMin="0" xMax="912" yMax="1850">
      <contour>
        <pt x="682" y="1400" on="1"/>
        <pt x="722" y="1400" on="0"/>
        <pt x="804" y="1392" on="0"/>
        <pt x="870" y="1362" on="0"/>
        <pt x="912" y="1303" on="0"/>
        <pt x="912" y="1252" on="1"/>
        <pt x="912" y="1201" on="0"/>
        <pt x="870" y="1142" on="0"/>
        <pt x="804" y="1112" on="0"/>
        <pt x="722" y="1104" on="0"/>
        <pt x="682" y="1104" on="1"/>
        <pt x="444" y="1104" on="1"/>
        <pt x="444" y="844" on="1"/>
        <pt x="570" y="844" on="1"/>
        <pt x="610" y="844" on="0"/>
        <pt x="691" y="839" on="0"/>
        <pt x="754" y="812" on="0"/>
        <pt x="794" y="757" on="0"/>
        <pt x="794" y="708" on="1"/>
        <pt x="794" y="658" on="0"/>
        <pt x="754" y="604" on="0"/>
        <pt x="691" y="577" on="0"/>
        <pt x="610" y="572" on="0"/>
        <pt x="570" y="572" on="1"/>
        <pt x="444" y="572" on="1"/>
        <pt x="444" y="296" on="1"/>
        <pt x="682" y="296" on="1"/>
        <pt x="722" y="296" on="0"/>
        <pt x="804" y="288" on="0"/>
        <pt x="870" y="258" on="0"/>
        <pt x="912" y="200" on="0"/>
        <pt x="912" y="150" on="1"/>
        <pt x="912" y="98" on="0"/>
        <pt x="869" y="38" on="0"/>
        <pt x="803" y="8" on="0"/>
        <pt x="721" y="0" on="0"/>
        <pt x="682" y="0" on="1"/>
        <pt x="290" y="0" on="1"/>
        <pt x="234" y="0" on="0"/>
        <pt x="173" y="40" on="0"/>
        <pt x="145" y="105" on="0"/>
        <pt x="140" y="187" on="0"/>
        <pt x="140" y="230" on="1"/>
        <pt x="140" y="1170" on="1"/>
        <pt x="140" y="1213" on="0"/>
        <pt x="145" y="1295" on="0"/>
        <pt x="173" y="1360" on="0"/>
        <pt x="234" y="1400" on="0"/>
        <pt x="290" y="1400" on="1"/>
      </contour>
      <contour>
        <pt x="542" y="1832" on="1"/>
        <pt x="569" y="1850" on="0"/>
        <pt x="598" y="1850" on="1"/>
        <pt x="624" y="1850" on="0"/>
        <pt x="678" y="1833" on="0"/>
        <pt x="698" y="1804" on="1"/>
        <pt x="710" y="1786" on="0"/>
        <pt x="720" y="1750" on="0"/>
        <pt x="720" y="1736" on="1"/>
        <pt x="720" y="1709" on="0"/>
        <pt x="690" y="1664" on="0"/>
        <pt x="670" y="1650" on="1"/>
        <pt x="450" y="1516" on="1"/>
        <pt x="436" y="1507" on="0"/>
        <pt x="405" y="1500" on="0"/>
        <pt x="390" y="1500" on="1"/>
        <pt x="363" y="1500" on="0"/>
        <pt x="316" y="1517" on="0"/>
        <pt x="296" y="1546" on="1"/>
        <pt x="284" y="1563" on="0"/>
        <pt x="274" y="1596" on="0"/>
        <pt x="274" y="1610" on="1"/>
        <pt x="274" y="1640" on="0"/>
        <pt x="304" y="1687" on="0"/>
        <pt x="318" y="1696" on="1"/>
      </contour>
    </TTGlyph>
    <TTGlyph name="Ecircumflex" xMin="140" yMin="0" xMax="912" yMax="1894">
      <contour>
        <pt x="682" y="1400" on="1"/>
        <pt x="722" y="1400" on="0"/>
        <pt x="804" y="1392" on="0"/>
        <pt x="870" y="1362" on="0"/>
        <pt x="912" y="1303" on="0"/>
        <pt x="912" y="1252" on="1"/>
        <pt x="912" y="1201" on="0"/>
        <pt x="870" y="1142" on="0"/>
        <pt x="804" y="1112" on="0"/>
        <pt x="722" y="1104" on="0"/>
        <pt x="682" y="1104" on="1"/>
        <pt x="444" y="1104" on="1"/>
        <pt x="444" y="844" on="1"/>
        <pt x="570" y="844" on="1"/>
        <pt x="610" y="844" on="0"/>
        <pt x="691" y="839" on="0"/>
        <pt x="754" y="812" on="0"/>
        <pt x="794" y="757" on="0"/>
        <pt x="794" y="708" on="1"/>
        <pt x="794" y="658" on="0"/>
        <pt x="754" y="604" on="0"/>
        <pt x="691" y="577" on="0"/>
        <pt x="610" y="572" on="0"/>
        <pt x="570" y="572" on="1"/>
        <pt x="444" y="572" on="1"/>
        <pt x="444" y="296" on="1"/>
        <pt x="682" y="296" on="1"/>
        <pt x="722" y="296" on="0"/>
        <pt x="804" y="288" on="0"/>
        <pt x="870" y="258" on="0"/>
        <pt x="912" y="200" on="0"/>
        <pt x="912" y="150" on="1"/>
        <pt x="912" y="98" on="0"/>
        <pt x="869" y="38" on="0"/>
        <pt x="803" y="8" on="0"/>
        <pt x="721" y="0" on="0"/>
        <pt x="682" y="0" on="1"/>
        <pt x="290" y="0" on="1"/>
        <pt x="234" y="0" on="0"/>
        <pt x="173" y="40" on="0"/>
        <pt x="145" y="105" on="0"/>
        <pt x="140" y="187" on="0"/>
        <pt x="140" y="230" on="1"/>
        <pt x="140" y="1170" on="1"/>
        <pt x="140" y="1213" on="0"/>
        <pt x="145" y="1295" on="0"/>
        <pt x="173" y="1360" on="0"/>
        <pt x="234" y="1400" on="0"/>
        <pt x="290" y="1400" on="1"/>
      </contour>
      <contour>
        <pt x="792" y="1680" on="1"/>
        <pt x="803" y="1669" on="0"/>
        <pt x="820" y="1632" on="0"/>
        <pt x="820" y="1608" on="1"/>
        <pt x="820" y="1582" on="0"/>
        <pt x="797" y="1544" on="0"/>
        <pt x="782" y="1530" on="1"/>
        <pt x="764" y="1513" on="0"/>
        <pt x="730" y="1500" on="0"/>
        <pt x="712" y="1500" on="1"/>
        <pt x="688" y="1500" on="0"/>
        <pt x="640" y="1515" on="0"/>
        <pt x="626" y="1532" on="1"/>
        <pt x="516" y="1636" on="1"/>
        <pt x="406" y="1532" on="1"/>
        <pt x="392" y="1515" on="0"/>
        <pt x="344" y="1500" on="0"/>
        <pt x="320" y="1500" on="1"/>
        <pt x="302" y="1500" on="0"/>
        <pt x="268" y="1513" on="0"/>
        <pt x="250" y="1530" on="1"/>
        <pt x="235" y="1544" on="0"/>
        <pt x="212" y="1582" on="0"/>
        <pt x="212" y="1608" on="1"/>
        <pt x="212" y="1632" on="0"/>
        <pt x="229" y="1669" on="0"/>
        <pt x="240" y="1680" on="1"/>
        <pt x="430" y="1860" on="1"/>
        <pt x="445" y="1875" on="0"/>
        <pt x="482" y="1892" on="0"/>
        <pt x="506" y="1894" on="1"/>
        <pt x="526" y="1894" on="1"/>
        <pt x="571" y="1891" on="0"/>
        <pt x="602" y="1860" on="1"/>
      </contour>
    </TTGlyph>
    <TTGlyph name="Edieresis" xMin="140" yMin="0" xMax="912" yMax="1804">
      <contour>
        <pt x="682" y="1400" on="1"/>
        <pt x="722" y="1400" on="0"/>
        <pt x="804" y="1392" on="0"/>
        <pt x="870" y="1362" on="0"/>
        <pt x="912" y="1303" on="0"/>
        <pt x="912" y="1252" on="1"/>
        <pt x="912" y="1201" on="0"/>
        <pt x="870" y="1142" on="0"/>
        <pt x="804" y="1112" on="0"/>
        <pt x="722" y="1104" on="0"/>
        <pt x="682" y="1104" on="1"/>
        <pt x="444" y="1104" on="1"/>
        <pt x="444" y="844" on="1"/>
        <pt x="570" y="844" on="1"/>
        <pt x="610" y="844" on="0"/>
        <pt x="691" y="839" on="0"/>
        <pt x="754" y="812" on="0"/>
        <pt x="794" y="757" on="0"/>
        <pt x="794" y="708" on="1"/>
        <pt x="794" y="658" on="0"/>
        <pt x="754" y="604" on="0"/>
        <pt x="691" y="577" on="0"/>
        <pt x="610" y="572" on="0"/>
        <pt x="570" y="572" on="1"/>
        <pt x="444" y="572" on="1"/>
        <pt x="444" y="296" on="1"/>
        <pt x="682" y="296" on="1"/>
        <pt x="722" y="296" on="0"/>
        <pt x="804" y="288" on="0"/>
        <pt x="870" y="258" on="0"/>
        <pt x="912" y="200" on="0"/>
        <pt x="912" y="150" on="1"/>
        <pt x="912" y="98" on="0"/>
        <pt x="869" y="38" on="0"/>
        <pt x="803" y="8" on="0"/>
        <pt x="721" y="0" on="0"/>
        <pt x="682" y="0" on="1"/>
        <pt x="290" y="0" on="1"/>
        <pt x="234" y="0" on="0"/>
        <pt x="173" y="40" on="0"/>
        <pt x="145" y="105" on="0"/>
        <pt x="140" y="187" on="0"/>
        <pt x="140" y="230" on="1"/>
        <pt x="140" y="1170" on="1"/>
        <pt x="140" y="1213" on="0"/>
        <pt x="145" y="1295" on="0"/>
        <pt x="173" y="1360" on="0"/>
        <pt x="234" y="1400" on="0"/>
        <pt x="290" y="1400" on="1"/>
      </contour>
      <contour>
        <pt x="462" y="1652" on="1"/>
        <pt x="462" y="1575" on="0"/>
        <pt x="382" y="1500" on="0"/>
        <pt x="310" y="1500" on="1"/>
        <pt x="238" y="1500" on="0"/>
        <pt x="158" y="1575" on="0"/>
        <pt x="158" y="1652" on="1"/>
        <pt x="158" y="1732" on="0"/>
        <pt x="238" y="1804" on="0"/>
        <pt x="310" y="1804" on="1"/>
        <pt x="387" y="1804" on="0"/>
        <pt x="462" y="1732" on="0"/>
      </contour>
      <contour>
        <pt x="878" y="1652" on="1"/>
        <pt x="878" y="1575" on="0"/>
        <pt x="798" y="1500" on="0"/>
        <pt x="726" y="1500" on="1"/>
        <pt x="654" y="1500" on="0"/>
        <pt x="574" y="1575" on="0"/>
        <pt x="574" y="1652" on="1"/>
        <pt x="574" y="1732" on="0"/>
        <pt x="654" y="1804" on="0"/>
        <pt x="726" y="1804" on="1"/>
        <pt x="803" y="1804" on="0"/>
        <pt x="878" y="1732" on="0"/>
      </contour>
    </TTGlyph>
    <TTGlyph name="Egrave" xMin="140" yMin="0" xMax="912" yMax="1850">
      <contour>
        <pt x="682" y="1400" on="1"/>
        <pt x="722" y="1400" on="0"/>
        <pt x="804" y="1392" on="0"/>
        <pt x="870" y="1362" on="0"/>
        <pt x="912" y="1303" on="0"/>
        <pt x="912" y="1252" on="1"/>
        <pt x="912" y="1201" on="0"/>
        <pt x="870" y="1142" on="0"/>
        <pt x="804" y="1112" on="0"/>
        <pt x="722" y="1104" on="0"/>
        <pt x="682" y="1104" on="1"/>
        <pt x="444" y="1104" on="1"/>
        <pt x="444" y="844" on="1"/>
        <pt x="570" y="844" on="1"/>
        <pt x="610" y="844" on="0"/>
        <pt x="691" y="839" on="0"/>
        <pt x="754" y="812" on="0"/>
        <pt x="794" y="757" on="0"/>
        <pt x="794" y="708" on="1"/>
        <pt x="794" y="658" on="0"/>
        <pt x="754" y="604" on="0"/>
        <pt x="691" y="577" on="0"/>
        <pt x="610" y="572" on="0"/>
        <pt x="570" y="572" on="1"/>
        <pt x="444" y="572" on="1"/>
        <pt x="444" y="296" on="1"/>
        <pt x="682" y="296" on="1"/>
        <pt x="722" y="296" on="0"/>
        <pt x="804" y="288" on="0"/>
        <pt x="870" y="258" on="0"/>
        <pt x="912" y="200" on="0"/>
        <pt x="912" y="150" on="1"/>
        <pt x="912" y="98" on="0"/>
        <pt x="869" y="38" on="0"/>
        <pt x="803" y="8" on="0"/>
        <pt x="721" y="0" on="0"/>
        <pt x="682" y="0" on="1"/>
        <pt x="290" y="0" on="1"/>
        <pt x="234" y="0" on="0"/>
        <pt x="173" y="40" on="0"/>
        <pt x="145" y="105" on="0"/>
        <pt x="140" y="187" on="0"/>
        <pt x="140" y="230" on="1"/>
        <pt x="140" y="1170" on="1"/>
        <pt x="140" y="1213" on="0"/>
        <pt x="145" y="1295" on="0"/>
        <pt x="173" y="1360" on="0"/>
        <pt x="234" y="1400" on="0"/>
        <pt x="290" y="1400" on="1"/>
      </contour>
      <contour>
        <pt x="672" y="1696" on="1"/>
        <pt x="686" y="1687" on="0"/>
        <pt x="716" y="1640" on="0"/>
        <pt x="716" y="1610" on="1"/>
        <pt x="716" y="1596" on="0"/>
        <pt x="706" y="1563" on="0"/>
        <pt x="694" y="1546" on="1"/>
        <pt x="674" y="1517" on="0"/>
        <pt x="627" y="1500" on="0"/>
        <pt x="600" y="1500" on="1"/>
        <pt x="585" y="1500" on="0"/>
        <pt x="554" y="1507" on="0"/>
        <pt x="540" y="1516" on="1"/>
        <pt x="320" y="1650" on="1"/>
        <pt x="300" y="1664" on="0"/>
        <pt x="270" y="1709" on="0"/>
        <pt x="270" y="1736" on="1"/>
        <pt x="270" y="1750" on="0"/>
        <pt x="280" y="1786" on="0"/>
        <pt x="292" y="1804" on="1"/>
        <pt x="312" y="1833" on="0"/>
        <pt x="366" y="1850" on="0"/>
        <pt x="392" y="1850" on="1"/>
        <pt x="421" y="1850" on="0"/>
        <pt x="448" y="1832" on="1"/>
      </contour>
    </TTGlyph>
    <TTGlyph name="Emacron" xMin="140" yMin="0" xMax="912" yMax="1804">
      <contour>
        <pt x="682" y="1400" on="1"/>
        <pt x="722" y="1400" on="0"/>
        <pt x="804" y="1394" on="0"/>
        <pt x="870" y="1366" on="0"/>
        <pt x="912" y="1309" on="0"/>
        <pt x="912" y="1258" on="1"/>
        <pt x="912" y="1207" on="0"/>
        <pt x="870" y="1150" on="0"/>
        <pt x="804" y="1122" on="0"/>
        <pt x="722" y="1116" on="0"/>
        <pt x="682" y="1116" on="1"/>
        <pt x="444" y="1116" on="1"/>
        <pt x="444" y="844" on="1"/>
        <pt x="570" y="844" on="1"/>
        <pt x="610" y="844" on="0"/>
        <pt x="691" y="839" on="0"/>
        <pt x="754" y="812" on="0"/>
        <pt x="794" y="757" on="0"/>
        <pt x="794" y="708" on="1"/>
        <pt x="794" y="658" on="0"/>
        <pt x="754" y="604" on="0"/>
        <pt x="691" y="577" on="0"/>
        <pt x="610" y="572" on="0"/>
        <pt x="570" y="572" on="1"/>
        <pt x="444" y="572" on="1"/>
        <pt x="444" y="284" on="1"/>
        <pt x="682" y="284" on="1"/>
        <pt x="722" y="284" on="0"/>
        <pt x="804" y="278" on="0"/>
        <pt x="870" y="251" on="0"/>
        <pt x="912" y="194" on="0"/>
        <pt x="912" y="144" on="1"/>
        <pt x="912" y="92" on="0"/>
        <pt x="869" y="34" on="0"/>
        <pt x="803" y="6" on="0"/>
        <pt x="721" y="0" on="0"/>
        <pt x="682" y="0" on="1"/>
        <pt x="290" y="0" on="1"/>
        <pt x="234" y="0" on="0"/>
        <pt x="173" y="40" on="0"/>
        <pt x="145" y="105" on="0"/>
        <pt x="140" y="187" on="0"/>
        <pt x="140" y="230" on="1"/>
        <pt x="140" y="1170" on="1"/>
        <pt x="140" y="1213" on="0"/>
        <pt x="145" y="1295" on="0"/>
        <pt x="173" y="1360" on="0"/>
        <pt x="234" y="1400" on="0"/>
        <pt x="290" y="1400" on="1"/>
      </contour>
      <contour>
        <pt x="714" y="1804" on="1"/>
        <pt x="739" y="1804" on="0"/>
        <pt x="797" y="1799" on="0"/>
        <pt x="846" y="1778" on="0"/>
        <pt x="878" y="1732" on="0"/>
        <pt x="878" y="1692" on="1"/>
        <pt x="878" y="1651" on="0"/>
        <pt x="846" y="1606" on="0"/>
        <pt x="797" y="1585" on="0"/>
        <pt x="739" y="1580" on="0"/>
        <pt x="714" y="1580" on="1"/>
        <pt x="312" y="1580" on="1"/>
        <pt x="284" y="1580" on="0"/>
        <pt x="226" y="1585" on="0"/>
        <pt x="178" y="1606" on="0"/>
        <pt x="148" y="1651" on="0"/>
        <pt x="148" y="1692" on="1"/>
        <pt x="148" y="1732" on="0"/>
        <pt x="178" y="1778" on="0"/>
        <pt x="226" y="1799" on="0"/>
        <pt x="284" y="1804" on="0"/>
        <pt x="312" y="1804" on="1"/>
      </contour>
    </TTGlyph>
    <TTGlyph name="Eth" xMin="-18" yMin="0" xMax="1036" yMax="1400">
      <contour>
        <pt x="604" y="1400" on="1"/>
        <pt x="695" y="1400" on="0"/>
        <pt x="852" y="1354" on="0"/>
        <pt x="969" y="1263" on="0"/>
        <pt x="1036" y="1127" on="0"/>
        <pt x="1036" y="1036" on="1"/>
        <pt x="1036" y="416" on="1"/>
        <pt x="1036" y="338" on="0"/>
        <pt x="1002" y="219" on="0"/>
        <pt x="947" y="132" on="0"/>
        <pt x="877" y="71" on="0"/>
        <pt x="841" y="52" on="1"/>
        <pt x="755" y="6" on="0"/>
        <pt x="646" y="0" on="1"/>
        <pt x="314" y="0" on="1"/>
        <pt x="257" y="0" on="0"/>
        <pt x="195" y="39" on="0"/>
        <pt x="167" y="104" on="0"/>
        <pt x="162" y="186" on="0"/>
        <pt x="162" y="230" on="1"/>
        <pt x="162" y="594" on="1"/>
        <pt x="126" y="594" on="1"/>
        <pt x="98" y="594" on="0"/>
        <pt x="46" y="601" on="0"/>
        <pt x="6" y="626" on="0"/>
        <pt x="-18" y="673" on="0"/>
        <pt x="-18" y="714" on="1"/>
        <pt x="-18" y="758" on="0"/>
        <pt x="6" y="808" on="0"/>
        <pt x="46" y="832" on="0"/>
        <pt x="98" y="838" on="0"/>
        <pt x="126" y="838" on="1"/>
        <pt x="162" y="838" on="1"/>
        <pt x="162" y="1172" on="1"/>
        <pt x="162" y="1215" on="0"/>
        <pt x="167" y="1297" on="0"/>
        <pt x="195" y="1361" on="0"/>
        <pt x="257" y="1400" on="0"/>
        <pt x="314" y="1400" on="1"/>
      </contour>
      <contour>
        <pt x="750" y="988" on="1"/>
        <pt x="750" y="1021" on="0"/>
        <pt x="737" y="1072" on="0"/>
        <pt x="715" y="1110" on="0"/>
        <pt x="687" y="1136" on="0"/>
        <pt x="673" y="1144" on="1"/>
        <pt x="639" y="1163" on="0"/>
        <pt x="596" y="1166" on="1"/>
        <pt x="466" y="1166" on="1"/>
        <pt x="466" y="838" on="1"/>
        <pt x="518" y="838" on="1"/>
        <pt x="543" y="838" on="0"/>
        <pt x="595" y="832" on="0"/>
        <pt x="636" y="808" on="0"/>
        <pt x="662" y="758" on="0"/>
        <pt x="662" y="714" on="1"/>
        <pt x="662" y="673" on="0"/>
        <pt x="636" y="626" on="0"/>
        <pt x="595" y="601" on="0"/>
        <pt x="543" y="594" on="0"/>
        <pt x="518" y="594" on="1"/>
        <pt x="466" y="594" on="1"/>
        <pt x="466" y="238" on="1"/>
        <pt x="596" y="238" on="1"/>
        <pt x="639" y="240" on="0"/>
        <pt x="673" y="258" on="1"/>
        <pt x="687" y="265" on="0"/>
        <pt x="715" y="289" on="0"/>
        <pt x="737" y="322" on="0"/>
        <pt x="750" y="368" on="0"/>
        <pt x="750" y="398" on="1"/>
      </contour>
    </TTGlyph>
    <TTGlyph name="Euro" xMin="6" yMin="-6" xMax="1120" yMax="1408">
      <contour>
        <pt x="702" y="1408" on="1"/>
        <pt x="743" y="1408" on="0"/>
        <pt x="837" y="1392" on="0"/>
        <pt x="930" y="1358" on="0"/>
        <pt x="1015" y="1309" on="0"/>
        <pt x="1081" y="1241" on="0"/>
        <pt x="1120" y="1157" on="0"/>
        <pt x="1120" y="1106" on="1"/>
        <pt x="1120" y="1081" on="0"/>
        <pt x="1106" y="1036" on="0"/>
        <pt x="1077" y="1001" on="0"/>
        <pt x="1033" y="980" on="0"/>
        <pt x="1002" y="980" on="1"/>
        <pt x="961" y="980" on="0"/>
        <pt x="890" y="1026" on="0"/>
        <pt x="866" y="1074" on="1"/>
        <pt x="860" y="1085" on="0"/>
        <pt x="835" y="1113" on="0"/>
        <pt x="794" y="1137" on="0"/>
        <pt x="736" y="1154" on="0"/>
        <pt x="698" y="1154" on="1"/>
        <pt x="640" y="1154" on="0"/>
        <pt x="565" y="1118" on="0"/>
        <pt x="521" y="1059" on="0"/>
        <pt x="504" y="984" on="0"/>
        <pt x="504" y="946" on="1"/>
        <pt x="504" y="910" on="1"/>
        <pt x="762" y="910" on="1"/>
        <pt x="778" y="910" on="0"/>
        <pt x="810" y="906" on="0"/>
        <pt x="837" y="890" on="0"/>
        <pt x="854" y="857" on="0"/>
        <pt x="854" y="828" on="1"/>
        <pt x="854" y="803" on="0"/>
        <pt x="837" y="772" on="0"/>
        <pt x="810" y="754" on="0"/>
        <pt x="778" y="748" on="0"/>
        <pt x="762" y="748" on="1"/>
        <pt x="504" y="748" on="1"/>
        <pt x="504" y="652" on="1"/>
        <pt x="762" y="652" on="1"/>
        <pt x="778" y="652" on="0"/>
        <pt x="810" y="648" on="0"/>
        <pt x="837" y="631" on="0"/>
        <pt x="854" y="597" on="0"/>
        <pt x="854" y="568" on="1"/>
        <pt x="854" y="542" on="0"/>
        <pt x="837" y="512" on="0"/>
        <pt x="810" y="495" on="0"/>
        <pt x="778" y="490" on="0"/>
        <pt x="762" y="490" on="1"/>
        <pt x="504" y="490" on="1"/>
        <pt x="504" y="460" on="1"/>
        <pt x="504" y="421" on="0"/>
        <pt x="521" y="345" on="0"/>
        <pt x="565" y="285" on="0"/>
        <pt x="640" y="248" on="0"/>
        <pt x="698" y="248" on="1"/>
        <pt x="736" y="248" on="0"/>
        <pt x="794" y="265" on="0"/>
        <pt x="835" y="289" on="0"/>
        <pt x="860" y="317" on="0"/>
        <pt x="866" y="328" on="1"/>
        <pt x="890" y="376" on="0"/>
        <pt x="961" y="422" on="0"/>
        <pt x="1002" y="422" on="1"/>
        <pt x="1033" y="422" on="0"/>
        <pt x="1077" y="401" on="0"/>
        <pt x="1106" y="366" on="0"/>
        <pt x="1120" y="321" on="0"/>
        <pt x="1120" y="296" on="1"/>
        <pt x="1120" y="245" on="0"/>
        <pt x="1081" y="161" on="0"/>
        <pt x="1015" y="93" on="0"/>
        <pt x="930" y="44" on="0"/>
        <pt x="837" y="10" on="0"/>
        <pt x="743" y="-6" on="0"/>
        <pt x="702" y="-6" on="1"/>
        <pt x="648" y="-6" on="0"/>
        <pt x="536" y="14" on="0"/>
        <pt x="431" y="60" on="0"/>
        <pt x="338" y="135" on="0"/>
        <pt x="269" y="245" on="0"/>
        <pt x="228" y="393" on="0"/>
        <pt x="228" y="490" on="1"/>
        <pt x="98" y="490" on="1"/>
        <pt x="81" y="490" on="0"/>
        <pt x="48" y="495" on="0"/>
        <pt x="22" y="512" on="0"/>
        <pt x="6" y="542" on="0"/>
        <pt x="6" y="568" on="1"/>
        <pt x="6" y="597" on="0"/>
        <pt x="22" y="631" on="0"/>
        <pt x="48" y="648" on="0"/>
        <pt x="81" y="652" on="0"/>
        <pt x="98" y="652" on="1"/>
        <pt x="228" y="652" on="1"/>
        <pt x="228" y="748" on="1"/>
        <pt x="98" y="748" on="1"/>
        <pt x="81" y="748" on="0"/>
        <pt x="48" y="754" on="0"/>
        <pt x="22" y="772" on="0"/>
        <pt x="6" y="803" on="0"/>
        <pt x="6" y="828" on="1"/>
        <pt x="6" y="857" on="0"/>
        <pt x="22" y="890" on="0"/>
        <pt x="48" y="906" on="0"/>
        <pt x="81" y="910" on="0"/>
        <pt x="98" y="910" on="1"/>
        <pt x="228" y="910" on="1"/>
        <pt x="228" y="1007" on="0"/>
        <pt x="268" y="1156" on="0"/>
        <pt x="338" y="1267" on="0"/>
        <pt x="430" y="1342" on="0"/>
        <pt x="536" y="1388" on="0"/>
        <pt x="648" y="1408" on="0"/>
      </contour>
    </TTGlyph>
    <TTGlyph name="F" xMin="140" yMin="0" xMax="912" yMax="1400">
      <contour>
        <pt x="682" y="1400" on="1"/>
        <pt x="722" y="1400" on="0"/>
        <pt x="804" y="1392" on="0"/>
        <pt x="870" y="1362" on="0"/>
        <pt x="912" y="1303" on="0"/>
        <pt x="912" y="1252" on="1"/>
        <pt x="912" y="1201" on="0"/>
        <pt x="870" y="1142" on="0"/>
        <pt x="804" y="1112" on="0"/>
        <pt x="722" y="1104" on="0"/>
        <pt x="682" y="1104" on="1"/>
        <pt x="444" y="1104" on="1"/>
        <pt x="444" y="844" on="1"/>
        <pt x="570" y="844" on="1"/>
        <pt x="609" y="844" on="0"/>
        <pt x="691" y="838" on="0"/>
        <pt x="757" y="810" on="0"/>
        <pt x="800" y="750" on="0"/>
        <pt x="800" y="696" on="1"/>
        <pt x="800" y="642" on="0"/>
        <pt x="758" y="582" on="0"/>
        <pt x="692" y="554" on="0"/>
        <pt x="610" y="548" on="0"/>
        <pt x="570" y="548" on="1"/>
        <pt x="444" y="548" on="1"/>
        <pt x="444" y="230" on="1"/>
        <pt x="444" y="186" on="0"/>
        <pt x="439" y="104" on="0"/>
        <pt x="410" y="39" on="0"/>
        <pt x="348" y="0" on="0"/>
        <pt x="292" y="0" on="1"/>
        <pt x="235" y="0" on="0"/>
        <pt x="173" y="39" on="0"/>
        <pt x="145" y="104" on="0"/>
        <pt x="140" y="186" on="0"/>
        <pt x="140" y="230" on="1"/>
        <pt x="140" y="1170" on="1"/>
        <pt x="140" y="1213" on="0"/>
        <pt x="145" y="1295" on="0"/>
        <pt x="173" y="1360" on="0"/>
        <pt x="235" y="1400" on="0"/>
        <pt x="292" y="1400" on="1"/>
      </contour>
    </TTGlyph>
    <TTGlyph name="G" xMin="106" yMin="-8" xMax="1072" yMax="1408">
      <contour>
        <pt x="1072" y="92" on="1"/>
        <pt x="1072" y="79" on="0"/>
        <pt x="1067" y="45" on="0"/>
        <pt x="1046" y="14" on="0"/>
        <pt x="1006" y="-8" on="0"/>
        <pt x="972" y="-8" on="1"/>
        <pt x="934" y="-8" on="0"/>
        <pt x="890" y="13" on="0"/>
        <pt x="867" y="44" on="0"/>
        <pt x="860" y="78" on="0"/>
        <pt x="860" y="92" on="1"/>
        <pt x="860" y="152" on="1"/>
        <pt x="812" y="81" on="0"/>
        <pt x="663" y="-8" on="0"/>
        <pt x="554" y="-8" on="1"/>
        <pt x="535" y="-8" on="0"/>
        <pt x="455" y="-2" on="0"/>
        <pt x="355" y="24" on="0"/>
        <pt x="249" y="76" on="0"/>
        <pt x="162" y="169" on="0"/>
        <pt x="106" y="308" on="0"/>
        <pt x="106" y="408" on="1"/>
        <pt x="106" y="968" on="1"/>
        <pt x="106" y="1050" on="0"/>
        <pt x="146" y="1176" on="0"/>
        <pt x="211" y="1269" on="0"/>
        <pt x="295" y="1332" on="0"/>
        <pt x="339" y="1353" on="1"/>
        <pt x="441" y="1401" on="0"/>
        <pt x="572" y="1408" on="1"/>
        <pt x="683" y="1408" on="0"/>
        <pt x="841" y="1358" on="0"/>
        <pt x="951" y="1278" on="0"/>
        <pt x="1017" y="1177" on="0"/>
        <pt x="1053" y="1073" on="0"/>
        <pt x="1064" y="977" on="0"/>
        <pt x="1064" y="942" on="1"/>
        <pt x="1064" y="927" on="0"/>
        <pt x="1059" y="884" on="0"/>
        <pt x="1029" y="845" on="0"/>
        <pt x="964" y="818" on="0"/>
        <pt x="904" y="818" on="1"/>
        <pt x="883" y="818" on="0"/>
        <pt x="822" y="823" on="0"/>
        <pt x="766" y="843" on="0"/>
        <pt x="726" y="882" on="0"/>
        <pt x="726" y="916" on="1"/>
        <pt x="726" y="970" on="0"/>
        <pt x="713" y="1055" on="0"/>
        <pt x="679" y="1115" on="0"/>
        <pt x="619" y="1146" on="0"/>
        <pt x="572" y="1146" on="1"/>
        <pt x="523" y="1146" on="0"/>
        <pt x="470" y="1106" on="0"/>
        <pt x="458" y="1082" on="1"/>
        <pt x="444" y="1054" on="0"/>
        <pt x="442" y="1018" on="1"/>
        <pt x="442" y="378" on="1"/>
        <pt x="442" y="346" on="0"/>
        <pt x="465" y="290" on="0"/>
        <pt x="507" y="248" on="0"/>
        <pt x="564" y="224" on="0"/>
        <pt x="598" y="224" on="1"/>
        <pt x="638" y="224" on="0"/>
        <pt x="703" y="259" on="0"/>
        <pt x="755" y="318" on="0"/>
        <pt x="796" y="393" on="0"/>
        <pt x="812" y="434" on="1"/>
        <pt x="716" y="434" on="1"/>
        <pt x="687" y="437" on="0"/>
        <pt x="665" y="449" on="1"/>
        <pt x="645" y="459" on="0"/>
        <pt x="614" y="499" on="0"/>
        <pt x="614" y="534" on="1"/>
        <pt x="614" y="572" on="0"/>
        <pt x="645" y="613" on="0"/>
        <pt x="665" y="623" on="1"/>
        <pt x="687" y="634" on="0"/>
        <pt x="716" y="636" on="1"/>
        <pt x="976" y="636" on="1"/>
        <pt x="983" y="636" on="0"/>
        <pt x="1014" y="631" on="0"/>
        <pt x="1047" y="607" on="0"/>
        <pt x="1072" y="560" on="0"/>
        <pt x="1072" y="518" on="1"/>
      </contour>
    </TTGlyph>
    <TTGlyph name="H" xMin="146" yMin="0" xMax="1028" yMax="1400">
      <contour>
        <pt x="146" y="1170" on="1"/>
        <pt x="146" y="1213" on="0"/>
        <pt x="154" y="1295" on="0"/>
        <pt x="185" y="1360" on="0"/>
        <pt x="245" y="1400" on="0"/>
        <pt x="298" y="1400" on="1"/>
        <pt x="350" y="1400" on="0"/>
        <pt x="411" y="1360" on="0"/>
        <pt x="442" y="1295" on="0"/>
        <pt x="450" y="1213" on="0"/>
        <pt x="450" y="1170" on="1"/>
        <pt x="450" y="856" on="1"/>
        <pt x="724" y="856" on="1"/>
        <pt x="724" y="1170" on="1"/>
        <pt x="724" y="1213" on="0"/>
        <pt x="732" y="1295" on="0"/>
        <pt x="763" y="1360" on="0"/>
        <pt x="823" y="1400" on="0"/>
        <pt x="876" y="1400" on="1"/>
        <pt x="928" y="1400" on="0"/>
        <pt x="989" y="1360" on="0"/>
        <pt x="1020" y="1295" on="0"/>
        <pt x="1028" y="1213" on="0"/>
        <pt x="1028" y="1170" on="1"/>
        <pt x="1028" y="230" on="1"/>
        <pt x="1028" y="186" on="0"/>
        <pt x="1020" y="104" on="0"/>
        <pt x="989" y="39" on="0"/>
        <pt x="928" y="0" on="0"/>
        <pt x="876" y="0" on="1"/>
        <pt x="823" y="0" on="0"/>
        <pt x="763" y="39" on="0"/>
        <pt x="732" y="104" on="0"/>
        <pt x="724" y="186" on="0"/>
        <pt x="724" y="230" on="1"/>
        <pt x="724" y="562" on="1"/>
        <pt x="450" y="562" on="1"/>
        <pt x="450" y="230" on="1"/>
        <pt x="450" y="186" on="0"/>
        <pt x="442" y="104" on="0"/>
        <pt x="411" y="39" on="0"/>
        <pt x="350" y="0" on="0"/>
        <pt x="298" y="0" on="1"/>
        <pt x="245" y="0" on="0"/>
        <pt x="185" y="39" on="0"/>
        <pt x="154" y="104" on="0"/>
        <pt x="146" y="186" on="0"/>
        <pt x="146" y="230" on="1"/>
      </contour>
    </TTGlyph>
    <TTGlyph name="I" xMin="168" yMin="0" xMax="500" yMax="1400">
      <contour>
        <pt x="168" y="1170" on="1"/>
        <pt x="168" y="1213" on="0"/>
        <pt x="177" y="1295" on="0"/>
        <pt x="210" y="1360" on="0"/>
        <pt x="276" y="1400" on="0"/>
        <pt x="334" y="1400" on="1"/>
        <pt x="392" y="1400" on="0"/>
        <pt x="458" y="1360" on="0"/>
        <pt x="491" y="1295" on="0"/>
        <pt x="500" y="1213" on="0"/>
        <pt x="500" y="1170" on="1"/>
        <pt x="500" y="230" on="1"/>
        <pt x="500" y="186" on="0"/>
        <pt x="492" y="104" on="0"/>
        <pt x="459" y="39" on="0"/>
        <pt x="392" y="0" on="0"/>
        <pt x="334" y="0" on="1"/>
        <pt x="276" y="0" on="0"/>
        <pt x="210" y="39" on="0"/>
        <pt x="177" y="104" on="0"/>
        <pt x="168" y="186" on="0"/>
        <pt x="168" y="230" on="1"/>
      </contour>
    </TTGlyph>
    <TTGlyph name="Iacute" xMin="114" yMin="0" xMax="560" yMax="1850">
      <contour>
        <pt x="168" y="1170" on="1"/>
        <pt x="168" y="1213" on="0"/>
        <pt x="177" y="1295" on="0"/>
        <pt x="210" y="1360" on="0"/>
        <pt x="276" y="1400" on="0"/>
        <pt x="334" y="1400" on="1"/>
        <pt x="392" y="1400" on="0"/>
        <pt x="458" y="1360" on="0"/>
        <pt x="491" y="1295" on="0"/>
        <pt x="500" y="1213" on="0"/>
        <pt x="500" y="1170" on="1"/>
        <pt x="500" y="230" on="1"/>
        <pt x="500" y="186" on="0"/>
        <pt x="492" y="104" on="0"/>
        <pt x="459" y="39" on="0"/>
        <pt x="392" y="0" on="0"/>
        <pt x="334" y="0" on="1"/>
        <pt x="276" y="0" on="0"/>
        <pt x="210" y="39" on="0"/>
        <pt x="177" y="104" on="0"/>
        <pt x="168" y="186" on="0"/>
        <pt x="168" y="230" on="1"/>
      </contour>
      <contour>
        <pt x="382" y="1832" on="1"/>
        <pt x="409" y="1850" on="0"/>
        <pt x="438" y="1850" on="1"/>
        <pt x="464" y="1850" on="0"/>
        <pt x="518" y="1833" on="0"/>
        <pt x="538" y="1804" on="1"/>
        <pt x="550" y="1786" on="0"/>
        <pt x="560" y="1750" on="0"/>
        <pt x="560" y="1736" on="1"/>
        <pt x="560" y="1709" on="0"/>
        <pt x="530" y="1664" on="0"/>
        <pt x="510" y="1650" on="1"/>
        <pt x="290" y="1516" on="1"/>
        <pt x="276" y="1507" on="0"/>
        <pt x="245" y="1500" on="0"/>
        <pt x="230" y="1500" on="1"/>
        <pt x="203" y="1500" on="0"/>
        <pt x="156" y="1517" on="0"/>
        <pt x="136" y="1546" on="1"/>
        <pt x="124" y="1563" on="0"/>
        <pt x="114" y="1596" on="0"/>
        <pt x="114" y="1610" on="1"/>
        <pt x="114" y="1640" on="0"/>
        <pt x="144" y="1687" on="0"/>
        <pt x="158" y="1696" on="1"/>
      </contour>
    </TTGlyph>
    <TTGlyph name="Icircumflex" xMin="30" yMin="0" xMax="638" yMax="1894">
      <contour>
        <pt x="168" y="1170" on="1"/>
        <pt x="168" y="1213" on="0"/>
        <pt x="177" y="1295" on="0"/>
        <pt x="210" y="1360" on="0"/>
        <pt x="276" y="1400" on="0"/>
        <pt x="334" y="1400" on="1"/>
        <pt x="392" y="1400" on="0"/>
        <pt x="458" y="1360" on="0"/>
        <pt x="491" y="1295" on="0"/>
        <pt x="500" y="1213" on="0"/>
        <pt x="500" y="1170" on="1"/>
        <pt x="500" y="230" on="1"/>
        <pt x="500" y="186" on="0"/>
        <pt x="492" y="104" on="0"/>
        <pt x="459" y="39" on="0"/>
        <pt x="392" y="0" on="0"/>
        <pt x="334" y="0" on="1"/>
        <pt x="276" y="0" on="0"/>
        <pt x="210" y="39" on="0"/>
        <pt x="177" y="104" on="0"/>
        <pt x="168" y="186" on="0"/>
        <pt x="168" y="230" on="1"/>
      </contour>
      <contour>
        <pt x="610" y="1680" on="1"/>
        <pt x="621" y="1669" on="0"/>
        <pt x="638" y="1632" on="0"/>
        <pt x="638" y="1608" on="1"/>
        <pt x="638" y="1582" on="0"/>
        <pt x="615" y="1544" on="0"/>
        <pt x="600" y="1530" on="1"/>
        <pt x="582" y="1513" on="0"/>
        <pt x="548" y="1500" on="0"/>
        <pt x="530" y="1500" on="1"/>
        <pt x="506" y="1500" on="0"/>
        <pt x="458" y="1515" on="0"/>
        <pt x="444" y="1532" on="1"/>
        <pt x="334" y="1636" on="1"/>
        <pt x="224" y="1532" on="1"/>
        <pt x="210" y="1515" on="0"/>
        <pt x="162" y="1500" on="0"/>
        <pt x="138" y="1500" on="1"/>
        <pt x="120" y="1500" on="0"/>
        <pt x="86" y="1513" on="0"/>
        <pt x="68" y="1530" on="1"/>
        <pt x="53" y="1544" on="0"/>
        <pt x="30" y="1582" on="0"/>
        <pt x="30" y="1608" on="1"/>
        <pt x="30" y="1632" on="0"/>
        <pt x="47" y="1669" on="0"/>
        <pt x="58" y="1680" on="1"/>
        <pt x="248" y="1860" on="1"/>
        <pt x="263" y="1875" on="0"/>
        <pt x="300" y="1892" on="0"/>
        <pt x="324" y="1894" on="1"/>
        <pt x="344" y="1894" on="1"/>
        <pt x="389" y="1891" on="0"/>
        <pt x="420" y="1860" on="1"/>
      </contour>
    </TTGlyph>
    <TTGlyph name="Idieresis" xMin="-26" yMin="0" xMax="694" yMax="1804">
      <contour>
        <pt x="168" y="1170" on="1"/>
        <pt x="168" y="1213" on="0"/>
        <pt x="177" y="1295" on="0"/>
        <pt x="210" y="1360" on="0"/>
        <pt x="276" y="1400" on="0"/>
        <pt x="334" y="1400" on="1"/>
        <pt x="392" y="1400" on="0"/>
        <pt x="458" y="1360" on="0"/>
        <pt x="491" y="1295" on="0"/>
        <pt x="500" y="1213" on="0"/>
        <pt x="500" y="1170" on="1"/>
        <pt x="500" y="230" on="1"/>
        <pt x="500" y="186" on="0"/>
        <pt x="492" y="104" on="0"/>
        <pt x="459" y="39" on="0"/>
        <pt x="392" y="0" on="0"/>
        <pt x="334" y="0" on="1"/>
        <pt x="276" y="0" on="0"/>
        <pt x="210" y="39" on="0"/>
        <pt x="177" y="104" on="0"/>
        <pt x="168" y="186" on="0"/>
        <pt x="168" y="230" on="1"/>
      </contour>
      <contour>
        <pt x="278" y="1652" on="1"/>
        <pt x="278" y="1575" on="0"/>
        <pt x="198" y="1500" on="0"/>
        <pt x="126" y="1500" on="1"/>
        <pt x="54" y="1500" on="0"/>
        <pt x="-26" y="1575" on="0"/>
        <pt x="-26" y="1652" on="1"/>
        <pt x="-26" y="1732" on="0"/>
        <pt x="54" y="1804" on="0"/>
        <pt x="126" y="1804" on="1"/>
        <pt x="203" y="1804" on="0"/>
        <pt x="278" y="1732" on="0"/>
      </contour>
      <contour>
        <pt x="694" y="1652" on="1"/>
        <pt x="694" y="1575" on="0"/>
        <pt x="614" y="1500" on="0"/>
        <pt x="542" y="1500" on="1"/>
        <pt x="470" y="1500" on="0"/>
        <pt x="390" y="1575" on="0"/>
        <pt x="390" y="1652" on="1"/>
        <pt x="390" y="1732" on="0"/>
        <pt x="470" y="1804" on="0"/>
        <pt x="542" y="1804" on="1"/>
        <pt x="619" y="1804" on="0"/>
        <pt x="694" y="1732" on="0"/>
      </contour>
    </TTGlyph>
    <TTGlyph name="Igrave" xMin="96" yMin="0" xMax="542" yMax="1850">
      <contour>
        <pt x="168" y="1170" on="1"/>
        <pt x="168" y="1213" on="0"/>
        <pt x="177" y="1295" on="0"/>
        <pt x="210" y="1360" on="0"/>
        <pt x="276" y="1400" on="0"/>
        <pt x="334" y="1400" on="1"/>
        <pt x="392" y="1400" on="0"/>
        <pt x="458" y="1360" on="0"/>
        <pt x="491" y="1295" on="0"/>
        <pt x="500" y="1213" on="0"/>
        <pt x="500" y="1170" on="1"/>
        <pt x="500" y="230" on="1"/>
        <pt x="500" y="186" on="0"/>
        <pt x="492" y="104" on="0"/>
        <pt x="459" y="39" on="0"/>
        <pt x="392" y="0" on="0"/>
        <pt x="334" y="0" on="1"/>
        <pt x="276" y="0" on="0"/>
        <pt x="210" y="39" on="0"/>
        <pt x="177" y="104" on="0"/>
        <pt x="168" y="186" on="0"/>
        <pt x="168" y="230" on="1"/>
      </contour>
      <contour>
        <pt x="498" y="1696" on="1"/>
        <pt x="512" y="1687" on="0"/>
        <pt x="542" y="1640" on="0"/>
        <pt x="542" y="1610" on="1"/>
        <pt x="542" y="1596" on="0"/>
        <pt x="532" y="1563" on="0"/>
        <pt x="520" y="1546" on="1"/>
        <pt x="500" y="1517" on="0"/>
        <pt x="453" y="1500" on="0"/>
        <pt x="426" y="1500" on="1"/>
        <pt x="411" y="1500" on="0"/>
        <pt x="380" y="1507" on="0"/>
        <pt x="366" y="1516" on="1"/>
        <pt x="146" y="1650" on="1"/>
        <pt x="126" y="1664" on="0"/>
        <pt x="96" y="1709" on="0"/>
        <pt x="96" y="1736" on="1"/>
        <pt x="96" y="1750" on="0"/>
        <pt x="106" y="1786" on="0"/>
        <pt x="118" y="1804" on="1"/>
        <pt x="138" y="1833" on="0"/>
        <pt x="192" y="1850" on="0"/>
        <pt x="218" y="1850" on="1"/>
        <pt x="247" y="1850" on="0"/>
        <pt x="274" y="1832" on="1"/>
      </contour>
    </TTGlyph>
    <TTGlyph name="J" xMin="46" yMin="-8" xMax="980" yMax="1400">
      <contour>
        <pt x="536" y="-8" on="1"/>
        <pt x="426" y="-8" on="0"/>
        <pt x="267" y="42" on="0"/>
        <pt x="158" y="122" on="0"/>
        <pt x="92" y="223" on="0"/>
        <pt x="57" y="327" on="0"/>
        <pt x="46" y="423" on="0"/>
        <pt x="46" y="458" on="1"/>
        <pt x="46" y="473" on="0"/>
        <pt x="51" y="516" on="0"/>
        <pt x="81" y="556" on="0"/>
        <pt x="146" y="584" on="0"/>
        <pt x="206" y="584" on="1"/>
        <pt x="226" y="584" on="0"/>
        <pt x="286" y="579" on="0"/>
        <pt x="342" y="558" on="0"/>
        <pt x="382" y="518" on="0"/>
        <pt x="382" y="484" on="1"/>
        <pt x="382" y="430" on="0"/>
        <pt x="395" y="344" on="0"/>
        <pt x="429" y="284" on="0"/>
        <pt x="489" y="252" on="0"/>
        <pt x="536" y="252" on="1"/>
        <pt x="585" y="252" on="0"/>
        <pt x="638" y="292" on="0"/>
        <pt x="650" y="317" on="1"/>
        <pt x="664" y="345" on="0"/>
        <pt x="666" y="382" on="1"/>
        <pt x="666" y="1116" on="1"/>
        <pt x="404" y="1116" on="1"/>
        <pt x="364" y="1116" on="0"/>
        <pt x="284" y="1124" on="0"/>
        <pt x="219" y="1152" on="0"/>
        <pt x="178" y="1208" on="0"/>
        <pt x="178" y="1256" on="1"/>
        <pt x="178" y="1305" on="0"/>
        <pt x="219" y="1363" on="0"/>
        <pt x="284" y="1392" on="0"/>
        <pt x="364" y="1400" on="0"/>
        <pt x="404" y="1400" on="1"/>
        <pt x="812" y="1400" on="1"/>
        <pt x="869" y="1400" on="0"/>
        <pt x="936" y="1360" on="0"/>
        <pt x="970" y="1295" on="0"/>
        <pt x="980" y="1213" on="0"/>
        <pt x="980" y="1170" on="1"/>
        <pt x="980" y="410" on="1"/>
        <pt x="980" y="306" on="0"/>
        <pt x="920" y="162" on="0"/>
        <pt x="829" y="69" on="0"/>
        <pt x="720" y="19" on="0"/>
        <pt x="621" y="-4" on="0"/>
        <pt x="547" y="-8" on="0"/>
      </contour>
    </TTGlyph>
    <TTGlyph name="K" xMin="140" yMin="-8" xMax="1064" yMax="1400">
      <contour>
        <pt x="140" y="1172" on="1"/>
        <pt x="140" y="1215" on="0"/>
        <pt x="148" y="1297" on="0"/>
        <pt x="178" y="1361" on="0"/>
        <pt x="238" y="1400" on="0"/>
        <pt x="290" y="1400" on="1"/>
        <pt x="343" y="1400" on="0"/>
        <pt x="405" y="1361" on="0"/>
        <pt x="436" y="1297" on="0"/>
        <pt x="444" y="1215" on="0"/>
        <pt x="444" y="1172" on="1"/>
        <pt x="444" y="812" on="1"/>
        <pt x="558" y="812" on="1"/>
        <pt x="591" y="898" on="0"/>
        <pt x="624" y="981" on="1"/>
        <pt x="638" y="1016" on="0"/>
        <pt x="668" y="1091" on="0"/>
        <pt x="697" y="1163" on="0"/>
        <pt x="724" y="1230" on="0"/>
        <pt x="736" y="1256" on="1"/>
        <pt x="748" y="1284" on="0"/>
        <pt x="775" y="1336" on="0"/>
        <pt x="811" y="1376" on="0"/>
        <pt x="856" y="1400" on="0"/>
        <pt x="886" y="1400" on="1"/>
        <pt x="915" y="1400" on="0"/>
        <pt x="971" y="1382" on="0"/>
        <pt x="1015" y="1346" on="0"/>
        <pt x="1042" y="1294" on="0"/>
        <pt x="1042" y="1260" on="1"/>
        <pt x="1042" y="1234" on="0"/>
        <pt x="1025" y="1163" on="0"/>
        <pt x="1010" y="1128" on="1"/>
        <pt x="830" y="702" on="1"/>
        <pt x="882" y="683" on="0"/>
        <pt x="922" y="640" on="1"/>
        <pt x="939" y="622" on="0"/>
        <pt x="972" y="571" on="0"/>
        <pt x="998" y="503" on="0"/>
        <pt x="1014" y="416" on="0"/>
        <pt x="1014" y="362" on="1"/>
        <pt x="1014" y="220" on="1"/>
        <pt x="1014" y="209" on="0"/>
        <pt x="1030" y="195" on="0"/>
        <pt x="1038" y="186" on="1"/>
        <pt x="1058" y="163" on="0"/>
        <pt x="1064" y="129" on="0"/>
        <pt x="1064" y="118" on="1"/>
        <pt x="1064" y="82" on="0"/>
        <pt x="1037" y="34" on="0"/>
        <pt x="992" y="4" on="0"/>
        <pt x="933" y="-8" on="0"/>
        <pt x="902" y="-8" on="1"/>
        <pt x="869" y="-8" on="0"/>
        <pt x="801" y="12" on="0"/>
        <pt x="745" y="53" on="0"/>
        <pt x="710" y="115" on="0"/>
        <pt x="710" y="156" on="1"/>
        <pt x="710" y="362" on="1"/>
        <pt x="710" y="405" on="0"/>
        <pt x="698" y="480" on="0"/>
        <pt x="664" y="535" on="0"/>
        <pt x="604" y="566" on="0"/>
        <pt x="556" y="566" on="1"/>
        <pt x="444" y="566" on="1"/>
        <pt x="444" y="230" on="1"/>
        <pt x="444" y="186" on="0"/>
        <pt x="436" y="104" on="0"/>
        <pt x="405" y="39" on="0"/>
        <pt x="343" y="0" on="0"/>
        <pt x="290" y="0" on="1"/>
        <pt x="238" y="0" on="0"/>
        <pt x="178" y="39" on="0"/>
        <pt x="148" y="104" on="0"/>
        <pt x="140" y="186" on="0"/>
        <pt x="140" y="230" on="1"/>
      </contour>
    </TTGlyph>
    <TTGlyph name="L" xMin="178" yMin="0" xMax="906" yMax="1400">
      <contour>
        <pt x="178" y="1170" on="1"/>
        <pt x="178" y="1213" on="0"/>
        <pt x="186" y="1295" on="0"/>
        <pt x="217" y="1360" on="0"/>
        <pt x="277" y="1400" on="0"/>
        <pt x="330" y="1400" on="1"/>
        <pt x="387" y="1400" on="0"/>
        <pt x="451" y="1360" on="0"/>
        <pt x="481" y="1295" on="0"/>
        <pt x="488" y="1213" on="0"/>
        <pt x="488" y="1170" on="1"/>
        <pt x="488" y="294" on="1"/>
        <pt x="684" y="294" on="1"/>
        <pt x="725" y="294" on="0"/>
        <pt x="805" y="286" on="0"/>
        <pt x="868" y="256" on="0"/>
        <pt x="906" y="198" on="0"/>
        <pt x="906" y="148" on="1"/>
        <pt x="906" y="97" on="0"/>
        <pt x="868" y="38" on="0"/>
        <pt x="805" y="8" on="0"/>
        <pt x="725" y="0" on="0"/>
        <pt x="684" y="0" on="1"/>
        <pt x="400" y="0" on="1"/>
        <pt x="347" y="0" on="0"/>
        <pt x="265" y="8" on="0"/>
        <pt x="208" y="38" on="0"/>
        <pt x="178" y="97" on="0"/>
        <pt x="178" y="148" on="1"/>
      </contour>
    </TTGlyph>
    <TTGlyph name="M" xMin="156" yMin="0" xMax="1430" yMax="1400">
      <contour>
        <pt x="784" y="324" on="1"/>
        <pt x="755" y="324" on="0"/>
        <pt x="714" y="346" on="0"/>
        <pt x="684" y="380" on="0"/>
        <pt x="663" y="422" on="0"/>
        <pt x="656" y="442" on="1"/>
        <pt x="466" y="990" on="1"/>
        <pt x="440" y="990" on="1"/>
        <pt x="440" y="156" on="1"/>
        <pt x="440" y="124" on="0"/>
        <pt x="432" y="68" on="0"/>
        <pt x="405" y="25" on="0"/>
        <pt x="352" y="0" on="0"/>
        <pt x="306" y="0" on="1"/>
        <pt x="254" y="0" on="0"/>
        <pt x="194" y="25" on="0"/>
        <pt x="164" y="68" on="0"/>
        <pt x="156" y="124" on="0"/>
        <pt x="156" y="156" on="1"/>
        <pt x="156" y="1172" on="1"/>
        <pt x="156" y="1215" on="0"/>
        <pt x="161" y="1297" on="0"/>
        <pt x="189" y="1361" on="0"/>
        <pt x="250" y="1400" on="0"/>
        <pt x="306" y="1400" on="1"/>
        <pt x="442" y="1400" on="1"/>
        <pt x="476" y="1400" on="0"/>
        <pt x="523" y="1395" on="0"/>
        <pt x="563" y="1366" on="0"/>
        <pt x="602" y="1302" on="0"/>
        <pt x="649" y="1185" on="0"/>
        <pt x="711" y="1004" on="0"/>
        <pt x="756" y="872" on="1"/>
        <pt x="782" y="792" on="1"/>
        <pt x="806" y="792" on="1"/>
        <pt x="838" y="892" on="1"/>
        <pt x="879" y="1018" on="0"/>
        <pt x="937" y="1192" on="0"/>
        <pt x="981" y="1305" on="0"/>
        <pt x="1016" y="1366" on="0"/>
        <pt x="1055" y="1395" on="0"/>
        <pt x="1101" y="1400" on="0"/>
        <pt x="1134" y="1400" on="1"/>
        <pt x="1280" y="1400" on="1"/>
        <pt x="1336" y="1400" on="0"/>
        <pt x="1397" y="1361" on="0"/>
        <pt x="1425" y="1297" on="0"/>
        <pt x="1430" y="1215" on="0"/>
        <pt x="1430" y="1172" on="1"/>
        <pt x="1430" y="156" on="1"/>
        <pt x="1430" y="124" on="0"/>
        <pt x="1422" y="68" on="0"/>
        <pt x="1392" y="25" on="0"/>
        <pt x="1332" y="0" on="0"/>
        <pt x="1280" y="0" on="1"/>
        <pt x="1234" y="0" on="0"/>
        <pt x="1181" y="25" on="0"/>
        <pt x="1154" y="68" on="0"/>
        <pt x="1146" y="124" on="0"/>
        <pt x="1146" y="156" on="1"/>
        <pt x="1146" y="990" on="1"/>
        <pt x="1118" y="990" on="1"/>
        <pt x="930" y="442" on="1"/>
        <pt x="922" y="422" on="0"/>
        <pt x="902" y="380" on="0"/>
        <pt x="872" y="346" on="0"/>
        <pt x="832" y="324" on="0"/>
        <pt x="804" y="324" on="1"/>
      </contour>
    </TTGlyph>
    <TTGlyph name="N" xMin="148" yMin="0" xMax="1222" yMax="1400">
      <contour>
        <pt x="916" y="414" on="1"/>
        <pt x="940" y="414" on="1"/>
        <pt x="940" y="1244" on="1"/>
        <pt x="940" y="1276" on="0"/>
        <pt x="948" y="1333" on="0"/>
        <pt x="975" y="1375" on="0"/>
        <pt x="1028" y="1400" on="0"/>
        <pt x="1074" y="1400" on="1"/>
        <pt x="1125" y="1400" on="0"/>
        <pt x="1184" y="1375" on="0"/>
        <pt x="1214" y="1333" on="0"/>
        <pt x="1222" y="1276" on="0"/>
        <pt x="1222" y="1244" on="1"/>
        <pt x="1222" y="230" on="1"/>
        <pt x="1222" y="186" on="0"/>
        <pt x="1217" y="104" on="0"/>
        <pt x="1190" y="39" on="0"/>
        <pt x="1129" y="0" on="0"/>
        <pt x="1074" y="0" on="1"/>
        <pt x="942" y="0" on="1"/>
        <pt x="895" y="0" on="0"/>
        <pt x="832" y="37" on="0"/>
        <pt x="790" y="90" on="0"/>
        <pt x="765" y="148" on="0"/>
        <pt x="758" y="168" on="1"/>
        <pt x="456" y="986" on="1"/>
        <pt x="432" y="986" on="1"/>
        <pt x="432" y="156" on="1"/>
        <pt x="432" y="124" on="0"/>
        <pt x="424" y="67" on="0"/>
        <pt x="397" y="25" on="0"/>
        <pt x="344" y="0" on="0"/>
        <pt x="298" y="0" on="1"/>
        <pt x="246" y="0" on="0"/>
        <pt x="186" y="25" on="0"/>
        <pt x="156" y="67" on="0"/>
        <pt x="148" y="124" on="0"/>
        <pt x="148" y="156" on="1"/>
        <pt x="148" y="1170" on="1"/>
        <pt x="148" y="1213" on="0"/>
        <pt x="153" y="1296" on="0"/>
        <pt x="181" y="1361" on="0"/>
        <pt x="242" y="1400" on="0"/>
        <pt x="298" y="1400" on="1"/>
        <pt x="430" y="1400" on="1"/>
        <pt x="480" y="1400" on="0"/>
        <pt x="543" y="1361" on="0"/>
        <pt x="563" y="1338" on="1"/>
        <pt x="585" y="1311" on="0"/>
        <pt x="598" y="1276" on="1"/>
      </contour>
    </TTGlyph>
    <TTGlyph name="Ntilde" xMin="148" yMin="0" xMax="1222" yMax="1816">
      <contour>
        <pt x="940" y="1244" on="1"/>
        <pt x="940" y="1276" on="0"/>
        <pt x="948" y="1333" on="0"/>
        <pt x="975" y="1375" on="0"/>
        <pt x="1028" y="1400" on="0"/>
        <pt x="1074" y="1400" on="1"/>
        <pt x="1125" y="1400" on="0"/>
        <pt x="1184" y="1375" on="0"/>
        <pt x="1214" y="1333" on="0"/>
        <pt x="1222" y="1276" on="0"/>
        <pt x="1222" y="1244" on="1"/>
        <pt x="1222" y="230" on="1"/>
        <pt x="1222" y="186" on="0"/>
        <pt x="1217" y="104" on="0"/>
        <pt x="1190" y="39" on="0"/>
        <pt x="1129" y="0" on="0"/>
        <pt x="1074" y="0" on="1"/>
        <pt x="942" y="0" on="1"/>
        <pt x="895" y="0" on="0"/>
        <pt x="832" y="37" on="0"/>
        <pt x="790" y="90" on="0"/>
        <pt x="765" y="148" on="0"/>
        <pt x="758" y="168" on="1"/>
        <pt x="464" y="986" on="1"/>
        <pt x="432" y="986" on="1"/>
        <pt x="432" y="156" on="1"/>
        <pt x="432" y="124" on="0"/>
        <pt x="424" y="67" on="0"/>
        <pt x="397" y="25" on="0"/>
        <pt x="344" y="0" on="0"/>
        <pt x="298" y="0" on="1"/>
        <pt x="246" y="0" on="0"/>
        <pt x="186" y="25" on="0"/>
        <pt x="156" y="67" on="0"/>
        <pt x="148" y="124" on="0"/>
        <pt x="148" y="156" on="1"/>
        <pt x="148" y="1170" on="1"/>
        <pt x="148" y="1213" on="0"/>
        <pt x="153" y="1296" on="0"/>
        <pt x="181" y="1361" on="0"/>
        <pt x="242" y="1400" on="0"/>
        <pt x="298" y="1400" on="1"/>
        <pt x="430" y="1400" on="1"/>
        <pt x="480" y="1400" on="0"/>
        <pt x="543" y="1361" on="0"/>
        <pt x="563" y="1338" on="1"/>
        <pt x="585" y="1311" on="0"/>
        <pt x="598" y="1276" on="1"/>
        <pt x="908" y="414" on="1"/>
        <pt x="940" y="414" on="1"/>
      </contour>
      <contour>
        <pt x="690" y="1576" on="1"/>
        <pt x="670" y="1587" on="0"/>
        <pt x="640" y="1598" on="0"/>
        <pt x="628" y="1598" on="1"/>
        <pt x="610" y="1598" on="0"/>
        <pt x="574" y="1573" on="0"/>
        <pt x="548" y="1546" on="1"/>
        <pt x="533" y="1529" on="0"/>
        <pt x="499" y="1508" on="0"/>
        <pt x="484" y="1508" on="1"/>
        <pt x="466" y="1508" on="0"/>
        <pt x="417" y="1531" on="0"/>
        <pt x="402" y="1552" on="1"/>
        <pt x="380" y="1577" on="0"/>
        <pt x="380" y="1604" on="1"/>
        <pt x="380" y="1625" on="0"/>
        <pt x="408" y="1674" on="0"/>
        <pt x="440" y="1704" on="1"/>
        <pt x="514" y="1770" on="1"/>
        <pt x="538" y="1791" on="0"/>
        <pt x="587" y="1816" on="0"/>
        <pt x="616" y="1816" on="1"/>
        <pt x="637" y="1816" on="0"/>
        <pt x="678" y="1800" on="0"/>
        <pt x="702" y="1788" on="1"/>
        <pt x="745" y="1766" on="0"/>
        <pt x="798" y="1740" on="0"/>
        <pt x="828" y="1726" on="0"/>
        <pt x="840" y="1722" on="0"/>
        <pt x="844" y="1722" on="1"/>
        <pt x="859" y="1722" on="0"/>
        <pt x="890" y="1742" on="0"/>
        <pt x="908" y="1762" on="1"/>
        <pt x="925" y="1777" on="0"/>
        <pt x="961" y="1798" on="0"/>
        <pt x="982" y="1798" on="1"/>
        <pt x="996" y="1796" on="0"/>
        <pt x="1023" y="1783" on="0"/>
        <pt x="1040" y="1766" on="1"/>
        <pt x="1058" y="1748" on="0"/>
        <pt x="1070" y="1714" on="0"/>
        <pt x="1070" y="1696" on="1"/>
        <pt x="1068" y="1684" on="0"/>
        <pt x="1054" y="1658" on="0"/>
        <pt x="1035" y="1633" on="0"/>
        <pt x="1014" y="1611" on="0"/>
        <pt x="1006" y="1604" on="1"/>
        <pt x="971" y="1568" on="0"/>
        <pt x="923" y="1527" on="0"/>
        <pt x="890" y="1507" on="0"/>
        <pt x="868" y="1502" on="0"/>
        <pt x="858" y="1502" on="1"/>
        <pt x="850" y="1502" on="0"/>
        <pt x="831" y="1505" on="0"/>
        <pt x="795" y="1520" on="0"/>
        <pt x="737" y="1550" on="0"/>
      </contour>
    </TTGlyph>
    <TTGlyph name="O" xMin="104" yMin="-8" xMax="1026" yMax="1408">
      <contour>
        <pt x="104" y="1004" on="1"/>
        <pt x="104" y="1100" on="0"/>
        <pt x="160" y="1235" on="0"/>
        <pt x="247" y="1325" on="0"/>
        <pt x="352" y="1376" on="0"/>
        <pt x="451" y="1402" on="0"/>
        <pt x="531" y="1408" on="0"/>
        <pt x="550" y="1408" on="1"/>
        <pt x="584" y="1408" on="1"/>
        <pt x="603" y="1408" on="0"/>
        <pt x="683" y="1402" on="0"/>
        <pt x="781" y="1376" on="0"/>
        <pt x="886" y="1325" on="0"/>
        <pt x="971" y="1235" on="0"/>
        <pt x="1026" y="1100" on="0"/>
        <pt x="1026" y="1004" on="1"/>
        <pt x="1026" y="406" on="1"/>
        <pt x="1026" y="307" on="0"/>
        <pt x="971" y="169" on="0"/>
        <pt x="886" y="77" on="0"/>
        <pt x="781" y="24" on="0"/>
        <pt x="683" y="-2" on="0"/>
        <pt x="603" y="-8" on="0"/>
        <pt x="584" y="-8" on="1"/>
        <pt x="550" y="-8" on="1"/>
        <pt x="531" y="-8" on="0"/>
        <pt x="451" y="-2" on="0"/>
        <pt x="352" y="24" on="0"/>
        <pt x="247" y="77" on="0"/>
        <pt x="160" y="169" on="0"/>
        <pt x="104" y="307" on="0"/>
        <pt x="104" y="406" on="1"/>
      </contour>
      <contour>
        <pt x="436" y="368" on="1"/>
        <pt x="438" y="331" on="0"/>
        <pt x="453" y="303" on="1"/>
        <pt x="466" y="278" on="0"/>
        <pt x="519" y="238" on="0"/>
        <pt x="568" y="238" on="1"/>
        <pt x="616" y="238" on="0"/>
        <pt x="668" y="278" on="0"/>
        <pt x="681" y="303" on="1"/>
        <pt x="695" y="331" on="0"/>
        <pt x="698" y="368" on="1"/>
        <pt x="698" y="1020" on="1"/>
        <pt x="695" y="1056" on="0"/>
        <pt x="681" y="1085" on="1"/>
        <pt x="668" y="1109" on="0"/>
        <pt x="616" y="1150" on="0"/>
        <pt x="568" y="1150" on="1"/>
        <pt x="519" y="1150" on="0"/>
        <pt x="466" y="1109" on="0"/>
        <pt x="453" y="1085" on="1"/>
        <pt x="438" y="1056" on="0"/>
        <pt x="436" y="1020" on="1"/>
      </contour>
    </TTGlyph>
    <TTGlyph name="Oacute" xMin="104" yMin="-8" xMax="1026" yMax="1850">
      <contour>
        <pt x="610" y="1832" on="1"/>
        <pt x="637" y="1850" on="0"/>
        <pt x="666" y="1850" on="1"/>
        <pt x="692" y="1850" on="0"/>
        <pt x="746" y="1833" on="0"/>
        <pt x="766" y="1804" on="1"/>
        <pt x="778" y="1786" on="0"/>
        <pt x="788" y="1750" on="0"/>
        <pt x="788" y="1736" on="1"/>
        <pt x="788" y="1709" on="0"/>
        <pt x="758" y="1664" on="0"/>
        <pt x="738" y="1650" on="1"/>
        <pt x="518" y="1516" on="1"/>
        <pt x="504" y="1507" on="0"/>
        <pt x="473" y="1500" on="0"/>
        <pt x="458" y="1500" on="1"/>
        <pt x="431" y="1500" on="0"/>
        <pt x="384" y="1517" on="0"/>
        <pt x="364" y="1546" on="1"/>
        <pt x="352" y="1563" on="0"/>
        <pt x="342" y="1596" on="0"/>
        <pt x="342" y="1610" on="1"/>
        <pt x="342" y="1640" on="0"/>
        <pt x="372" y="1687" on="0"/>
        <pt x="386" y="1696" on="1"/>
      </contour>
      <contour>
        <pt x="104" y="1004" on="1"/>
        <pt x="104" y="1100" on="0"/>
        <pt x="160" y="1235" on="0"/>
        <pt x="247" y="1325" on="0"/>
        <pt x="352" y="1376" on="0"/>
        <pt x="451" y="1402" on="0"/>
        <pt x="531" y="1408" on="0"/>
        <pt x="550" y="1408" on="1"/>
        <pt x="584" y="1408" on="1"/>
        <pt x="603" y="1408" on="0"/>
        <pt x="683" y="1402" on="0"/>
        <pt x="781" y="1376" on="0"/>
        <pt x="886" y="1325" on="0"/>
        <pt x="971" y="1235" on="0"/>
        <pt x="1026" y="1100" on="0"/>
        <pt x="1026" y="1004" on="1"/>
        <pt x="1026" y="406" on="1"/>
        <pt x="1026" y="307" on="0"/>
        <pt x="971" y="169" on="0"/>
        <pt x="886" y="77" on="0"/>
        <pt x="781" y="24" on="0"/>
        <pt x="683" y="-2" on="0"/>
        <pt x="603" y="-8" on="0"/>
        <pt x="584" y="-8" on="1"/>
        <pt x="550" y="-8" on="1"/>
        <pt x="531" y="-8" on="0"/>
        <pt x="451" y="-2" on="0"/>
        <pt x="352" y="24" on="0"/>
        <pt x="247" y="77" on="0"/>
        <pt x="160" y="169" on="0"/>
        <pt x="104" y="307" on="0"/>
        <pt x="104" y="406" on="1"/>
      </contour>
      <contour>
        <pt x="436" y="368" on="1"/>
        <pt x="438" y="331" on="0"/>
        <pt x="453" y="303" on="1"/>
        <pt x="466" y="278" on="0"/>
        <pt x="519" y="238" on="0"/>
        <pt x="568" y="238" on="1"/>
        <pt x="616" y="238" on="0"/>
        <pt x="668" y="278" on="0"/>
        <pt x="681" y="303" on="1"/>
        <pt x="695" y="331" on="0"/>
        <pt x="698" y="368" on="1"/>
        <pt x="698" y="1020" on="1"/>
        <pt x="695" y="1056" on="0"/>
        <pt x="681" y="1085" on="1"/>
        <pt x="668" y="1109" on="0"/>
        <pt x="616" y="1150" on="0"/>
        <pt x="568" y="1150" on="1"/>
        <pt x="519" y="1150" on="0"/>
        <pt x="466" y="1109" on="0"/>
        <pt x="453" y="1085" on="1"/>
        <pt x="438" y="1056" on="0"/>
        <pt x="436" y="1020" on="1"/>
      </contour>
    </TTGlyph>
    <TTGlyph name="Ocircumflex" xMin="104" yMin="-8" xMax="1026" yMax="1894">
      <contour>
        <pt x="842" y="1680" on="1"/>
        <pt x="853" y="1669" on="0"/>
        <pt x="870" y="1632" on="0"/>
        <pt x="870" y="1608" on="1"/>
        <pt x="870" y="1582" on="0"/>
        <pt x="847" y="1544" on="0"/>
        <pt x="832" y="1530" on="1"/>
        <pt x="814" y="1513" on="0"/>
        <pt x="780" y="1500" on="0"/>
        <pt x="762" y="1500" on="1"/>
        <pt x="738" y="1500" on="0"/>
        <pt x="690" y="1515" on="0"/>
        <pt x="676" y="1532" on="1"/>
        <pt x="566" y="1636" on="1"/>
        <pt x="456" y="1532" on="1"/>
        <pt x="442" y="1515" on="0"/>
        <pt x="394" y="1500" on="0"/>
        <pt x="370" y="1500" on="1"/>
        <pt x="352" y="1500" on="0"/>
        <pt x="318" y="1513" on="0"/>
        <pt x="300" y="1530" on="1"/>
        <pt x="285" y="1544" on="0"/>
        <pt x="262" y="1582" on="0"/>
        <pt x="262" y="1608" on="1"/>
        <pt x="262" y="1632" on="0"/>
        <pt x="279" y="1669" on="0"/>
        <pt x="290" y="1680" on="1"/>
        <pt x="480" y="1860" on="1"/>
        <pt x="495" y="1875" on="0"/>
        <pt x="532" y="1892" on="0"/>
        <pt x="556" y="1894" on="1"/>
        <pt x="576" y="1894" on="1"/>
        <pt x="621" y="1891" on="0"/>
        <pt x="652" y="1860" on="1"/>
      </contour>
      <contour>
        <pt x="104" y="1004" on="1"/>
        <pt x="104" y="1100" on="0"/>
        <pt x="160" y="1235" on="0"/>
        <pt x="247" y="1325" on="0"/>
        <pt x="352" y="1376" on="0"/>
        <pt x="451" y="1402" on="0"/>
        <pt x="531" y="1408" on="0"/>
        <pt x="550" y="1408" on="1"/>
        <pt x="584" y="1408" on="1"/>
        <pt x="603" y="1408" on="0"/>
        <pt x="683" y="1402" on="0"/>
        <pt x="781" y="1376" on="0"/>
        <pt x="886" y="1325" on="0"/>
        <pt x="971" y="1235" on="0"/>
        <pt x="1026" y="1100" on="0"/>
        <pt x="1026" y="1004" on="1"/>
        <pt x="1026" y="406" on="1"/>
        <pt x="1026" y="307" on="0"/>
        <pt x="971" y="169" on="0"/>
        <pt x="886" y="77" on="0"/>
        <pt x="781" y="24" on="0"/>
        <pt x="683" y="-2" on="0"/>
        <pt x="603" y="-8" on="0"/>
        <pt x="584" y="-8" on="1"/>
        <pt x="550" y="-8" on="1"/>
        <pt x="531" y="-8" on="0"/>
        <pt x="451" y="-2" on="0"/>
        <pt x="352" y="24" on="0"/>
        <pt x="247" y="77" on="0"/>
        <pt x="160" y="169" on="0"/>
        <pt x="104" y="307" on="0"/>
        <pt x="104" y="406" on="1"/>
      </contour>
      <contour>
        <pt x="436" y="368" on="1"/>
        <pt x="438" y="331" on="0"/>
        <pt x="453" y="303" on="1"/>
        <pt x="466" y="278" on="0"/>
        <pt x="519" y="238" on="0"/>
        <pt x="568" y="238" on="1"/>
        <pt x="616" y="238" on="0"/>
        <pt x="668" y="278" on="0"/>
        <pt x="681" y="303" on="1"/>
        <pt x="695" y="331" on="0"/>
        <pt x="698" y="368" on="1"/>
        <pt x="698" y="1020" on="1"/>
        <pt x="695" y="1056" on="0"/>
        <pt x="681" y="1085" on="1"/>
        <pt x="668" y="1109" on="0"/>
        <pt x="616" y="1150" on="0"/>
        <pt x="568" y="1150" on="1"/>
        <pt x="519" y="1150" on="0"/>
        <pt x="466" y="1109" on="0"/>
        <pt x="453" y="1085" on="1"/>
        <pt x="438" y="1056" on="0"/>
        <pt x="436" y="1020" on="1"/>
      </contour>
    </TTGlyph>
    <TTGlyph name="Odieresis" xMin="104" yMin="-8" xMax="1026" yMax="1804">
      <contour>
        <pt x="506" y="1652" on="1"/>
        <pt x="506" y="1575" on="0"/>
        <pt x="426" y="1500" on="0"/>
        <pt x="354" y="1500" on="1"/>
        <pt x="282" y="1500" on="0"/>
        <pt x="202" y="1575" on="0"/>
        <pt x="202" y="1652" on="1"/>
        <pt x="202" y="1732" on="0"/>
        <pt x="282" y="1804" on="0"/>
        <pt x="354" y="1804" on="1"/>
        <pt x="431" y="1804" on="0"/>
        <pt x="506" y="1732" on="0"/>
      </contour>
      <contour>
        <pt x="922" y="1652" on="1"/>
        <pt x="922" y="1575" on="0"/>
        <pt x="842" y="1500" on="0"/>
        <pt x="770" y="1500" on="1"/>
        <pt x="698" y="1500" on="0"/>
        <pt x="618" y="1575" on="0"/>
        <pt x="618" y="1652" on="1"/>
        <pt x="618" y="1732" on="0"/>
        <pt x="698" y="1804" on="0"/>
        <pt x="770" y="1804" on="1"/>
        <pt x="847" y="1804" on="0"/>
        <pt x="922" y="1732" on="0"/>
      </contour>
      <contour>
        <pt x="104" y="1004" on="1"/>
        <pt x="104" y="1100" on="0"/>
        <pt x="160" y="1235" on="0"/>
        <pt x="247" y="1325" on="0"/>
        <pt x="352" y="1376" on="0"/>
        <pt x="451" y="1402" on="0"/>
        <pt x="531" y="1408" on="0"/>
        <pt x="550" y="1408" on="1"/>
        <pt x="584" y="1408" on="1"/>
        <pt x="603" y="1408" on="0"/>
        <pt x="683" y="1402" on="0"/>
        <pt x="781" y="1376" on="0"/>
        <pt x="886" y="1325" on="0"/>
        <pt x="971" y="1235" on="0"/>
        <pt x="1026" y="1100" on="0"/>
        <pt x="1026" y="1004" on="1"/>
        <pt x="1026" y="406" on="1"/>
        <pt x="1026" y="307" on="0"/>
        <pt x="971" y="169" on="0"/>
        <pt x="886" y="77" on="0"/>
        <pt x="781" y="24" on="0"/>
        <pt x="683" y="-2" on="0"/>
        <pt x="603" y="-8" on="0"/>
        <pt x="584" y="-8" on="1"/>
        <pt x="550" y="-8" on="1"/>
        <pt x="531" y="-8" on="0"/>
        <pt x="451" y="-2" on="0"/>
        <pt x="352" y="24" on="0"/>
        <pt x="247" y="77" on="0"/>
        <pt x="160" y="169" on="0"/>
        <pt x="104" y="307" on="0"/>
        <pt x="104" y="406" on="1"/>
      </contour>
      <contour>
        <pt x="436" y="368" on="1"/>
        <pt x="438" y="331" on="0"/>
        <pt x="453" y="303" on="1"/>
        <pt x="466" y="278" on="0"/>
        <pt x="519" y="238" on="0"/>
        <pt x="568" y="238" on="1"/>
        <pt x="616" y="238" on="0"/>
        <pt x="668" y="278" on="0"/>
        <pt x="681" y="303" on="1"/>
        <pt x="695" y="331" on="0"/>
        <pt x="698" y="368" on="1"/>
        <pt x="698" y="1020" on="1"/>
        <pt x="695" y="1056" on="0"/>
        <pt x="681" y="1085" on="1"/>
        <pt x="668" y="1109" on="0"/>
        <pt x="616" y="1150" on="0"/>
        <pt x="568" y="1150" on="1"/>
        <pt x="519" y="1150" on="0"/>
        <pt x="466" y="1109" on="0"/>
        <pt x="453" y="1085" on="1"/>
        <pt x="438" y="1056" on="0"/>
        <pt x="436" y="1020" on="1"/>
      </contour>
    </TTGlyph>
    <TTGlyph name="Ograve" xMin="104" yMin="-8" xMax="1026" yMax="1850">
      <contour>
        <pt x="742" y="1696" on="1"/>
        <pt x="756" y="1687" on="0"/>
        <pt x="786" y="1640" on="0"/>
        <pt x="786" y="1610" on="1"/>
        <pt x="786" y="1596" on="0"/>
        <pt x="776" y="1563" on="0"/>
        <pt x="764" y="1546" on="1"/>
        <pt x="744" y="1517" on="0"/>
        <pt x="697" y="1500" on="0"/>
        <pt x="670" y="1500" on="1"/>
        <pt x="655" y="1500" on="0"/>
        <pt x="624" y="1507" on="0"/>
        <pt x="610" y="1516" on="1"/>
        <pt x="390" y="1650" on="1"/>
        <pt x="370" y="1664" on="0"/>
        <pt x="340" y="1709" on="0"/>
        <pt x="340" y="1736" on="1"/>
        <pt x="340" y="1750" on="0"/>
        <pt x="350" y="1786" on="0"/>
        <pt x="362" y="1804" on="1"/>
        <pt x="382" y="1833" on="0"/>
        <pt x="436" y="1850" on="0"/>
        <pt x="462" y="1850" on="1"/>
        <pt x="491" y="1850" on="0"/>
        <pt x="518" y="1832" on="1"/>
      </contour>
      <contour>
        <pt x="104" y="1004" on="1"/>
        <pt x="104" y="1100" on="0"/>
        <pt x="160" y="1235" on="0"/>
        <pt x="247" y="1325" on="0"/>
        <pt x="352" y="1376" on="0"/>
        <pt x="451" y="1402" on="0"/>
        <pt x="531" y="1408" on="0"/>
        <pt x="550" y="1408" on="1"/>
        <pt x="584" y="1408" on="1"/>
        <pt x="603" y="1408" on="0"/>
        <pt x="683" y="1402" on="0"/>
        <pt x="781" y="1376" on="0"/>
        <pt x="886" y="1325" on="0"/>
        <pt x="971" y="1235" on="0"/>
        <pt x="1026" y="1100" on="0"/>
        <pt x="1026" y="1004" on="1"/>
        <pt x="1026" y="406" on="1"/>
        <pt x="1026" y="307" on="0"/>
        <pt x="971" y="169" on="0"/>
        <pt x="886" y="77" on="0"/>
        <pt x="781" y="24" on="0"/>
        <pt x="683" y="-2" on="0"/>
        <pt x="603" y="-8" on="0"/>
        <pt x="584" y="-8" on="1"/>
        <pt x="550" y="-8" on="1"/>
        <pt x="531" y="-8" on="0"/>
        <pt x="451" y="-2" on="0"/>
        <pt x="352" y="24" on="0"/>
        <pt x="247" y="77" on="0"/>
        <pt x="160" y="169" on="0"/>
        <pt x="104" y="307" on="0"/>
        <pt x="104" y="406" on="1"/>
      </contour>
      <contour>
        <pt x="436" y="368" on="1"/>
        <pt x="438" y="331" on="0"/>
        <pt x="453" y="303" on="1"/>
        <pt x="466" y="278" on="0"/>
        <pt x="519" y="238" on="0"/>
        <pt x="568" y="238" on="1"/>
        <pt x="616" y="238" on="0"/>
        <pt x="668" y="278" on="0"/>
        <pt x="681" y="303" on="1"/>
        <pt x="695" y="331" on="0"/>
        <pt x="698" y="368" on="1"/>
        <pt x="698" y="1020" on="1"/>
        <pt x="695" y="1056" on="0"/>
        <pt x="681" y="1085" on="1"/>
        <pt x="668" y="1109" on="0"/>
        <pt x="616" y="1150" on="0"/>
        <pt x="568" y="1150" on="1"/>
        <pt x="519" y="1150" on="0"/>
        <pt x="466" y="1109" on="0"/>
        <pt x="453" y="1085" on="1"/>
        <pt x="438" y="1056" on="0"/>
        <pt x="436" y="1020" on="1"/>
      </contour>
    </TTGlyph>
    <TTGlyph name="Oslash" xMin="104" yMin="0" xMax="1026" yMax="1400">
      <contour>
        <pt x="104" y="996" on="1"/>
        <pt x="104" y="1092" on="0"/>
        <pt x="160" y="1227" on="0"/>
        <pt x="247" y="1317" on="0"/>
        <pt x="352" y="1368" on="0"/>
        <pt x="451" y="1394" on="0"/>
        <pt x="531" y="1400" on="0"/>
        <pt x="550" y="1400" on="1"/>
        <pt x="584" y="1400" on="1"/>
        <pt x="603" y="1400" on="0"/>
        <pt x="683" y="1394" on="0"/>
        <pt x="781" y="1368" on="0"/>
        <pt x="886" y="1317" on="0"/>
        <pt x="971" y="1227" on="0"/>
        <pt x="1026" y="1092" on="0"/>
        <pt x="1026" y="996" on="1"/>
        <pt x="1026" y="414" on="1"/>
        <pt x="1026" y="315" on="0"/>
        <pt x="971" y="177" on="0"/>
        <pt x="886" y="85" on="0"/>
        <pt x="781" y="32" on="0"/>
        <pt x="683" y="6" on="0"/>
        <pt x="603" y="0" on="0"/>
        <pt x="584" y="0" on="1"/>
        <pt x="550" y="0" on="1"/>
        <pt x="531" y="0" on="0"/>
        <pt x="451" y="6" on="0"/>
        <pt x="352" y="32" on="0"/>
        <pt x="247" y="85" on="0"/>
        <pt x="160" y="177" on="0"/>
        <pt x="104" y="315" on="0"/>
        <pt x="104" y="414" on="1"/>
      </contour>
      <contour>
        <pt x="568" y="246" on="1"/>
        <pt x="616" y="246" on="0"/>
        <pt x="668" y="286" on="0"/>
        <pt x="680" y="311" on="1"/>
        <pt x="694" y="339" on="0"/>
        <pt x="696" y="376" on="1"/>
        <pt x="696" y="782" on="1"/>
        <pt x="442" y="344" on="1"/>
        <pt x="445" y="330" on="0"/>
        <pt x="460" y="296" on="0"/>
        <pt x="489" y="266" on="0"/>
        <pt x="534" y="246" on="0"/>
      </contour>
      <contour>
        <pt x="568" y="1142" on="1"/>
        <pt x="519" y="1142" on="0"/>
        <pt x="466" y="1101" on="0"/>
        <pt x="454" y="1077" on="1"/>
        <pt x="440" y="1048" on="0"/>
        <pt x="438" y="1012" on="1"/>
        <pt x="438" y="608" on="1"/>
        <pt x="692" y="1046" on="1"/>
        <pt x="688" y="1060" on="0"/>
        <pt x="673" y="1094" on="0"/>
        <pt x="645" y="1123" on="0"/>
        <pt x="601" y="1142" on="0"/>
      </contour>
    </TTGlyph>
    <TTGlyph name="Otilde" xMin="104" yMin="-8" xMax="1026" yMax="1814">
      <contour>
        <pt x="510" y="1574" on="1"/>
        <pt x="490" y="1585" on="0"/>
        <pt x="460" y="1596" on="0"/>
        <pt x="448" y="1596" on="1"/>
        <pt x="430" y="1596" on="0"/>
        <pt x="394" y="1571" on="0"/>
        <pt x="368" y="1544" on="1"/>
        <pt x="353" y="1527" on="0"/>
        <pt x="319" y="1506" on="0"/>
        <pt x="304" y="1506" on="1"/>
        <pt x="286" y="1506" on="0"/>
        <pt x="237" y="1529" on="0"/>
        <pt x="222" y="1550" on="1"/>
        <pt x="200" y="1575" on="0"/>
        <pt x="200" y="1602" on="1"/>
        <pt x="200" y="1623" on="0"/>
        <pt x="228" y="1672" on="0"/>
        <pt x="260" y="1702" on="1"/>
        <pt x="334" y="1768" on="1"/>
        <pt x="358" y="1789" on="0"/>
        <pt x="407" y="1814" on="0"/>
        <pt x="436" y="1814" on="1"/>
        <pt x="457" y="1814" on="0"/>
        <pt x="498" y="1798" on="0"/>
        <pt x="522" y="1786" on="1"/>
        <pt x="565" y="1764" on="0"/>
        <pt x="618" y="1738" on="0"/>
        <pt x="648" y="1724" on="0"/>
        <pt x="660" y="1720" on="0"/>
        <pt x="664" y="1720" on="1"/>
        <pt x="679" y="1720" on="0"/>
        <pt x="710" y="1740" on="0"/>
        <pt x="728" y="1760" on="1"/>
        <pt x="745" y="1775" on="0"/>
        <pt x="781" y="1796" on="0"/>
        <pt x="802" y="1796" on="1"/>
        <pt x="816" y="1794" on="0"/>
        <pt x="843" y="1781" on="0"/>
        <pt x="860" y="1764" on="1"/>
        <pt x="878" y="1746" on="0"/>
        <pt x="890" y="1712" on="0"/>
        <pt x="890" y="1694" on="1"/>
        <pt x="888" y="1682" on="0"/>
        <pt x="874" y="1656" on="0"/>
        <pt x="855" y="1631" on="0"/>
        <pt x="834" y="1609" on="0"/>
        <pt x="826" y="1602" on="1"/>
        <pt x="791" y="1566" on="0"/>
        <pt x="743" y="1525" on="0"/>
        <pt x="710" y="1505" on="0"/>
        <pt x="688" y="1500" on="0"/>
        <pt x="678" y="1500" on="1"/>
        <pt x="670" y="1500" on="0"/>
        <pt x="651" y="1503" on="0"/>
        <pt x="615" y="1518" on="0"/>
        <pt x="557" y="1548" on="0"/>
      </contour>
      <contour>
        <pt x="104" y="1004" on="1"/>
        <pt x="104" y="1100" on="0"/>
        <pt x="160" y="1235" on="0"/>
        <pt x="247" y="1325" on="0"/>
        <pt x="352" y="1376" on="0"/>
        <pt x="451" y="1402" on="0"/>
        <pt x="531" y="1408" on="0"/>
        <pt x="550" y="1408" on="1"/>
        <pt x="584" y="1408" on="1"/>
        <pt x="603" y="1408" on="0"/>
        <pt x="683" y="1402" on="0"/>
        <pt x="781" y="1376" on="0"/>
        <pt x="886" y="1325" on="0"/>
        <pt x="971" y="1235" on="0"/>
        <pt x="1026" y="1100" on="0"/>
        <pt x="1026" y="1004" on="1"/>
        <pt x="1026" y="406" on="1"/>
        <pt x="1026" y="307" on="0"/>
        <pt x="971" y="169" on="0"/>
        <pt x="886" y="77" on="0"/>
        <pt x="781" y="24" on="0"/>
        <pt x="683" y="-2" on="0"/>
        <pt x="603" y="-8" on="0"/>
        <pt x="584" y="-8" on="1"/>
        <pt x="550" y="-8" on="1"/>
        <pt x="531" y="-8" on="0"/>
        <pt x="451" y="-2" on="0"/>
        <pt x="352" y="24" on="0"/>
        <pt x="247" y="77" on="0"/>
        <pt x="160" y="169" on="0"/>
        <pt x="104" y="307" on="0"/>
        <pt x="104" y="406" on="1"/>
      </contour>
      <contour>
        <pt x="436" y="368" on="1"/>
        <pt x="438" y="331" on="0"/>
        <pt x="453" y="303" on="1"/>
        <pt x="466" y="278" on="0"/>
        <pt x="519" y="238" on="0"/>
        <pt x="568" y="238" on="1"/>
        <pt x="616" y="238" on="0"/>
        <pt x="668" y="278" on="0"/>
        <pt x="681" y="303" on="1"/>
        <pt x="695" y="331" on="0"/>
        <pt x="698" y="368" on="1"/>
        <pt x="698" y="1020" on="1"/>
        <pt x="695" y="1056" on="0"/>
        <pt x="681" y="1085" on="1"/>
        <pt x="668" y="1109" on="0"/>
        <pt x="616" y="1150" on="0"/>
        <pt x="568" y="1150" on="1"/>
        <pt x="519" y="1150" on="0"/>
        <pt x="466" y="1109" on="0"/>
        <pt x="453" y="1085" on="1"/>
        <pt x="438" y="1056" on="0"/>
        <pt x="436" y="1020" on="1"/>
      </contour>
    </TTGlyph>
    <TTGlyph name="P" xMin="142" yMin="0" xMax="1066" yMax="1400">
      <contour>
        <pt x="446" y="552" on="1"/>
        <pt x="446" y="228" on="1"/>
        <pt x="446" y="185" on="0"/>
        <pt x="441" y="103" on="0"/>
        <pt x="412" y="39" on="0"/>
        <pt x="350" y="0" on="0"/>
        <pt x="292" y="0" on="1"/>
        <pt x="236" y="0" on="0"/>
        <pt x="175" y="39" on="0"/>
        <pt x="147" y="103" on="0"/>
        <pt x="142" y="185" on="0"/>
        <pt x="142" y="228" on="1"/>
        <pt x="142" y="1172" on="1"/>
        <pt x="142" y="1215" on="0"/>
        <pt x="147" y="1297" on="0"/>
        <pt x="175" y="1361" on="0"/>
        <pt x="236" y="1400" on="0"/>
        <pt x="292" y="1400" on="1"/>
        <pt x="622" y="1400" on="1"/>
        <pt x="746" y="1394" on="0"/>
        <pt x="844" y="1348" on="1"/>
        <pt x="886" y="1328" on="0"/>
        <pt x="965" y="1268" on="0"/>
        <pt x="1028" y="1181" on="0"/>
        <pt x="1066" y="1062" on="0"/>
        <pt x="1066" y="984" on="1"/>
        <pt x="1066" y="877" on="0"/>
        <pt x="999" y="716" on="0"/>
        <pt x="872" y="607" on="0"/>
        <pt x="689" y="552" on="0"/>
        <pt x="574" y="552" on="1"/>
      </contour>
      <contour>
        <pt x="582" y="790" on="1"/>
        <pt x="632" y="793" on="0"/>
        <pt x="672" y="814" on="1"/>
        <pt x="689" y="823" on="0"/>
        <pt x="721" y="851" on="0"/>
        <pt x="747" y="892" on="0"/>
        <pt x="762" y="948" on="0"/>
        <pt x="762" y="984" on="1"/>
        <pt x="762" y="1018" on="0"/>
        <pt x="747" y="1069" on="0"/>
        <pt x="723" y="1106" on="0"/>
        <pt x="693" y="1132" on="0"/>
        <pt x="677" y="1141" on="1"/>
        <pt x="639" y="1160" on="0"/>
        <pt x="592" y="1164" on="1"/>
        <pt x="446" y="1164" on="1"/>
        <pt x="446" y="790" on="1"/>
      </contour>
    </TTGlyph>
    <TTGlyph name="Q" xMin="122" yMin="-110" xMax="1114" yMax="1408">
      <contour>
        <pt x="122" y="1002" on="1"/>
        <pt x="122" y="1099" on="0"/>
        <pt x="178" y="1235" on="0"/>
        <pt x="265" y="1326" on="0"/>
        <pt x="370" y="1377" on="0"/>
        <pt x="469" y="1402" on="0"/>
        <pt x="549" y="1408" on="0"/>
        <pt x="568" y="1408" on="1"/>
        <pt x="602" y="1408" on="1"/>
        <pt x="621" y="1408" on="0"/>
        <pt x="700" y="1402" on="0"/>
        <pt x="799" y="1377" on="0"/>
        <pt x="903" y="1326" on="0"/>
        <pt x="989" y="1235" on="0"/>
        <pt x="1044" y="1099" on="0"/>
        <pt x="1044" y="1002" on="1"/>
        <pt x="1044" y="406" on="1"/>
        <pt x="1044" y="331" on="0"/>
        <pt x="1009" y="213" on="0"/>
        <pt x="980" y="166" on="1"/>
        <pt x="1080" y="76" on="1"/>
        <pt x="1094" y="62" on="0"/>
        <pt x="1114" y="31" on="0"/>
        <pt x="1114" y="-4" on="1"/>
        <pt x="1114" y="-19" on="0"/>
        <pt x="1100" y="-60" on="0"/>
        <pt x="1080" y="-80" on="1"/>
        <pt x="1060" y="-98" on="0"/>
        <pt x="1021" y="-110" on="0"/>
        <pt x="1004" y="-110" on="1"/>
        <pt x="969" y="-110" on="0"/>
        <pt x="933" y="-91" on="0"/>
        <pt x="922" y="-80" on="1"/>
        <pt x="810" y="26" on="1"/>
        <pt x="772" y="13" on="0"/>
        <pt x="707" y="-1" on="0"/>
        <pt x="654" y="-7" on="0"/>
        <pt x="614" y="-8" on="0"/>
        <pt x="602" y="-8" on="1"/>
        <pt x="568" y="-8" on="1"/>
        <pt x="549" y="-8" on="0"/>
        <pt x="469" y="-2" on="0"/>
        <pt x="370" y="24" on="0"/>
        <pt x="265" y="77" on="0"/>
        <pt x="178" y="169" on="0"/>
        <pt x="122" y="307" on="0"/>
        <pt x="122" y="406" on="1"/>
      </contour>
      <contour>
        <pt x="454" y="368" on="1"/>
        <pt x="456" y="331" on="0"/>
        <pt x="471" y="303" on="1"/>
        <pt x="484" y="278" on="0"/>
        <pt x="537" y="238" on="0"/>
        <pt x="586" y="238" on="1"/>
        <pt x="634" y="238" on="0"/>
        <pt x="686" y="278" on="0"/>
        <pt x="699" y="303" on="1"/>
        <pt x="713" y="331" on="0"/>
        <pt x="716" y="368" on="1"/>
        <pt x="716" y="1020" on="1"/>
        <pt x="713" y="1056" on="0"/>
        <pt x="699" y="1084" on="1"/>
        <pt x="686" y="1108" on="0"/>
        <pt x="634" y="1148" on="0"/>
        <pt x="586" y="1148" on="1"/>
        <pt x="537" y="1148" on="0"/>
        <pt x="484" y="1108" on="0"/>
        <pt x="471" y="1084" on="1"/>
        <pt x="456" y="1056" on="0"/>
        <pt x="454" y="1020" on="1"/>
      </contour>
    </TTGlyph>
    <TTGlyph name="R" xMin="142" yMin="-8" xMax="1062" yMax="1400">
      <contour>
        <pt x="142" y="1172" on="1"/>
        <pt x="142" y="1215" on="0"/>
        <pt x="147" y="1297" on="0"/>
        <pt x="175" y="1361" on="0"/>
        <pt x="236" y="1400" on="0"/>
        <pt x="292" y="1400" on="1"/>
        <pt x="622" y="1400" on="1"/>
        <pt x="745" y="1394" on="0"/>
        <pt x="842" y="1348" on="1"/>
        <pt x="883" y="1328" on="0"/>
        <pt x="962" y="1269" on="0"/>
        <pt x="1024" y="1182" on="0"/>
        <pt x="1062" y="1064" on="0"/>
        <pt x="1062" y="986" on="1"/>
        <pt x="1062" y="970" on="0"/>
        <pt x="1056" y="917" on="0"/>
        <pt x="1036" y="854" on="0"/>
        <pt x="1002" y="786" on="0"/>
        <pt x="946" y="724" on="0"/>
        <pt x="865" y="672" on="0"/>
        <pt x="810" y="656" on="1"/>
        <pt x="845" y="642" on="0"/>
        <pt x="917" y="597" on="0"/>
        <pt x="975" y="527" on="0"/>
        <pt x="1012" y="429" on="0"/>
        <pt x="1012" y="364" on="1"/>
        <pt x="1012" y="222" on="1"/>
        <pt x="1012" y="210" on="0"/>
        <pt x="1024" y="194" on="0"/>
        <pt x="1030" y="188" on="1"/>
        <pt x="1054" y="164" on="0"/>
        <pt x="1062" y="129" on="0"/>
        <pt x="1062" y="118" on="1"/>
        <pt x="1062" y="83" on="0"/>
        <pt x="1034" y="35" on="0"/>
        <pt x="989" y="5" on="0"/>
        <pt x="932" y="-8" on="0"/>
        <pt x="902" y="-8" on="1"/>
        <pt x="869" y="-8" on="0"/>
        <pt x="801" y="13" on="0"/>
        <pt x="745" y="53" on="0"/>
        <pt x="710" y="113" on="0"/>
        <pt x="710" y="152" on="1"/>
        <pt x="710" y="364" on="1"/>
        <pt x="710" y="408" on="0"/>
        <pt x="698" y="482" on="0"/>
        <pt x="664" y="536" on="0"/>
        <pt x="604" y="566" on="0"/>
        <pt x="556" y="566" on="1"/>
        <pt x="444" y="566" on="1"/>
        <pt x="444" y="232" on="1"/>
        <pt x="444" y="188" on="0"/>
        <pt x="439" y="104" on="0"/>
        <pt x="411" y="39" on="0"/>
        <pt x="349" y="0" on="0"/>
        <pt x="292" y="0" on="1"/>
        <pt x="236" y="0" on="0"/>
        <pt x="175" y="39" on="0"/>
        <pt x="147" y="104" on="0"/>
        <pt x="142" y="188" on="0"/>
        <pt x="142" y="232" on="1"/>
      </contour>
      <contour>
        <pt x="580" y="790" on="1"/>
        <pt x="630" y="792" on="0"/>
        <pt x="670" y="814" on="1"/>
        <pt x="687" y="823" on="0"/>
        <pt x="719" y="851" on="0"/>
        <pt x="745" y="893" on="0"/>
        <pt x="760" y="949" on="0"/>
        <pt x="760" y="986" on="1"/>
        <pt x="760" y="1019" on="0"/>
        <pt x="745" y="1070" on="0"/>
        <pt x="721" y="1108" on="0"/>
        <pt x="690" y="1134" on="0"/>
        <pt x="674" y="1142" on="1"/>
        <pt x="636" y="1161" on="0"/>
        <pt x="588" y="1164" on="1"/>
        <pt x="444" y="1164" on="1"/>
        <pt x="444" y="790" on="1"/>
      </contour>
    </TTGlyph>
    <TTGlyph name="S" xMin="88" yMin="-8" xMax="950" yMax="1408">
      <contour>
        <pt x="398" y="1048" on="1"/>
        <pt x="399" y="1006" on="0"/>
        <pt x="446" y="939" on="0"/>
        <pt x="523" y="879" on="0"/>
        <pt x="621" y="822" on="0"/>
        <pt x="724" y="759" on="0"/>
        <pt x="822" y="685" on="0"/>
        <pt x="900" y="591" on="0"/>
        <pt x="948" y="473" on="0"/>
        <pt x="950" y="398" on="1"/>
        <pt x="950" y="390" on="1"/>
        <pt x="950" y="308" on="0"/>
        <pt x="910" y="186" on="0"/>
        <pt x="844" y="98" on="0"/>
        <pt x="756" y="41" on="0"/>
        <pt x="659" y="7" on="0"/>
        <pt x="560" y="-7" on="0"/>
        <pt x="516" y="-8" on="1"/>
        <pt x="506" y="-8" on="1"/>
        <pt x="421" y="-8" on="0"/>
        <pt x="293" y="26" on="0"/>
        <pt x="201" y="83" on="0"/>
        <pt x="140" y="157" on="0"/>
        <pt x="104" y="236" on="0"/>
        <pt x="88" y="314" on="0"/>
        <pt x="88" y="348" on="1"/>
        <pt x="88" y="383" on="0"/>
        <pt x="112" y="435" on="0"/>
        <pt x="151" y="468" on="0"/>
        <pt x="202" y="484" on="0"/>
        <pt x="230" y="484" on="1"/>
        <pt x="256" y="484" on="0"/>
        <pt x="311" y="468" on="0"/>
        <pt x="356" y="435" on="0"/>
        <pt x="385" y="384" on="0"/>
        <pt x="386" y="350" on="1"/>
        <pt x="388" y="275" on="0"/>
        <pt x="452" y="220" on="0"/>
        <pt x="512" y="220" on="1"/>
        <pt x="542" y="221" on="0"/>
        <pt x="593" y="234" on="0"/>
        <pt x="629" y="267" on="0"/>
        <pt x="650" y="322" on="0"/>
        <pt x="650" y="364" on="1"/>
        <pt x="650" y="416" on="0"/>
        <pt x="603" y="500" on="0"/>
        <pt x="527" y="572" on="0"/>
        <pt x="429" y="637" on="0"/>
        <pt x="327" y="702" on="0"/>
        <pt x="230" y="773" on="0"/>
        <pt x="152" y="857" on="0"/>
        <pt x="105" y="959" on="0"/>
        <pt x="104" y="1024" on="1"/>
        <pt x="104" y="1040" on="1"/>
        <pt x="105" y="1147" on="0"/>
        <pt x="160" y="1289" on="0"/>
        <pt x="267" y="1373" on="0"/>
        <pt x="423" y="1408" on="0"/>
        <pt x="524" y="1408" on="1"/>
        <pt x="550" y="1408" on="1"/>
        <pt x="642" y="1408" on="0"/>
        <pt x="770" y="1368" on="0"/>
        <pt x="855" y="1306" on="0"/>
        <pt x="904" y="1228" on="0"/>
        <pt x="928" y="1152" on="0"/>
        <pt x="934" y="1086" on="0"/>
        <pt x="934" y="1066" on="1"/>
        <pt x="934" y="1036" on="0"/>
        <pt x="911" y="987" on="0"/>
        <pt x="872" y="953" on="0"/>
        <pt x="819" y="934" on="0"/>
        <pt x="788" y="934" on="1"/>
        <pt x="764" y="934" on="0"/>
        <pt x="716" y="953" on="0"/>
        <pt x="678" y="983" on="0"/>
        <pt x="654" y="1022" on="0"/>
        <pt x="654" y="1042" on="1"/>
        <pt x="654" y="1124" on="0"/>
        <pt x="595" y="1188" on="0"/>
        <pt x="538" y="1188" on="1"/>
        <pt x="511" y="1188" on="0"/>
        <pt x="460" y="1182" on="0"/>
        <pt x="421" y="1155" on="0"/>
        <pt x="398" y="1099" on="0"/>
      </contour>
    </TTGlyph>
    <TTGlyph name="Scaron" xMin="88" yMin="-8" xMax="950" yMax="1892">
      <contour>
        <pt x="626" y="1532" on="1"/>
        <pt x="595" y="1501" on="0"/>
        <pt x="550" y="1498" on="1"/>
        <pt x="530" y="1498" on="1"/>
        <pt x="506" y="1500" on="0"/>
        <pt x="469" y="1517" on="0"/>
        <pt x="454" y="1532" on="1"/>
        <pt x="264" y="1712" on="1"/>
        <pt x="253" y="1723" on="0"/>
        <pt x="236" y="1760" on="0"/>
        <pt x="236" y="1784" on="1"/>
        <pt x="236" y="1810" on="0"/>
        <pt x="259" y="1848" on="0"/>
        <pt x="274" y="1862" on="1"/>
        <pt x="292" y="1879" on="0"/>
        <pt x="326" y="1892" on="0"/>
        <pt x="344" y="1892" on="1"/>
        <pt x="368" y="1892" on="0"/>
        <pt x="416" y="1877" on="0"/>
        <pt x="430" y="1860" on="1"/>
        <pt x="540" y="1756" on="1"/>
        <pt x="650" y="1860" on="1"/>
        <pt x="664" y="1877" on="0"/>
        <pt x="712" y="1892" on="0"/>
        <pt x="736" y="1892" on="1"/>
        <pt x="754" y="1892" on="0"/>
        <pt x="788" y="1879" on="0"/>
        <pt x="806" y="1862" on="1"/>
        <pt x="821" y="1848" on="0"/>
        <pt x="844" y="1810" on="0"/>
        <pt x="844" y="1784" on="1"/>
        <pt x="844" y="1760" on="0"/>
        <pt x="827" y="1723" on="0"/>
        <pt x="816" y="1712" on="1"/>
      </contour>
      <contour>
        <pt x="398" y="1048" on="1"/>
        <pt x="399" y="1006" on="0"/>
        <pt x="446" y="939" on="0"/>
        <pt x="523" y="879" on="0"/>
        <pt x="621" y="822" on="0"/>
        <pt x="724" y="759" on="0"/>
        <pt x="822" y="685" on="0"/>
        <pt x="900" y="591" on="0"/>
        <pt x="948" y="473" on="0"/>
        <pt x="950" y="398" on="1"/>
        <pt x="950" y="390" on="1"/>
        <pt x="950" y="308" on="0"/>
        <pt x="910" y="186" on="0"/>
        <pt x="844" y="98" on="0"/>
        <pt x="756" y="41" on="0"/>
        <pt x="659" y="7" on="0"/>
        <pt x="560" y="-7" on="0"/>
        <pt x="516" y="-8" on="1"/>
        <pt x="506" y="-8" on="1"/>
        <pt x="421" y="-8" on="0"/>
        <pt x="293" y="26" on="0"/>
        <pt x="201" y="83" on="0"/>
        <pt x="140" y="157" on="0"/>
        <pt x="104" y="236" on="0"/>
        <pt x="88" y="314" on="0"/>
        <pt x="88" y="348" on="1"/>
        <pt x="88" y="383" on="0"/>
        <pt x="112" y="435" on="0"/>
        <pt x="151" y="468" on="0"/>
        <pt x="202" y="484" on="0"/>
        <pt x="230" y="484" on="1"/>
        <pt x="256" y="484" on="0"/>
        <pt x="311" y="468" on="0"/>
        <pt x="356" y="435" on="0"/>
        <pt x="385" y="384" on="0"/>
        <pt x="386" y="350" on="1"/>
        <pt x="388" y="275" on="0"/>
        <pt x="452" y="220" on="0"/>
        <pt x="512" y="220" on="1"/>
        <pt x="542" y="221" on="0"/>
        <pt x="593" y="234" on="0"/>
        <pt x="629" y="267" on="0"/>
        <pt x="650" y="322" on="0"/>
        <pt x="650" y="364" on="1"/>
        <pt x="650" y="416" on="0"/>
        <pt x="603" y="500" on="0"/>
        <pt x="527" y="572" on="0"/>
        <pt x="429" y="637" on="0"/>
        <pt x="327" y="702" on="0"/>
        <pt x="230" y="773" on="0"/>
        <pt x="152" y="857" on="0"/>
        <pt x="105" y="959" on="0"/>
        <pt x="104" y="1024" on="1"/>
        <pt x="104" y="1040" on="1"/>
        <pt x="105" y="1147" on="0"/>
        <pt x="160" y="1289" on="0"/>
        <pt x="267" y="1373" on="0"/>
        <pt x="423" y="1408" on="0"/>
        <pt x="524" y="1408" on="1"/>
        <pt x="550" y="1408" on="1"/>
        <pt x="642" y="1408" on="0"/>
        <pt x="770" y="1368" on="0"/>
        <pt x="855" y="1306" on="0"/>
        <pt x="904" y="1228" on="0"/>
        <pt x="928" y="1152" on="0"/>
        <pt x="934" y="1086" on="0"/>
        <pt x="934" y="1066" on="1"/>
        <pt x="934" y="1036" on="0"/>
        <pt x="911" y="987" on="0"/>
        <pt x="872" y="953" on="0"/>
        <pt x="819" y="934" on="0"/>
        <pt x="788" y="934" on="1"/>
        <pt x="764" y="934" on="0"/>
        <pt x="716" y="953" on="0"/>
        <pt x="678" y="983" on="0"/>
        <pt x="654" y="1022" on="0"/>
        <pt x="654" y="1042" on="1"/>
        <pt x="654" y="1124" on="0"/>
        <pt x="595" y="1188" on="0"/>
        <pt x="538" y="1188" on="1"/>
        <pt x="511" y="1188" on="0"/>
        <pt x="460" y="1182" on="0"/>
        <pt x="421" y="1155" on="0"/>
        <pt x="398" y="1099" on="0"/>
      </contour>
    </TTGlyph>
    <TTGlyph name="T" xMin="10" yMin="0" xMax="974" yMax="1400">
      <contour>
        <pt x="746" y="1400" on="1"/>
        <pt x="786" y="1400" on="0"/>
        <pt x="867" y="1394" on="0"/>
        <pt x="933" y="1366" on="0"/>
        <pt x="974" y="1309" on="0"/>
        <pt x="974" y="1258" on="1"/>
        <pt x="974" y="1208" on="0"/>
        <pt x="933" y="1151" on="0"/>
        <pt x="867" y="1123" on="0"/>
        <pt x="786" y="1116" on="0"/>
        <pt x="746" y="1116" on="1"/>
        <pt x="644" y="1116" on="1"/>
        <pt x="644" y="228" on="1"/>
        <pt x="644" y="185" on="0"/>
        <pt x="639" y="103" on="0"/>
        <pt x="611" y="39" on="0"/>
        <pt x="549" y="0" on="0"/>
        <pt x="492" y="0" on="1"/>
        <pt x="435" y="0" on="0"/>
        <pt x="373" y="39" on="0"/>
        <pt x="345" y="103" on="0"/>
        <pt x="340" y="185" on="0"/>
        <pt x="340" y="228" on="1"/>
        <pt x="340" y="1116" on="1"/>
        <pt x="238" y="1116" on="1"/>
        <pt x="198" y="1116" on="0"/>
        <pt x="117" y="1123" on="0"/>
        <pt x="51" y="1151" on="0"/>
        <pt x="10" y="1208" on="0"/>
        <pt x="10" y="1258" on="1"/>
        <pt x="10" y="1309" on="0"/>
        <pt x="51" y="1366" on="0"/>
        <pt x="117" y="1394" on="0"/>
        <pt x="198" y="1400" on="0"/>
        <pt x="238" y="1400" on="1"/>
      </contour>
    </TTGlyph>
    <TTGlyph name="Thorn" xMin="180" yMin="0" xMax="1008" yMax="1400">
      <contour>
        <pt x="180" y="1172" on="1"/>
        <pt x="180" y="1215" on="0"/>
        <pt x="189" y="1298" on="0"/>
        <pt x="220" y="1361" on="0"/>
        <pt x="280" y="1400" on="0"/>
        <pt x="330" y="1400" on="1"/>
        <pt x="382" y="1400" on="0"/>
        <pt x="444" y="1361" on="0"/>
        <pt x="475" y="1298" on="0"/>
        <pt x="484" y="1215" on="0"/>
        <pt x="484" y="1172" on="1"/>
        <pt x="484" y="1030" on="1"/>
        <pt x="493" y="1060" on="0"/>
        <pt x="526" y="1120" on="0"/>
        <pt x="578" y="1168" on="0"/>
        <pt x="651" y="1198" on="0"/>
        <pt x="700" y="1198" on="1"/>
        <pt x="755" y="1198" on="0"/>
        <pt x="865" y="1162" on="0"/>
        <pt x="953" y="1079" on="0"/>
        <pt x="1008" y="944" on="0"/>
        <pt x="1008" y="844" on="1"/>
        <pt x="1008" y="554" on="1"/>
        <pt x="1008" y="455" on="0"/>
        <pt x="953" y="320" on="0"/>
        <pt x="865" y="236" on="0"/>
        <pt x="755" y="200" on="0"/>
        <pt x="700" y="200" on="1"/>
        <pt x="651" y="200" on="0"/>
        <pt x="578" y="231" on="0"/>
        <pt x="526" y="279" on="0"/>
        <pt x="493" y="339" on="0"/>
        <pt x="484" y="368" on="1"/>
        <pt x="484" y="228" on="1"/>
        <pt x="484" y="184" on="0"/>
        <pt x="475" y="102" on="0"/>
        <pt x="444" y="39" on="0"/>
        <pt x="384" y="0" on="0"/>
        <pt x="334" y="0" on="1"/>
        <pt x="281" y="0" on="0"/>
        <pt x="220" y="39" on="0"/>
        <pt x="189" y="102" on="0"/>
        <pt x="180" y="184" on="0"/>
        <pt x="180" y="228" on="1"/>
      </contour>
      <contour>
        <pt x="700" y="822" on="1"/>
        <pt x="700" y="848" on="0"/>
        <pt x="696" y="899" on="0"/>
        <pt x="678" y="939" on="0"/>
        <pt x="643" y="964" on="0"/>
        <pt x="612" y="964" on="1"/>
        <pt x="573" y="964" on="0"/>
        <pt x="523" y="914" on="0"/>
        <pt x="495" y="842" on="0"/>
        <pt x="484" y="761" on="0"/>
        <pt x="484" y="730" on="1"/>
        <pt x="485" y="653" on="0"/>
        <pt x="496" y="542" on="0"/>
        <pt x="524" y="469" on="0"/>
        <pt x="573" y="434" on="0"/>
        <pt x="612" y="434" on="1"/>
        <pt x="643" y="434" on="0"/>
        <pt x="678" y="459" on="0"/>
        <pt x="696" y="501" on="0"/>
        <pt x="700" y="553" on="0"/>
        <pt x="700" y="580" on="1"/>
      </contour>
    </TTGlyph>
    <TTGlyph name="U" xMin="142" yMin="-8" xMax="1070" yMax="1400">
      <contour>
        <pt x="142" y="1172" on="1"/>
        <pt x="142" y="1215" on="0"/>
        <pt x="151" y="1297" on="0"/>
        <pt x="184" y="1361" on="0"/>
        <pt x="250" y="1400" on="0"/>
        <pt x="308" y="1400" on="1"/>
        <pt x="366" y="1400" on="0"/>
        <pt x="433" y="1361" on="0"/>
        <pt x="466" y="1297" on="0"/>
        <pt x="474" y="1215" on="0"/>
        <pt x="474" y="1172" on="1"/>
        <pt x="474" y="384" on="1"/>
        <pt x="477" y="340" on="0"/>
        <pt x="492" y="306" on="1"/>
        <pt x="498" y="291" on="0"/>
        <pt x="518" y="263" on="0"/>
        <pt x="545" y="241" on="0"/>
        <pt x="582" y="228" on="0"/>
        <pt x="606" y="228" on="1"/>
        <pt x="630" y="228" on="0"/>
        <pt x="668" y="241" on="0"/>
        <pt x="695" y="263" on="0"/>
        <pt x="715" y="291" on="0"/>
        <pt x="721" y="306" on="1"/>
        <pt x="736" y="340" on="0"/>
        <pt x="738" y="384" on="1"/>
        <pt x="738" y="1172" on="1"/>
        <pt x="738" y="1215" on="0"/>
        <pt x="746" y="1297" on="0"/>
        <pt x="779" y="1361" on="0"/>
        <pt x="845" y="1400" on="0"/>
        <pt x="904" y="1400" on="1"/>
        <pt x="962" y="1400" on="0"/>
        <pt x="1028" y="1361" on="0"/>
        <pt x="1061" y="1297" on="0"/>
        <pt x="1070" y="1215" on="0"/>
        <pt x="1070" y="1172" on="1"/>
        <pt x="1070" y="410" on="1"/>
        <pt x="1070" y="306" on="0"/>
        <pt x="1003" y="150" on="0"/>
        <pt x="880" y="45" on="0"/>
        <pt x="709" y="-8" on="0"/>
        <pt x="606" y="-8" on="1"/>
        <pt x="502" y="-8" on="0"/>
        <pt x="332" y="47" on="0"/>
        <pt x="209" y="153" on="0"/>
        <pt x="142" y="309" on="0"/>
        <pt x="142" y="410" on="1"/>
      </contour>
    </TTGlyph>
    <TTGlyph name="Uacute" xMin="142" yMin="-8" xMax="1070" yMax="1850">
      <contour>
        <pt x="710" y="1832" on="1"/>
        <pt x="737" y="1850" on="0"/>
        <pt x="766" y="1850" on="1"/>
        <pt x="792" y="1850" on="0"/>
        <pt x="846" y="1833" on="0"/>
        <pt x="866" y="1804" on="1"/>
        <pt x="878" y="1786" on="0"/>
        <pt x="888" y="1750" on="0"/>
        <pt x="888" y="1736" on="1"/>
        <pt x="888" y="1709" on="0"/>
        <pt x="858" y="1664" on="0"/>
        <pt x="838" y="1650" on="1"/>
        <pt x="618" y="1516" on="1"/>
        <pt x="604" y="1507" on="0"/>
        <pt x="573" y="1500" on="0"/>
        <pt x="558" y="1500" on="1"/>
        <pt x="531" y="1500" on="0"/>
        <pt x="484" y="1517" on="0"/>
        <pt x="464" y="1546" on="1"/>
        <pt x="452" y="1563" on="0"/>
        <pt x="442" y="1596" on="0"/>
        <pt x="442" y="1610" on="1"/>
        <pt x="442" y="1640" on="0"/>
        <pt x="472" y="1687" on="0"/>
        <pt x="486" y="1696" on="1"/>
      </contour>
      <contour>
        <pt x="142" y="1172" on="1"/>
        <pt x="142" y="1215" on="0"/>
        <pt x="151" y="1297" on="0"/>
        <pt x="184" y="1361" on="0"/>
        <pt x="250" y="1400" on="0"/>
        <pt x="308" y="1400" on="1"/>
        <pt x="366" y="1400" on="0"/>
        <pt x="433" y="1361" on="0"/>
        <pt x="466" y="1297" on="0"/>
        <pt x="474" y="1215" on="0"/>
        <pt x="474" y="1172" on="1"/>
        <pt x="474" y="384" on="1"/>
        <pt x="477" y="340" on="0"/>
        <pt x="492" y="306" on="1"/>
        <pt x="498" y="291" on="0"/>
        <pt x="518" y="263" on="0"/>
        <pt x="545" y="241" on="0"/>
        <pt x="582" y="228" on="0"/>
        <pt x="606" y="228" on="1"/>
        <pt x="630" y="228" on="0"/>
        <pt x="668" y="241" on="0"/>
        <pt x="695" y="263" on="0"/>
        <pt x="715" y="291" on="0"/>
        <pt x="721" y="306" on="1"/>
        <pt x="736" y="340" on="0"/>
        <pt x="738" y="384" on="1"/>
        <pt x="738" y="1172" on="1"/>
        <pt x="738" y="1215" on="0"/>
        <pt x="746" y="1297" on="0"/>
        <pt x="779" y="1361" on="0"/>
        <pt x="845" y="1400" on="0"/>
        <pt x="904" y="1400" on="1"/>
        <pt x="962" y="1400" on="0"/>
        <pt x="1028" y="1361" on="0"/>
        <pt x="1061" y="1297" on="0"/>
        <pt x="1070" y="1215" on="0"/>
        <pt x="1070" y="1172" on="1"/>
        <pt x="1070" y="410" on="1"/>
        <pt x="1070" y="306" on="0"/>
        <pt x="1003" y="150" on="0"/>
        <pt x="880" y="45" on="0"/>
        <pt x="709" y="-8" on="0"/>
        <pt x="606" y="-8" on="1"/>
        <pt x="502" y="-8" on="0"/>
        <pt x="332" y="47" on="0"/>
        <pt x="209" y="153" on="0"/>
        <pt x="142" y="309" on="0"/>
        <pt x="142" y="410" on="1"/>
      </contour>
    </TTGlyph>
    <TTGlyph name="Ucircumflex" xMin="142" yMin="-8" xMax="1070" yMax="1894">
      <contour>
        <pt x="884" y="1680" on="1"/>
        <pt x="895" y="1669" on="0"/>
        <pt x="912" y="1632" on="0"/>
        <pt x="912" y="1608" on="1"/>
        <pt x="912" y="1582" on="0"/>
        <pt x="889" y="1544" on="0"/>
        <pt x="874" y="1530" on="1"/>
        <pt x="856" y="1513" on="0"/>
        <pt x="822" y="1500" on="0"/>
        <pt x="804" y="1500" on="1"/>
        <pt x="780" y="1500" on="0"/>
        <pt x="732" y="1515" on="0"/>
        <pt x="718" y="1532" on="1"/>
        <pt x="608" y="1636" on="1"/>
        <pt x="498" y="1532" on="1"/>
        <pt x="484" y="1515" on="0"/>
        <pt x="436" y="1500" on="0"/>
        <pt x="412" y="1500" on="1"/>
        <pt x="394" y="1500" on="0"/>
        <pt x="360" y="1513" on="0"/>
        <pt x="342" y="1530" on="1"/>
        <pt x="327" y="1544" on="0"/>
        <pt x="304" y="1582" on="0"/>
        <pt x="304" y="1608" on="1"/>
        <pt x="304" y="1632" on="0"/>
        <pt x="321" y="1669" on="0"/>
        <pt x="332" y="1680" on="1"/>
        <pt x="522" y="1860" on="1"/>
        <pt x="537" y="1875" on="0"/>
        <pt x="574" y="1892" on="0"/>
        <pt x="598" y="1894" on="1"/>
        <pt x="618" y="1894" on="1"/>
        <pt x="663" y="1891" on="0"/>
        <pt x="694" y="1860" on="1"/>
      </contour>
      <contour>
        <pt x="142" y="1172" on="1"/>
        <pt x="142" y="1215" on="0"/>
        <pt x="151" y="1297" on="0"/>
        <pt x="184" y="1361" on="0"/>
        <pt x="250" y="1400" on="0"/>
        <pt x="308" y="1400" on="1"/>
        <pt x="366" y="1400" on="0"/>
        <pt x="433" y="1361" on="0"/>
        <pt x="466" y="1297" on="0"/>
        <pt x="474" y="1215" on="0"/>
        <pt x="474" y="1172" on="1"/>
        <pt x="474" y="384" on="1"/>
        <pt x="477" y="340" on="0"/>
        <pt x="492" y="306" on="1"/>
        <pt x="498" y="291" on="0"/>
        <pt x="518" y="263" on="0"/>
        <pt x="545" y="241" on="0"/>
        <pt x="582" y="228" on="0"/>
        <pt x="606" y="228" on="1"/>
        <pt x="630" y="228" on="0"/>
        <pt x="668" y="241" on="0"/>
        <pt x="695" y="263" on="0"/>
        <pt x="715" y="291" on="0"/>
        <pt x="721" y="306" on="1"/>
        <pt x="736" y="340" on="0"/>
        <pt x="738" y="384" on="1"/>
        <pt x="738" y="1172" on="1"/>
        <pt x="738" y="1215" on="0"/>
        <pt x="746" y="1297" on="0"/>
        <pt x="779" y="1361" on="0"/>
        <pt x="845" y="1400" on="0"/>
        <pt x="904" y="1400" on="1"/>
        <pt x="962" y="1400" on="0"/>
        <pt x="1028" y="1361" on="0"/>
        <pt x="1061" y="1297" on="0"/>
        <pt x="1070" y="1215" on="0"/>
        <pt x="1070" y="1172" on="1"/>
        <pt x="1070" y="410" on="1"/>
        <pt x="1070" y="306" on="0"/>
        <pt x="1003" y="150" on="0"/>
        <pt x="880" y="45" on="0"/>
        <pt x="709" y="-8" on="0"/>
        <pt x="606" y="-8" on="1"/>
        <pt x="502" y="-8" on="0"/>
        <pt x="332" y="47" on="0"/>
        <pt x="209" y="153" on="0"/>
        <pt x="142" y="309" on="0"/>
        <pt x="142" y="410" on="1"/>
      </contour>
    </TTGlyph>
    <TTGlyph name="Udieresis" xMin="142" yMin="-8" xMax="1070" yMax="1804">
      <contour>
        <pt x="550" y="1652" on="1"/>
        <pt x="550" y="1575" on="0"/>
        <pt x="470" y="1500" on="0"/>
        <pt x="398" y="1500" on="1"/>
        <pt x="326" y="1500" on="0"/>
        <pt x="246" y="1575" on="0"/>
        <pt x="246" y="1652" on="1"/>
        <pt x="246" y="1732" on="0"/>
        <pt x="326" y="1804" on="0"/>
        <pt x="398" y="1804" on="1"/>
        <pt x="475" y="1804" on="0"/>
        <pt x="550" y="1732" on="0"/>
      </contour>
      <contour>
        <pt x="966" y="1652" on="1"/>
        <pt x="966" y="1575" on="0"/>
        <pt x="886" y="1500" on="0"/>
        <pt x="814" y="1500" on="1"/>
        <pt x="742" y="1500" on="0"/>
        <pt x="662" y="1575" on="0"/>
        <pt x="662" y="1652" on="1"/>
        <pt x="662" y="1732" on="0"/>
        <pt x="742" y="1804" on="0"/>
        <pt x="814" y="1804" on="1"/>
        <pt x="891" y="1804" on="0"/>
        <pt x="966" y="1732" on="0"/>
      </contour>
      <contour>
        <pt x="142" y="1172" on="1"/>
        <pt x="142" y="1215" on="0"/>
        <pt x="151" y="1297" on="0"/>
        <pt x="184" y="1361" on="0"/>
        <pt x="250" y="1400" on="0"/>
        <pt x="308" y="1400" on="1"/>
        <pt x="366" y="1400" on="0"/>
        <pt x="433" y="1361" on="0"/>
        <pt x="466" y="1297" on="0"/>
        <pt x="474" y="1215" on="0"/>
        <pt x="474" y="1172" on="1"/>
        <pt x="474" y="384" on="1"/>
        <pt x="477" y="340" on="0"/>
        <pt x="492" y="306" on="1"/>
        <pt x="498" y="291" on="0"/>
        <pt x="518" y="263" on="0"/>
        <pt x="545" y="241" on="0"/>
        <pt x="582" y="228" on="0"/>
        <pt x="606" y="228" on="1"/>
        <pt x="630" y="228" on="0"/>
        <pt x="668" y="241" on="0"/>
        <pt x="695" y="263" on="0"/>
        <pt x="715" y="291" on="0"/>
        <pt x="721" y="306" on="1"/>
        <pt x="736" y="340" on="0"/>
        <pt x="738" y="384" on="1"/>
        <pt x="738" y="1172" on="1"/>
        <pt x="738" y="1215" on="0"/>
        <pt x="746" y="1297" on="0"/>
        <pt x="779" y="1361" on="0"/>
        <pt x="845" y="1400" on="0"/>
        <pt x="904" y="1400" on="1"/>
        <pt x="962" y="1400" on="0"/>
        <pt x="1028" y="1361" on="0"/>
        <pt x="1061" y="1297" on="0"/>
        <pt x="1070" y="1215" on="0"/>
        <pt x="1070" y="1172" on="1"/>
        <pt x="1070" y="410" on="1"/>
        <pt x="1070" y="306" on="0"/>
        <pt x="1003" y="150" on="0"/>
        <pt x="880" y="45" on="0"/>
        <pt x="709" y="-8" on="0"/>
        <pt x="606" y="-8" on="1"/>
        <pt x="502" y="-8" on="0"/>
        <pt x="332" y="47" on="0"/>
        <pt x="209" y="153" on="0"/>
        <pt x="142" y="309" on="0"/>
        <pt x="142" y="410" on="1"/>
      </contour>
    </TTGlyph>
    <TTGlyph name="Ugrave" xMin="142" yMin="-8" xMax="1070" yMax="1850">
      <contour>
        <pt x="796" y="1696" on="1"/>
        <pt x="810" y="1687" on="0"/>
        <pt x="840" y="1640" on="0"/>
        <pt x="840" y="1610" on="1"/>
        <pt x="840" y="1596" on="0"/>
        <pt x="830" y="1563" on="0"/>
        <pt x="818" y="1546" on="1"/>
        <pt x="798" y="1517" on="0"/>
        <pt x="751" y="1500" on="0"/>
        <pt x="724" y="1500" on="1"/>
        <pt x="709" y="1500" on="0"/>
        <pt x="678" y="1507" on="0"/>
        <pt x="664" y="1516" on="1"/>
        <pt x="444" y="1650" on="1"/>
        <pt x="424" y="1664" on="0"/>
        <pt x="394" y="1709" on="0"/>
        <pt x="394" y="1736" on="1"/>
        <pt x="394" y="1750" on="0"/>
        <pt x="404" y="1786" on="0"/>
        <pt x="416" y="1804" on="1"/>
        <pt x="436" y="1833" on="0"/>
        <pt x="490" y="1850" on="0"/>
        <pt x="516" y="1850" on="1"/>
        <pt x="545" y="1850" on="0"/>
        <pt x="572" y="1832" on="1"/>
      </contour>
      <contour>
        <pt x="142" y="1172" on="1"/>
        <pt x="142" y="1215" on="0"/>
        <pt x="151" y="1297" on="0"/>
        <pt x="184" y="1361" on="0"/>
        <pt x="250" y="1400" on="0"/>
        <pt x="308" y="1400" on="1"/>
        <pt x="366" y="1400" on="0"/>
        <pt x="433" y="1361" on="0"/>
        <pt x="466" y="1297" on="0"/>
        <pt x="474" y="1215" on="0"/>
        <pt x="474" y="1172" on="1"/>
        <pt x="474" y="384" on="1"/>
        <pt x="477" y="340" on="0"/>
        <pt x="492" y="306" on="1"/>
        <pt x="498" y="291" on="0"/>
        <pt x="518" y="263" on="0"/>
        <pt x="545" y="241" on="0"/>
        <pt x="582" y="228" on="0"/>
        <pt x="606" y="228" on="1"/>
        <pt x="630" y="228" on="0"/>
        <pt x="668" y="241" on="0"/>
        <pt x="695" y="263" on="0"/>
        <pt x="715" y="291" on="0"/>
        <pt x="721" y="306" on="1"/>
        <pt x="736" y="340" on="0"/>
        <pt x="738" y="384" on="1"/>
        <pt x="738" y="1172" on="1"/>
        <pt x="738" y="1215" on="0"/>
        <pt x="746" y="1297" on="0"/>
        <pt x="779" y="1361" on="0"/>
        <pt x="845" y="1400" on="0"/>
        <pt x="904" y="1400" on="1"/>
        <pt x="962" y="1400" on="0"/>
        <pt x="1028" y="1361" on="0"/>
        <pt x="1061" y="1297" on="0"/>
        <pt x="1070" y="1215" on="0"/>
        <pt x="1070" y="1172" on="1"/>
        <pt x="1070" y="410" on="1"/>
        <pt x="1070" y="306" on="0"/>
        <pt x="1003" y="150" on="0"/>
        <pt x="880" y="45" on="0"/>
        <pt x="709" y="-8" on="0"/>
        <pt x="606" y="-8" on="1"/>
        <pt x="502" y="-8" on="0"/>
        <pt x="332" y="47" on="0"/>
        <pt x="209" y="153" on="0"/>
        <pt x="142" y="309" on="0"/>
        <pt x="142" y="410" on="1"/>
      </contour>
    </TTGlyph>
    <TTGlyph name="V" xMin="16" yMin="0" xMax="992" yMax="1400">
      <contour>
        <pt x="844" y="1400" on="1"/>
        <pt x="873" y="1400" on="0"/>
        <pt x="927" y="1380" on="0"/>
        <pt x="968" y="1346" on="0"/>
        <pt x="992" y="1299" on="0"/>
        <pt x="992" y="1272" on="1"/>
        <pt x="992" y="1259" on="0"/>
        <pt x="989" y="1236" on="0"/>
        <pt x="987" y="1227" on="1"/>
        <pt x="984" y="1216" on="0"/>
        <pt x="982" y="1208" on="1"/>
        <pt x="914" y="941" on="0"/>
        <pt x="766" y="386" on="0"/>
        <pt x="698" y="120" on="1"/>
        <pt x="683" y="86" on="0"/>
        <pt x="658" y="60" on="1"/>
        <pt x="637" y="37" on="0"/>
        <pt x="570" y="0" on="0"/>
        <pt x="520" y="0" on="1"/>
        <pt x="488" y="0" on="1"/>
        <pt x="438" y="0" on="0"/>
        <pt x="370" y="37" on="0"/>
        <pt x="349" y="60" on="1"/>
        <pt x="324" y="86" on="0"/>
        <pt x="310" y="120" on="1"/>
        <pt x="26" y="1208" on="1"/>
        <pt x="23" y="1216" on="0"/>
        <pt x="21" y="1227" on="1"/>
        <pt x="16" y="1247" on="0"/>
        <pt x="16" y="1272" on="1"/>
        <pt x="16" y="1299" on="0"/>
        <pt x="39" y="1346" on="0"/>
        <pt x="79" y="1380" on="0"/>
        <pt x="133" y="1400" on="0"/>
        <pt x="164" y="1400" on="1"/>
        <pt x="212" y="1400" on="0"/>
        <pt x="271" y="1358" on="0"/>
        <pt x="288" y="1332" on="1"/>
        <pt x="307" y="1302" on="0"/>
        <pt x="316" y="1264" on="1"/>
        <pt x="328" y="1216" on="0"/>
        <pt x="356" y="1095" on="0"/>
        <pt x="384" y="965" on="0"/>
        <pt x="413" y="830" on="0"/>
        <pt x="426" y="767" on="1"/>
        <pt x="457" y="619" on="0"/>
        <pt x="488" y="464" on="1"/>
        <pt x="520" y="464" on="1"/>
        <pt x="554" y="619" on="0"/>
        <pt x="586" y="767" on="1"/>
        <pt x="599" y="830" on="0"/>
        <pt x="628" y="965" on="0"/>
        <pt x="656" y="1095" on="0"/>
        <pt x="682" y="1216" on="0"/>
        <pt x="692" y="1264" on="1"/>
        <pt x="702" y="1302" on="0"/>
        <pt x="721" y="1332" on="1"/>
        <pt x="738" y="1358" on="0"/>
        <pt x="796" y="1400" on="0"/>
      </contour>
    </TTGlyph>
    <TTGlyph name="W" xMin="24" yMin="0" xMax="1658" yMax="1400">
      <contour>
        <pt x="842" y="1394" on="1"/>
        <pt x="870" y="1394" on="0"/>
        <pt x="919" y="1374" on="0"/>
        <pt x="958" y="1339" on="0"/>
        <pt x="986" y="1290" on="0"/>
        <pt x="992" y="1262" on="1"/>
        <pt x="1164" y="464" on="1"/>
        <pt x="1198" y="464" on="1"/>
        <pt x="1240" y="659" on="0"/>
        <pt x="1328" y="1066" on="0"/>
        <pt x="1372" y="1262" on="1"/>
        <pt x="1381" y="1300" on="0"/>
        <pt x="1399" y="1331" on="1"/>
        <pt x="1415" y="1357" on="0"/>
        <pt x="1472" y="1400" on="0"/>
        <pt x="1518" y="1400" on="1"/>
        <pt x="1553" y="1400" on="0"/>
        <pt x="1606" y="1375" on="0"/>
        <pt x="1641" y="1336" on="0"/>
        <pt x="1658" y="1290" on="0"/>
        <pt x="1658" y="1268" on="1"/>
        <pt x="1658" y="1256" on="0"/>
        <pt x="1656" y="1234" on="0"/>
        <pt x="1654" y="1226" on="1"/>
        <pt x="1652" y="1216" on="0"/>
        <pt x="1650" y="1208" on="1"/>
        <pt x="1376" y="120" on="1"/>
        <pt x="1361" y="86" on="0"/>
        <pt x="1336" y="60" on="1"/>
        <pt x="1315" y="37" on="0"/>
        <pt x="1248" y="0" on="0"/>
        <pt x="1198" y="0" on="1"/>
        <pt x="1164" y="0" on="1"/>
        <pt x="1114" y="0" on="0"/>
        <pt x="1050" y="37" on="0"/>
        <pt x="1031" y="60" on="1"/>
        <pt x="1009" y="86" on="0"/>
        <pt x="998" y="120" on="1"/>
        <pt x="858" y="706" on="1"/>
        <pt x="824" y="706" on="1"/>
        <pt x="792" y="564" on="0"/>
        <pt x="719" y="262" on="0"/>
        <pt x="686" y="120" on="1"/>
        <pt x="673" y="86" on="0"/>
        <pt x="651" y="60" on="1"/>
        <pt x="631" y="37" on="0"/>
        <pt x="568" y="0" on="0"/>
        <pt x="518" y="0" on="1"/>
        <pt x="484" y="0" on="1"/>
        <pt x="434" y="0" on="0"/>
        <pt x="365" y="37" on="0"/>
        <pt x="343" y="60" on="1"/>
        <pt x="317" y="86" on="0"/>
        <pt x="302" y="120" on="1"/>
        <pt x="32" y="1208" on="1"/>
        <pt x="30" y="1216" on="0"/>
        <pt x="28" y="1226" on="1"/>
        <pt x="26" y="1234" on="0"/>
        <pt x="24" y="1256" on="0"/>
        <pt x="24" y="1268" on="1"/>
        <pt x="24" y="1290" on="0"/>
        <pt x="41" y="1336" on="0"/>
        <pt x="76" y="1375" on="0"/>
        <pt x="129" y="1400" on="0"/>
        <pt x="164" y="1400" on="1"/>
        <pt x="210" y="1400" on="0"/>
        <pt x="267" y="1357" on="0"/>
        <pt x="283" y="1331" on="1"/>
        <pt x="301" y="1300" on="0"/>
        <pt x="310" y="1262" on="1"/>
        <pt x="484" y="464" on="1"/>
        <pt x="518" y="464" on="1"/>
        <pt x="537" y="556" on="0"/>
        <pt x="581" y="759" on="0"/>
        <pt x="626" y="966" on="0"/>
        <pt x="671" y="1169" on="0"/>
        <pt x="692" y="1262" on="1"/>
        <pt x="706" y="1319" on="0"/>
        <pt x="786" y="1394" on="0"/>
      </contour>
    </TTGlyph>
    <TTGlyph name="X" xMin="56" yMin="0" xMax="1094" yMax="1400">
      <contour>
        <pt x="388" y="714" on="1"/>
        <pt x="136" y="1096" on="1"/>
        <pt x="114" y="1129" on="0"/>
        <pt x="96" y="1162" on="1"/>
        <pt x="81" y="1189" on="0"/>
        <pt x="56" y="1249" on="0"/>
        <pt x="56" y="1270" on="1"/>
        <pt x="56" y="1297" on="0"/>
        <pt x="87" y="1353" on="0"/>
        <pt x="126" y="1376" on="1"/>
        <pt x="171" y="1400" on="0"/>
        <pt x="208" y="1400" on="1"/>
        <pt x="236" y="1400" on="0"/>
        <pt x="283" y="1375" on="0"/>
        <pt x="322" y="1334" on="0"/>
        <pt x="356" y="1282" on="0"/>
        <pt x="372" y="1256" on="1"/>
        <pt x="558" y="950" on="1"/>
        <pt x="588" y="950" on="1"/>
        <pt x="774" y="1256" on="1"/>
        <pt x="790" y="1282" on="0"/>
        <pt x="824" y="1334" on="0"/>
        <pt x="863" y="1375" on="0"/>
        <pt x="909" y="1400" on="0"/>
        <pt x="938" y="1400" on="1"/>
        <pt x="956" y="1400" on="0"/>
        <pt x="997" y="1386" on="0"/>
        <pt x="1020" y="1374" on="1"/>
        <pt x="1062" y="1351" on="0"/>
        <pt x="1094" y="1298" on="0"/>
        <pt x="1094" y="1272" on="1"/>
        <pt x="1094" y="1250" on="0"/>
        <pt x="1068" y="1190" on="0"/>
        <pt x="1052" y="1162" on="1"/>
        <pt x="1034" y="1129" on="0"/>
        <pt x="1010" y="1096" on="1"/>
        <pt x="760" y="714" on="1"/>
        <pt x="760" y="696" on="1"/>
        <pt x="1038" y="258" on="1"/>
        <pt x="1059" y="225" on="0"/>
        <pt x="1090" y="160" on="0"/>
        <pt x="1090" y="128" on="1"/>
        <pt x="1090" y="101" on="0"/>
        <pt x="1061" y="48" on="0"/>
        <pt x="1022" y="24" on="1"/>
        <pt x="977" y="0" on="0"/>
        <pt x="940" y="0" on="1"/>
        <pt x="914" y="0" on="0"/>
        <pt x="872" y="21" on="0"/>
        <pt x="836" y="55" on="0"/>
        <pt x="805" y="99" on="0"/>
        <pt x="790" y="122" on="1"/>
        <pt x="588" y="450" on="1"/>
        <pt x="558" y="450" on="1"/>
        <pt x="356" y="122" on="1"/>
        <pt x="341" y="99" on="0"/>
        <pt x="310" y="55" on="0"/>
        <pt x="275" y="21" on="0"/>
        <pt x="233" y="0" on="0"/>
        <pt x="208" y="0" on="1"/>
        <pt x="170" y="0" on="0"/>
        <pt x="128" y="24" on="1"/>
        <pt x="87" y="48" on="0"/>
        <pt x="56" y="101" on="0"/>
        <pt x="56" y="128" on="1"/>
        <pt x="56" y="160" on="0"/>
        <pt x="87" y="225" on="0"/>
        <pt x="108" y="258" on="1"/>
        <pt x="388" y="696" on="1"/>
      </contour>
    </TTGlyph>
    <TTGlyph name="Y" xMin="-14" yMin="0" xMax="1022" yMax="1400">
      <contour>
        <pt x="654" y="226" on="1"/>
        <pt x="654" y="184" on="0"/>
        <pt x="646" y="103" on="0"/>
        <pt x="616" y="39" on="0"/>
        <pt x="556" y="0" on="0"/>
        <pt x="504" y="0" on="1"/>
        <pt x="451" y="0" on="0"/>
        <pt x="391" y="39" on="0"/>
        <pt x="360" y="103" on="0"/>
        <pt x="352" y="184" on="0"/>
        <pt x="352" y="226" on="1"/>
        <pt x="352" y="574" on="1"/>
        <pt x="54" y="1106" on="1"/>
        <pt x="30" y="1148" on="0"/>
        <pt x="-14" y="1229" on="0"/>
        <pt x="-14" y="1270" on="1"/>
        <pt x="-14" y="1297" on="0"/>
        <pt x="17" y="1352" on="0"/>
        <pt x="58" y="1376" on="1"/>
        <pt x="103" y="1400" on="0"/>
        <pt x="142" y="1400" on="1"/>
        <pt x="172" y="1400" on="0"/>
        <pt x="221" y="1373" on="0"/>
        <pt x="261" y="1329" on="0"/>
        <pt x="293" y="1274" on="0"/>
        <pt x="306" y="1246" on="1"/>
        <pt x="488" y="864" on="1"/>
        <pt x="520" y="864" on="1"/>
        <pt x="702" y="1246" on="1"/>
        <pt x="715" y="1274" on="0"/>
        <pt x="747" y="1329" on="0"/>
        <pt x="787" y="1373" on="0"/>
        <pt x="836" y="1400" on="0"/>
        <pt x="866" y="1400" on="1"/>
        <pt x="887" y="1400" on="0"/>
        <pt x="927" y="1388" on="0"/>
        <pt x="950" y="1376" on="1"/>
        <pt x="989" y="1352" on="0"/>
        <pt x="1022" y="1297" on="0"/>
        <pt x="1022" y="1270" on="1"/>
        <pt x="1022" y="1252" on="0"/>
        <pt x="990" y="1171" on="0"/>
        <pt x="954" y="1106" on="1"/>
        <pt x="654" y="574" on="1"/>
      </contour>
    </TTGlyph>
    <TTGlyph name="Yacute" xMin="-14" yMin="0" xMax="1022" yMax="1850">
      <contour>
        <pt x="548" y="1832" on="1"/>
        <pt x="575" y="1850" on="0"/>
        <pt x="604" y="1850" on="1"/>
        <pt x="630" y="1850" on="0"/>
        <pt x="684" y="1833" on="0"/>
        <pt x="704" y="1804" on="1"/>
        <pt x="716" y="1786" on="0"/>
        <pt x="726" y="1750" on="0"/>
        <pt x="726" y="1736" on="1"/>
        <pt x="726" y="1709" on="0"/>
        <pt x="696" y="1664" on="0"/>
        <pt x="676" y="1650" on="1"/>
        <pt x="456" y="1516" on="1"/>
        <pt x="442" y="1507" on="0"/>
        <pt x="411" y="1500" on="0"/>
        <pt x="396" y="1500" on="1"/>
        <pt x="369" y="1500" on="0"/>
        <pt x="322" y="1517" on="0"/>
        <pt x="302" y="1546" on="1"/>
        <pt x="290" y="1563" on="0"/>
        <pt x="280" y="1596" on="0"/>
        <pt x="280" y="1610" on="1"/>
        <pt x="280" y="1640" on="0"/>
        <pt x="310" y="1687" on="0"/>
        <pt x="324" y="1696" on="1"/>
      </contour>
      <contour>
        <pt x="654" y="226" on="1"/>
        <pt x="654" y="184" on="0"/>
        <pt x="646" y="103" on="0"/>
        <pt x="616" y="39" on="0"/>
        <pt x="556" y="0" on="0"/>
        <pt x="504" y="0" on="1"/>
        <pt x="451" y="0" on="0"/>
        <pt x="391" y="39" on="0"/>
        <pt x="360" y="103" on="0"/>
        <pt x="352" y="184" on="0"/>
        <pt x="352" y="226" on="1"/>
        <pt x="352" y="574" on="1"/>
        <pt x="54" y="1106" on="1"/>
        <pt x="30" y="1148" on="0"/>
        <pt x="-14" y="1229" on="0"/>
        <pt x="-14" y="1270" on="1"/>
        <pt x="-14" y="1297" on="0"/>
        <pt x="17" y="1352" on="0"/>
        <pt x="58" y="1376" on="1"/>
        <pt x="103" y="1400" on="0"/>
        <pt x="142" y="1400" on="1"/>
        <pt x="172" y="1400" on="0"/>
        <pt x="221" y="1373" on="0"/>
        <pt x="261" y="1329" on="0"/>
        <pt x="293" y="1274" on="0"/>
        <pt x="306" y="1246" on="1"/>
        <pt x="488" y="864" on="1"/>
        <pt x="520" y="864" on="1"/>
        <pt x="702" y="1246" on="1"/>
        <pt x="715" y="1274" on="0"/>
        <pt x="747" y="1329" on="0"/>
        <pt x="787" y="1373" on="0"/>
        <pt x="836" y="1400" on="0"/>
        <pt x="866" y="1400" on="1"/>
        <pt x="887" y="1400" on="0"/>
        <pt x="927" y="1388" on="0"/>
        <pt x="950" y="1376" on="1"/>
        <pt x="989" y="1352" on="0"/>
        <pt x="1022" y="1297" on="0"/>
        <pt x="1022" y="1270" on="1"/>
        <pt x="1022" y="1252" on="0"/>
        <pt x="990" y="1171" on="0"/>
        <pt x="954" y="1106" on="1"/>
        <pt x="654" y="574" on="1"/>
      </contour>
    </TTGlyph>
    <TTGlyph name="Ydieresis" xMin="-14" yMin="0" xMax="1022" yMax="1804">
      <contour>
        <pt x="448" y="1652" on="1"/>
        <pt x="448" y="1575" on="0"/>
        <pt x="368" y="1500" on="0"/>
        <pt x="296" y="1500" on="1"/>
        <pt x="224" y="1500" on="0"/>
        <pt x="144" y="1575" on="0"/>
        <pt x="144" y="1652" on="1"/>
        <pt x="144" y="1732" on="0"/>
        <pt x="224" y="1804" on="0"/>
        <pt x="296" y="1804" on="1"/>
        <pt x="373" y="1804" on="0"/>
        <pt x="448" y="1732" on="0"/>
      </contour>
      <contour>
        <pt x="864" y="1652" on="1"/>
        <pt x="864" y="1575" on="0"/>
        <pt x="784" y="1500" on="0"/>
        <pt x="712" y="1500" on="1"/>
        <pt x="640" y="1500" on="0"/>
        <pt x="560" y="1575" on="0"/>
        <pt x="560" y="1652" on="1"/>
        <pt x="560" y="1732" on="0"/>
        <pt x="640" y="1804" on="0"/>
        <pt x="712" y="1804" on="1"/>
        <pt x="789" y="1804" on="0"/>
        <pt x="864" y="1732" on="0"/>
      </contour>
      <contour>
        <pt x="654" y="226" on="1"/>
        <pt x="654" y="184" on="0"/>
        <pt x="646" y="103" on="0"/>
        <pt x="616" y="39" on="0"/>
        <pt x="556" y="0" on="0"/>
        <pt x="504" y="0" on="1"/>
        <pt x="451" y="0" on="0"/>
        <pt x="391" y="39" on="0"/>
        <pt x="360" y="103" on="0"/>
        <pt x="352" y="184" on="0"/>
        <pt x="352" y="226" on="1"/>
        <pt x="352" y="574" on="1"/>
        <pt x="54" y="1106" on="1"/>
        <pt x="30" y="1148" on="0"/>
        <pt x="-14" y="1229" on="0"/>
        <pt x="-14" y="1270" on="1"/>
        <pt x="-14" y="1297" on="0"/>
        <pt x="17" y="1352" on="0"/>
        <pt x="58" y="1376" on="1"/>
        <pt x="103" y="1400" on="0"/>
        <pt x="142" y="1400" on="1"/>
        <pt x="172" y="1400" on="0"/>
        <pt x="221" y="1373" on="0"/>
        <pt x="261" y="1329" on="0"/>
        <pt x="293" y="1274" on="0"/>
        <pt x="306" y="1246" on="1"/>
        <pt x="488" y="864" on="1"/>
        <pt x="520" y="864" on="1"/>
        <pt x="702" y="1246" on="1"/>
        <pt x="715" y="1274" on="0"/>
        <pt x="747" y="1329" on="0"/>
        <pt x="787" y="1373" on="0"/>
        <pt x="836" y="1400" on="0"/>
        <pt x="866" y="1400" on="1"/>
        <pt x="887" y="1400" on="0"/>
        <pt x="927" y="1388" on="0"/>
        <pt x="950" y="1376" on="1"/>
        <pt x="989" y="1352" on="0"/>
        <pt x="1022" y="1297" on="0"/>
        <pt x="1022" y="1270" on="1"/>
        <pt x="1022" y="1252" on="0"/>
        <pt x="990" y="1171" on="0"/>
        <pt x="954" y="1106" on="1"/>
        <pt x="654" y="574" on="1"/>
      </contour>
    </TTGlyph>
    <TTGlyph name="Z" xMin="70" yMin="0" xMax="982" yMax="1400">
      <contour>
        <pt x="600" y="1098" on="1"/>
        <pt x="584" y="1114" on="1"/>
        <pt x="296" y="1114" on="1"/>
        <pt x="256" y="1114" on="0"/>
        <pt x="176" y="1122" on="0"/>
        <pt x="111" y="1149" on="0"/>
        <pt x="70" y="1202" on="0"/>
        <pt x="70" y="1248" on="1"/>
        <pt x="70" y="1300" on="0"/>
        <pt x="111" y="1361" on="0"/>
        <pt x="176" y="1392" on="0"/>
        <pt x="256" y="1400" on="0"/>
        <pt x="296" y="1400" on="1"/>
        <pt x="822" y="1400" on="1"/>
        <pt x="860" y="1400" on="0"/>
        <pt x="919" y="1373" on="0"/>
        <pt x="959" y="1329" on="0"/>
        <pt x="980" y="1275" on="0"/>
        <pt x="980" y="1248" on="1"/>
        <pt x="980" y="1233" on="0"/>
        <pt x="974" y="1205" on="0"/>
        <pt x="968" y="1194" on="1"/>
        <pt x="454" y="300" on="1"/>
        <pt x="468" y="286" on="1"/>
        <pt x="756" y="286" on="1"/>
        <pt x="795" y="286" on="0"/>
        <pt x="875" y="278" on="0"/>
        <pt x="941" y="249" on="0"/>
        <pt x="982" y="193" on="0"/>
        <pt x="982" y="144" on="1"/>
        <pt x="982" y="94" on="0"/>
        <pt x="941" y="37" on="0"/>
        <pt x="875" y="8" on="0"/>
        <pt x="795" y="0" on="0"/>
        <pt x="756" y="0" on="1"/>
        <pt x="230" y="0" on="1"/>
        <pt x="192" y="0" on="0"/>
        <pt x="133" y="25" on="0"/>
        <pt x="92" y="65" on="0"/>
        <pt x="70" y="117" on="0"/>
        <pt x="70" y="144" on="1"/>
        <pt x="70" y="162" on="0"/>
        <pt x="75" y="189" on="0"/>
        <pt x="84" y="204" on="1"/>
      </contour>
    </TTGlyph>
    <TTGlyph name="Zcaron" xMin="70" yMin="0" xMax="982" yMax="1892">
      <contour>
        <pt x="600" y="1098" on="1"/>
        <pt x="584" y="1114" on="1"/>
        <pt x="296" y="1114" on="1"/>
        <pt x="256" y="1114" on="0"/>
        <pt x="176" y="1122" on="0"/>
        <pt x="111" y="1149" on="0"/>
        <pt x="70" y="1202" on="0"/>
        <pt x="70" y="1248" on="1"/>
        <pt x="70" y="1300" on="0"/>
        <pt x="111" y="1361" on="0"/>
        <pt x="176" y="1392" on="0"/>
        <pt x="256" y="1400" on="0"/>
        <pt x="296" y="1400" on="1"/>
        <pt x="822" y="1400" on="1"/>
        <pt x="860" y="1400" on="0"/>
        <pt x="919" y="1373" on="0"/>
        <pt x="959" y="1329" on="0"/>
        <pt x="980" y="1275" on="0"/>
        <pt x="980" y="1248" on="1"/>
        <pt x="980" y="1233" on="0"/>
        <pt x="974" y="1205" on="0"/>
        <pt x="968" y="1194" on="1"/>
        <pt x="454" y="300" on="1"/>
        <pt x="468" y="286" on="1"/>
        <pt x="756" y="286" on="1"/>
        <pt x="795" y="286" on="0"/>
        <pt x="875" y="278" on="0"/>
        <pt x="941" y="249" on="0"/>
        <pt x="982" y="193" on="0"/>
        <pt x="982" y="144" on="1"/>
        <pt x="982" y="94" on="0"/>
        <pt x="941" y="37" on="0"/>
        <pt x="875" y="8" on="0"/>
        <pt x="795" y="0" on="0"/>
        <pt x="756" y="0" on="1"/>
        <pt x="230" y="0" on="1"/>
        <pt x="192" y="0" on="0"/>
        <pt x="133" y="25" on="0"/>
        <pt x="92" y="65" on="0"/>
        <pt x="70" y="117" on="0"/>
        <pt x="70" y="144" on="1"/>
        <pt x="70" y="162" on="0"/>
        <pt x="75" y="189" on="0"/>
        <pt x="84" y="204" on="1"/>
      </contour>
      <contour>
        <pt x="606" y="1532" on="1"/>
        <pt x="575" y="1501" on="0"/>
        <pt x="530" y="1498" on="1"/>
        <pt x="510" y="1498" on="1"/>
        <pt x="486" y="1500" on="0"/>
        <pt x="449" y="1517" on="0"/>
        <pt x="434" y="1532" on="1"/>
        <pt x="244" y="1712" on="1"/>
        <pt x="233" y="1723" on="0"/>
        <pt x="216" y="1760" on="0"/>
        <pt x="216" y="1784" on="1"/>
        <pt x="216" y="1810" on="0"/>
        <pt x="239" y="1848" on="0"/>
        <pt x="254" y="1862" on="1"/>
        <pt x="272" y="1879" on="0"/>
        <pt x="306" y="1892" on="0"/>
        <pt x="324" y="1892" on="1"/>
        <pt x="348" y="1892" on="0"/>
        <pt x="396" y="1877" on="0"/>
        <pt x="410" y="1860" on="1"/>
        <pt x="520" y="1756" on="1"/>
        <pt x="630" y="1860" on="1"/>
        <pt x="644" y="1877" on="0"/>
        <pt x="692" y="1892" on="0"/>
        <pt x="716" y="1892" on="1"/>
        <pt x="734" y="1892" on="0"/>
        <pt x="768" y="1879" on="0"/>
        <pt x="786" y="1862" on="1"/>
        <pt x="801" y="1848" on="0"/>
        <pt x="824" y="1810" on="0"/>
        <pt x="824" y="1784" on="1"/>
        <pt x="824" y="1760" on="0"/>
        <pt x="807" y="1723" on="0"/>
        <pt x="796" y="1712" on="1"/>
      </contour>
    </TTGlyph>
    <TTGlyph name="a" xMin="84" yMin="0" xMax="912" yMax="1000">
      <contour>
        <pt x="912" y="226" on="1"/>
        <pt x="912" y="184" on="0"/>
        <pt x="906" y="103" on="0"/>
        <pt x="876" y="39" on="0"/>
        <pt x="816" y="0" on="0"/>
        <pt x="762" y="0" on="1"/>
        <pt x="707" y="0" on="0"/>
        <pt x="645" y="37" on="0"/>
        <pt x="615" y="90" on="0"/>
        <pt x="608" y="148" on="0"/>
        <pt x="608" y="168" on="1"/>
        <pt x="599" y="139" on="0"/>
        <pt x="566" y="79" on="0"/>
        <pt x="514" y="31" on="0"/>
        <pt x="441" y="0" on="0"/>
        <pt x="392" y="0" on="1"/>
        <pt x="337" y="0" on="0"/>
        <pt x="227" y="36" on="0"/>
        <pt x="139" y="120" on="0"/>
        <pt x="84" y="255" on="0"/>
        <pt x="84" y="354" on="1"/>
        <pt x="84" y="644" on="1"/>
        <pt x="84" y="744" on="0"/>
        <pt x="139" y="879" on="0"/>
        <pt x="227" y="962" on="0"/>
        <pt x="337" y="998" on="0"/>
        <pt x="392" y="998" on="1"/>
        <pt x="441" y="998" on="0"/>
        <pt x="514" y="968" on="0"/>
        <pt x="566" y="920" on="0"/>
        <pt x="599" y="860" on="0"/>
        <pt x="608" y="830" on="1"/>
        <pt x="608" y="880" on="0"/>
        <pt x="636" y="946" on="0"/>
        <pt x="680" y="985" on="0"/>
        <pt x="735" y="1000" on="0"/>
        <pt x="762" y="1000" on="1"/>
        <pt x="812" y="1000" on="0"/>
        <pt x="872" y="961" on="0"/>
        <pt x="903" y="898" on="0"/>
        <pt x="912" y="815" on="0"/>
        <pt x="912" y="772" on="1"/>
      </contour>
      <contour>
        <pt x="392" y="380" on="1"/>
        <pt x="392" y="353" on="0"/>
        <pt x="396" y="301" on="0"/>
        <pt x="414" y="259" on="0"/>
        <pt x="449" y="234" on="0"/>
        <pt x="480" y="234" on="1"/>
        <pt x="519" y="234" on="0"/>
        <pt x="568" y="269" on="0"/>
        <pt x="596" y="342" on="0"/>
        <pt x="607" y="453" on="0"/>
        <pt x="608" y="530" on="1"/>
        <pt x="608" y="561" on="0"/>
        <pt x="597" y="642" on="0"/>
        <pt x="569" y="714" on="0"/>
        <pt x="519" y="764" on="0"/>
        <pt x="480" y="764" on="1"/>
        <pt x="449" y="764" on="0"/>
        <pt x="414" y="739" on="0"/>
        <pt x="396" y="699" on="0"/>
        <pt x="392" y="648" on="0"/>
        <pt x="392" y="622" on="1"/>
      </contour>
    </TTGlyph>
    <TTGlyph name="aacute" xMin="84" yMin="0" xMax="912" yMax="1450">
      <contour>
        <pt x="912" y="226" on="1"/>
        <pt x="912" y="184" on="0"/>
        <pt x="906" y="103" on="0"/>
        <pt x="876" y="39" on="0"/>
        <pt x="816" y="0" on="0"/>
        <pt x="762" y="0" on="1"/>
        <pt x="707" y="0" on="0"/>
        <pt x="645" y="37" on="0"/>
        <pt x="615" y="90" on="0"/>
        <pt x="608" y="148" on="0"/>
        <pt x="608" y="168" on="1"/>
        <pt x="599" y="139" on="0"/>
        <pt x="566" y="79" on="0"/>
        <pt x="514" y="31" on="0"/>
        <pt x="441" y="0" on="0"/>
        <pt x="392" y="0" on="1"/>
        <pt x="337" y="0" on="0"/>
        <pt x="227" y="36" on="0"/>
        <pt x="139" y="120" on="0"/>
        <pt x="84" y="255" on="0"/>
        <pt x="84" y="354" on="1"/>
        <pt x="84" y="644" on="1"/>
        <pt x="84" y="744" on="0"/>
        <pt x="139" y="879" on="0"/>
        <pt x="227" y="962" on="0"/>
        <pt x="337" y="998" on="0"/>
        <pt x="392" y="998" on="1"/>
        <pt x="441" y="998" on="0"/>
        <pt x="514" y="968" on="0"/>
        <pt x="566" y="920" on="0"/>
        <pt x="599" y="860" on="0"/>
        <pt x="608" y="830" on="1"/>
        <pt x="608" y="880" on="0"/>
        <pt x="636" y="946" on="0"/>
        <pt x="680" y="985" on="0"/>
        <pt x="735" y="1000" on="0"/>
        <pt x="762" y="1000" on="1"/>
        <pt x="812" y="1000" on="0"/>
        <pt x="872" y="961" on="0"/>
        <pt x="903" y="898" on="0"/>
        <pt x="912" y="815" on="0"/>
        <pt x="912" y="772" on="1"/>
      </contour>
      <contour>
        <pt x="392" y="380" on="1"/>
        <pt x="392" y="353" on="0"/>
        <pt x="396" y="301" on="0"/>
        <pt x="414" y="259" on="0"/>
        <pt x="449" y="234" on="0"/>
        <pt x="480" y="234" on="1"/>
        <pt x="519" y="234" on="0"/>
        <pt x="568" y="269" on="0"/>
        <pt x="596" y="342" on="0"/>
        <pt x="607" y="453" on="0"/>
        <pt x="608" y="530" on="1"/>
        <pt x="608" y="561" on="0"/>
        <pt x="597" y="642" on="0"/>
        <pt x="569" y="714" on="0"/>
        <pt x="519" y="764" on="0"/>
        <pt x="480" y="764" on="1"/>
        <pt x="449" y="764" on="0"/>
        <pt x="414" y="739" on="0"/>
        <pt x="396" y="699" on="0"/>
        <pt x="392" y="648" on="0"/>
        <pt x="392" y="622" on="1"/>
      </contour>
      <contour>
        <pt x="568" y="1432" on="1"/>
        <pt x="595" y="1450" on="0"/>
        <pt x="624" y="1450" on="1"/>
        <pt x="650" y="1450" on="0"/>
        <pt x="704" y="1433" on="0"/>
        <pt x="724" y="1404" on="1"/>
        <pt x="736" y="1386" on="0"/>
        <pt x="746" y="1350" on="0"/>
        <pt x="746" y="1336" on="1"/>
        <pt x="746" y="1309" on="0"/>
        <pt x="716" y="1264" on="0"/>
        <pt x="696" y="1250" on="1"/>
        <pt x="476" y="1116" on="1"/>
        <pt x="462" y="1107" on="0"/>
        <pt x="431" y="1100" on="0"/>
        <pt x="416" y="1100" on="1"/>
        <pt x="389" y="1100" on="0"/>
        <pt x="342" y="1117" on="0"/>
        <pt x="322" y="1146" on="1"/>
        <pt x="310" y="1163" on="0"/>
        <pt x="300" y="1196" on="0"/>
        <pt x="300" y="1210" on="1"/>
        <pt x="300" y="1240" on="0"/>
        <pt x="330" y="1287" on="0"/>
        <pt x="344" y="1296" on="1"/>
      </contour>
    </TTGlyph>
    <TTGlyph name="acircumflex" xMin="84" yMin="0" xMax="912" yMax="1494">
      <contour>
        <pt x="912" y="226" on="1"/>
        <pt x="912" y="184" on="0"/>
        <pt x="906" y="103" on="0"/>
        <pt x="876" y="39" on="0"/>
        <pt x="816" y="0" on="0"/>
        <pt x="762" y="0" on="1"/>
        <pt x="707" y="0" on="0"/>
        <pt x="645" y="37" on="0"/>
        <pt x="615" y="90" on="0"/>
        <pt x="608" y="148" on="0"/>
        <pt x="608" y="168" on="1"/>
        <pt x="599" y="139" on="0"/>
        <pt x="566" y="79" on="0"/>
        <pt x="514" y="31" on="0"/>
        <pt x="441" y="0" on="0"/>
        <pt x="392" y="0" on="1"/>
        <pt x="337" y="0" on="0"/>
        <pt x="227" y="36" on="0"/>
        <pt x="139" y="120" on="0"/>
        <pt x="84" y="255" on="0"/>
        <pt x="84" y="354" on="1"/>
        <pt x="84" y="644" on="1"/>
        <pt x="84" y="744" on="0"/>
        <pt x="139" y="879" on="0"/>
        <pt x="227" y="962" on="0"/>
        <pt x="337" y="998" on="0"/>
        <pt x="392" y="998" on="1"/>
        <pt x="441" y="998" on="0"/>
        <pt x="514" y="968" on="0"/>
        <pt x="566" y="920" on="0"/>
        <pt x="599" y="860" on="0"/>
        <pt x="608" y="830" on="1"/>
        <pt x="608" y="880" on="0"/>
        <pt x="636" y="946" on="0"/>
        <pt x="680" y="985" on="0"/>
        <pt x="735" y="1000" on="0"/>
        <pt x="762" y="1000" on="1"/>
        <pt x="812" y="1000" on="0"/>
        <pt x="872" y="961" on="0"/>
        <pt x="903" y="898" on="0"/>
        <pt x="912" y="815" on="0"/>
        <pt x="912" y="772" on="1"/>
      </contour>
      <contour>
        <pt x="392" y="380" on="1"/>
        <pt x="392" y="353" on="0"/>
        <pt x="396" y="301" on="0"/>
        <pt x="414" y="259" on="0"/>
        <pt x="449" y="234" on="0"/>
        <pt x="480" y="234" on="1"/>
        <pt x="519" y="234" on="0"/>
        <pt x="568" y="269" on="0"/>
        <pt x="596" y="342" on="0"/>
        <pt x="607" y="453" on="0"/>
        <pt x="608" y="530" on="1"/>
        <pt x="608" y="561" on="0"/>
        <pt x="597" y="642" on="0"/>
        <pt x="569" y="714" on="0"/>
        <pt x="519" y="764" on="0"/>
        <pt x="480" y="764" on="1"/>
        <pt x="449" y="764" on="0"/>
        <pt x="414" y="739" on="0"/>
        <pt x="396" y="699" on="0"/>
        <pt x="392" y="648" on="0"/>
        <pt x="392" y="622" on="1"/>
      </contour>
      <contour>
        <pt x="810" y="1280" on="1"/>
        <pt x="821" y="1269" on="0"/>
        <pt x="838" y="1232" on="0"/>
        <pt x="838" y="1208" on="1"/>
        <pt x="838" y="1182" on="0"/>
        <pt x="815" y="1144" on="0"/>
        <pt x="800" y="1130" on="1"/>
        <pt x="782" y="1113" on="0"/>
        <pt x="748" y="1100" on="0"/>
        <pt x="730" y="1100" on="1"/>
        <pt x="706" y="1100" on="0"/>
        <pt x="658" y="1115" on="0"/>
        <pt x="644" y="1132" on="1"/>
        <pt x="534" y="1236" on="1"/>
        <pt x="424" y="1132" on="1"/>
        <pt x="410" y="1115" on="0"/>
        <pt x="362" y="1100" on="0"/>
        <pt x="338" y="1100" on="1"/>
        <pt x="320" y="1100" on="0"/>
        <pt x="286" y="1113" on="0"/>
        <pt x="268" y="1130" on="1"/>
        <pt x="253" y="1144" on="0"/>
        <pt x="230" y="1182" on="0"/>
        <pt x="230" y="1208" on="1"/>
        <pt x="230" y="1232" on="0"/>
        <pt x="247" y="1269" on="0"/>
        <pt x="258" y="1280" on="1"/>
        <pt x="448" y="1460" on="1"/>
        <pt x="463" y="1475" on="0"/>
        <pt x="500" y="1492" on="0"/>
        <pt x="524" y="1494" on="1"/>
        <pt x="544" y="1494" on="1"/>
        <pt x="589" y="1491" on="0"/>
        <pt x="620" y="1460" on="1"/>
      </contour>
    </TTGlyph>
    <TTGlyph name="acute" xMin="132" yMin="1102" xMax="578" yMax="1452">
      <contour>
        <pt x="400" y="1434" on="1"/>
        <pt x="427" y="1452" on="0"/>
        <pt x="456" y="1452" on="1"/>
        <pt x="482" y="1452" on="0"/>
        <pt x="536" y="1435" on="0"/>
        <pt x="556" y="1406" on="1"/>
        <pt x="568" y="1388" on="0"/>
        <pt x="578" y="1352" on="0"/>
        <pt x="578" y="1338" on="1"/>
        <pt x="578" y="1311" on="0"/>
        <pt x="548" y="1266" on="0"/>
        <pt x="528" y="1252" on="1"/>
        <pt x="308" y="1118" on="1"/>
        <pt x="294" y="1109" on="0"/>
        <pt x="263" y="1102" on="0"/>
        <pt x="248" y="1102" on="1"/>
        <pt x="221" y="1102" on="0"/>
        <pt x="174" y="1119" on="0"/>
        <pt x="154" y="1148" on="1"/>
        <pt x="142" y="1165" on="0"/>
        <pt x="132" y="1198" on="0"/>
        <pt x="132" y="1212" on="1"/>
        <pt x="132" y="1242" on="0"/>
        <pt x="162" y="1289" on="0"/>
        <pt x="176" y="1298" on="1"/>
      </contour>
    </TTGlyph>
    <TTGlyph name="adieresis" xMin="84" yMin="0" xMax="912" yMax="1402">
      <contour>
        <pt x="912" y="226" on="1"/>
        <pt x="912" y="184" on="0"/>
        <pt x="906" y="103" on="0"/>
        <pt x="876" y="39" on="0"/>
        <pt x="816" y="0" on="0"/>
        <pt x="762" y="0" on="1"/>
        <pt x="707" y="0" on="0"/>
        <pt x="645" y="37" on="0"/>
        <pt x="615" y="90" on="0"/>
        <pt x="608" y="148" on="0"/>
        <pt x="608" y="168" on="1"/>
        <pt x="599" y="139" on="0"/>
        <pt x="566" y="79" on="0"/>
        <pt x="514" y="31" on="0"/>
        <pt x="441" y="0" on="0"/>
        <pt x="392" y="0" on="1"/>
        <pt x="337" y="0" on="0"/>
        <pt x="227" y="36" on="0"/>
        <pt x="139" y="120" on="0"/>
        <pt x="84" y="255" on="0"/>
        <pt x="84" y="354" on="1"/>
        <pt x="84" y="644" on="1"/>
        <pt x="84" y="744" on="0"/>
        <pt x="139" y="879" on="0"/>
        <pt x="227" y="962" on="0"/>
        <pt x="337" y="998" on="0"/>
        <pt x="392" y="998" on="1"/>
        <pt x="441" y="998" on="0"/>
        <pt x="514" y="968" on="0"/>
        <pt x="566" y="920" on="0"/>
        <pt x="599" y="860" on="0"/>
        <pt x="608" y="830" on="1"/>
        <pt x="608" y="880" on="0"/>
        <pt x="636" y="946" on="0"/>
        <pt x="680" y="985" on="0"/>
        <pt x="735" y="1000" on="0"/>
        <pt x="762" y="1000" on="1"/>
        <pt x="812" y="1000" on="0"/>
        <pt x="872" y="961" on="0"/>
        <pt x="903" y="898" on="0"/>
        <pt x="912" y="815" on="0"/>
        <pt x="912" y="772" on="1"/>
      </contour>
      <contour>
        <pt x="392" y="380" on="1"/>
        <pt x="392" y="353" on="0"/>
        <pt x="396" y="301" on="0"/>
        <pt x="414" y="259" on="0"/>
        <pt x="449" y="234" on="0"/>
        <pt x="480" y="234" on="1"/>
        <pt x="519" y="234" on="0"/>
        <pt x="568" y="269" on="0"/>
        <pt x="596" y="342" on="0"/>
        <pt x="607" y="453" on="0"/>
        <pt x="608" y="530" on="1"/>
        <pt x="608" y="561" on="0"/>
        <pt x="597" y="642" on="0"/>
        <pt x="569" y="714" on="0"/>
        <pt x="519" y="764" on="0"/>
        <pt x="480" y="764" on="1"/>
        <pt x="449" y="764" on="0"/>
        <pt x="414" y="739" on="0"/>
        <pt x="396" y="699" on="0"/>
        <pt x="392" y="648" on="0"/>
        <pt x="392" y="622" on="1"/>
      </contour>
      <contour>
        <pt x="454" y="1250" on="1"/>
        <pt x="454" y="1173" on="0"/>
        <pt x="374" y="1098" on="0"/>
        <pt x="302" y="1098" on="1"/>
        <pt x="230" y="1098" on="0"/>
        <pt x="150" y="1173" on="0"/>
        <pt x="150" y="1250" on="1"/>
        <pt x="150" y="1330" on="0"/>
        <pt x="230" y="1402" on="0"/>
        <pt x="302" y="1402" on="1"/>
        <pt x="379" y="1402" on="0"/>
        <pt x="454" y="1330" on="0"/>
      </contour>
      <contour>
        <pt x="870" y="1250" on="1"/>
        <pt x="870" y="1173" on="0"/>
        <pt x="790" y="1098" on="0"/>
        <pt x="718" y="1098" on="1"/>
        <pt x="646" y="1098" on="0"/>
        <pt x="566" y="1173" on="0"/>
        <pt x="566" y="1250" on="1"/>
        <pt x="566" y="1330" on="0"/>
        <pt x="646" y="1402" on="0"/>
        <pt x="718" y="1402" on="1"/>
        <pt x="795" y="1402" on="0"/>
        <pt x="870" y="1330" on="0"/>
      </contour>
    </TTGlyph>
    <TTGlyph name="ae" xMin="22" yMin="0" xMax="1398" yMax="1002">
      <contour>
        <pt x="22" y="250" on="1"/>
        <pt x="22" y="333" on="0"/>
        <pt x="104" y="453" on="0"/>
        <pt x="239" y="534" on="0"/>
        <pt x="409" y="581" on="0"/>
        <pt x="498" y="592" on="1"/>
        <pt x="554" y="598" on="1"/>
        <pt x="554" y="720" on="1"/>
        <pt x="554" y="756" on="0"/>
        <pt x="510" y="804" on="0"/>
        <pt x="454" y="804" on="1"/>
        <pt x="392" y="804" on="0"/>
        <pt x="340" y="761" on="0"/>
        <pt x="340" y="720" on="1"/>
        <pt x="340" y="706" on="0"/>
        <pt x="331" y="674" on="0"/>
        <pt x="297" y="645" on="0"/>
        <pt x="230" y="626" on="0"/>
        <pt x="172" y="626" on="1"/>
        <pt x="122" y="626" on="0"/>
        <pt x="66" y="648" on="0"/>
        <pt x="39" y="679" on="0"/>
        <pt x="34" y="713" on="0"/>
        <pt x="34" y="726" on="1"/>
        <pt x="34" y="811" on="0"/>
        <pt x="113" y="919" on="0"/>
        <pt x="234" y="980" on="0"/>
        <pt x="377" y="1002" on="0"/>
        <pt x="442" y="1002" on="1"/>
        <pt x="479" y="1002" on="0"/>
        <pt x="569" y="993" on="0"/>
        <pt x="653" y="969" on="0"/>
        <pt x="724" y="926" on="0"/>
        <pt x="744" y="892" on="1"/>
        <pt x="762" y="920" on="0"/>
        <pt x="821" y="961" on="0"/>
        <pt x="889" y="988" on="0"/>
        <pt x="959" y="1002" on="0"/>
        <pt x="988" y="1002" on="1"/>
        <pt x="1077" y="1002" on="0"/>
        <pt x="1206" y="973" on="0"/>
        <pt x="1297" y="925" on="0"/>
        <pt x="1352" y="864" on="0"/>
        <pt x="1383" y="798" on="0"/>
        <pt x="1394" y="733" on="0"/>
        <pt x="1394" y="706" on="1"/>
        <pt x="1394" y="660" on="1"/>
        <pt x="1394" y="616" on="0"/>
        <pt x="1349" y="544" on="0"/>
        <pt x="1230" y="489" on="0"/>
        <pt x="1021" y="452" on="0"/>
        <pt x="858" y="444" on="1"/>
        <pt x="858" y="348" on="1"/>
        <pt x="858" y="324" on="0"/>
        <pt x="870" y="272" on="0"/>
        <pt x="899" y="228" on="0"/>
        <pt x="947" y="200" on="0"/>
        <pt x="982" y="200" on="1"/>
        <pt x="1004" y="200" on="0"/>
        <pt x="1044" y="210" on="0"/>
        <pt x="1074" y="231" on="0"/>
        <pt x="1092" y="262" on="0"/>
        <pt x="1092" y="282" on="1"/>
        <pt x="1092" y="295" on="0"/>
        <pt x="1101" y="328" on="0"/>
        <pt x="1135" y="357" on="0"/>
        <pt x="1202" y="376" on="0"/>
        <pt x="1260" y="376" on="1"/>
        <pt x="1310" y="376" on="0"/>
        <pt x="1366" y="354" on="0"/>
        <pt x="1393" y="323" on="0"/>
        <pt x="1398" y="289" on="0"/>
        <pt x="1398" y="276" on="1"/>
        <pt x="1398" y="219" on="0"/>
        <pt x="1357" y="134" on="0"/>
        <pt x="1292" y="72" on="0"/>
        <pt x="1210" y="33" on="0"/>
        <pt x="1128" y="9" on="0"/>
        <pt x="1053" y="0" on="0"/>
        <pt x="1028" y="0" on="1"/>
        <pt x="989" y="0" on="0"/>
        <pt x="908" y="10" on="0"/>
        <pt x="830" y="35" on="0"/>
        <pt x="758" y="79" on="0"/>
        <pt x="728" y="114" on="1"/>
        <pt x="703" y="76" on="0"/>
        <pt x="635" y="31" on="0"/>
        <pt x="554" y="7" on="0"/>
        <pt x="460" y="0" on="0"/>
        <pt x="410" y="0" on="1"/>
        <pt x="303" y="0" on="0"/>
        <pt x="156" y="36" on="0"/>
        <pt x="63" y="102" on="0"/>
        <pt x="22" y="194" on="0"/>
      </contour>
      <contour>
        <pt x="1108" y="696" on="1"/>
        <pt x="1108" y="723" on="0"/>
        <pt x="1087" y="763" on="0"/>
        <pt x="1052" y="790" on="0"/>
        <pt x="1008" y="804" on="0"/>
        <pt x="986" y="804" on="1"/>
        <pt x="939" y="804" on="0"/>
        <pt x="887" y="768" on="0"/>
        <pt x="863" y="714" on="0"/>
        <pt x="858" y="652" on="0"/>
        <pt x="858" y="626" on="1"/>
        <pt x="858" y="608" on="1"/>
        <pt x="914" y="612" on="0"/>
        <pt x="1006" y="619" on="0"/>
        <pt x="1072" y="631" on="0"/>
        <pt x="1108" y="652" on="0"/>
        <pt x="1108" y="672" on="1"/>
      </contour>
      <contour>
        <pt x="554" y="426" on="1"/>
        <pt x="513" y="424" on="0"/>
        <pt x="430" y="401" on="0"/>
        <pt x="364" y="359" on="0"/>
        <pt x="322" y="297" on="0"/>
        <pt x="322" y="254" on="1"/>
        <pt x="322" y="221" on="0"/>
        <pt x="366" y="200" on="0"/>
        <pt x="398" y="200" on="1"/>
        <pt x="443" y="200" on="0"/>
        <pt x="503" y="220" on="0"/>
        <pt x="539" y="258" on="0"/>
        <pt x="554" y="311" on="0"/>
        <pt x="554" y="344" on="1"/>
      </contour>
    </TTGlyph>
    <TTGlyph name="agrave" xMin="84" yMin="0" xMax="912" yMax="1450">
      <contour>
        <pt x="912" y="226" on="1"/>
        <pt x="912" y="184" on="0"/>
        <pt x="906" y="103" on="0"/>
        <pt x="876" y="39" on="0"/>
        <pt x="816" y="0" on="0"/>
        <pt x="762" y="0" on="1"/>
        <pt x="707" y="0" on="0"/>
        <pt x="645" y="37" on="0"/>
        <pt x="615" y="90" on="0"/>
        <pt x="608" y="148" on="0"/>
        <pt x="608" y="168" on="1"/>
        <pt x="599" y="139" on="0"/>
        <pt x="566" y="79" on="0"/>
        <pt x="514" y="31" on="0"/>
        <pt x="441" y="0" on="0"/>
        <pt x="392" y="0" on="1"/>
        <pt x="337" y="0" on="0"/>
        <pt x="227" y="36" on="0"/>
        <pt x="139" y="120" on="0"/>
        <pt x="84" y="255" on="0"/>
        <pt x="84" y="354" on="1"/>
        <pt x="84" y="644" on="1"/>
        <pt x="84" y="744" on="0"/>
        <pt x="139" y="879" on="0"/>
        <pt x="227" y="962" on="0"/>
        <pt x="337" y="998" on="0"/>
        <pt x="392" y="998" on="1"/>
        <pt x="441" y="998" on="0"/>
        <pt x="514" y="968" on="0"/>
        <pt x="566" y="920" on="0"/>
        <pt x="599" y="860" on="0"/>
        <pt x="608" y="830" on="1"/>
        <pt x="608" y="880" on="0"/>
        <pt x="636" y="946" on="0"/>
        <pt x="680" y="985" on="0"/>
        <pt x="735" y="1000" on="0"/>
        <pt x="762" y="1000" on="1"/>
        <pt x="812" y="1000" on="0"/>
        <pt x="872" y="961" on="0"/>
        <pt x="903" y="898" on="0"/>
        <pt x="912" y="815" on="0"/>
        <pt x="912" y="772" on="1"/>
      </contour>
      <contour>
        <pt x="392" y="380" on="1"/>
        <pt x="392" y="353" on="0"/>
        <pt x="396" y="301" on="0"/>
        <pt x="414" y="259" on="0"/>
        <pt x="449" y="234" on="0"/>
        <pt x="480" y="234" on="1"/>
        <pt x="519" y="234" on="0"/>
        <pt x="568" y="269" on="0"/>
        <pt x="596" y="342" on="0"/>
        <pt x="607" y="453" on="0"/>
        <pt x="608" y="530" on="1"/>
        <pt x="608" y="561" on="0"/>
        <pt x="597" y="642" on="0"/>
        <pt x="569" y="714" on="0"/>
        <pt x="519" y="764" on="0"/>
        <pt x="480" y="764" on="1"/>
        <pt x="449" y="764" on="0"/>
        <pt x="414" y="739" on="0"/>
        <pt x="396" y="699" on="0"/>
        <pt x="392" y="648" on="0"/>
        <pt x="392" y="622" on="1"/>
      </contour>
      <contour>
        <pt x="678" y="1296" on="1"/>
        <pt x="692" y="1287" on="0"/>
        <pt x="722" y="1240" on="0"/>
        <pt x="722" y="1210" on="1"/>
        <pt x="722" y="1196" on="0"/>
        <pt x="712" y="1163" on="0"/>
        <pt x="700" y="1146" on="1"/>
        <pt x="680" y="1117" on="0"/>
        <pt x="633" y="1100" on="0"/>
        <pt x="606" y="1100" on="1"/>
        <pt x="591" y="1100" on="0"/>
        <pt x="560" y="1107" on="0"/>
        <pt x="546" y="1116" on="1"/>
        <pt x="326" y="1250" on="1"/>
        <pt x="306" y="1264" on="0"/>
        <pt x="276" y="1309" on="0"/>
        <pt x="276" y="1336" on="1"/>
        <pt x="276" y="1350" on="0"/>
        <pt x="286" y="1386" on="0"/>
        <pt x="298" y="1404" on="1"/>
        <pt x="318" y="1433" on="0"/>
        <pt x="372" y="1450" on="0"/>
        <pt x="398" y="1450" on="1"/>
        <pt x="427" y="1450" on="0"/>
        <pt x="454" y="1432" on="1"/>
      </contour>
    </TTGlyph>
</ttFont>
